<svg xmlns="http://www.w3.org/2000/svg" width="67.971" height="67.971" viewBox="0 0 67.971 67.971">
  <path id="Icon_awesome-arrow-alt-circle-right" data-name="Icon awesome-arrow-alt-circle-right" d="M33.548.562A32.985,32.985,0,1,1,.562,33.548,32.98,32.98,0,0,1,33.548.562ZM18.119,39.4H33.548v9.43a1.6,1.6,0,0,0,2.727,1.131l15.2-15.282a1.582,1.582,0,0,0,0-2.248l-15.2-15.3a1.6,1.6,0,0,0-2.727,1.131V27.7H18.119a1.6,1.6,0,0,0-1.6,1.6V37.8A1.6,1.6,0,0,0,18.119,39.4Z" transform="translate(0.438 0.438)" fill="#2a5d9e" stroke="#2e268e" stroke-width="2"/>
</svg>
