<svg width="352" height="380" viewBox="0 0 352 380" fill="none" xmlns="http://www.w3.org/2000/svg">
<path opacity="0.1" d="M290.893 339.214H203.333V350.534H290.893V339.214Z" fill="#6C63FF"/>
<path opacity="0.1" d="M98.1791 159.392H81.8977V175.659H98.1791V159.392Z" fill="#6C63FF"/>
<path opacity="0.1" d="M98.1791 197.186H81.8977V213.452H98.1791V197.186Z" fill="#6C63FF"/>
<path opacity="0.1" d="M98.1791 234.973H81.8977V251.239H98.1791V234.973Z" fill="#6C63FF"/>
<path opacity="0.1" d="M98.1791 272.766H81.8977V289.033H98.1791V272.766Z" fill="#6C63FF"/>
<path opacity="0.1" d="M98.1791 310.56H81.8977V326.826H98.1791V310.56Z" fill="#6C63FF"/>
<path opacity="0.1" d="M98.1791 348.347H81.8977V364.613H98.1791V348.347Z" fill="#6C63FF"/>
<path opacity="0.1" d="M0.561035 204.733V214.064H62.8318V204.733H0.561035ZM6.10685 213.481H1.53593V205.316H6.10685V213.481ZM11.6527 213.481H7.08175V205.316H11.6527V213.481ZM17.1985 213.481H12.6276V205.316H17.1985V213.481ZM22.7443 213.481H18.1734V205.316H22.7443V213.481ZM28.2901 213.481H23.7192V205.316H28.2901V213.481ZM33.8359 213.481H29.265V205.316H33.8359V213.481ZM39.3817 213.481H34.8108V205.316H39.3817V213.481ZM44.9276 213.481H40.3566V205.316H44.9276V213.481ZM50.4734 213.481H45.9025V205.316H50.4734V213.481ZM56.0192 213.481H51.4483V205.316H56.0192V213.481ZM61.8569 213.481H56.9941V205.316H61.8569V213.481Z" fill="#6C63FF"/>
<path opacity="0.1" d="M0.561035 231.829V241.132H62.8318V231.829H0.561035ZM6.10685 240.549H1.53593V232.413H6.10685V240.549ZM11.6527 240.549H7.08175V232.413H11.6527V240.549ZM17.1985 240.549H12.6276V232.413H17.1985V240.549ZM22.7443 240.549H18.1734V232.413H22.7443V240.549ZM28.2901 240.549H23.7192V232.413H28.2901V240.549ZM33.8359 240.549H29.265V232.413H33.8359V240.549ZM39.3817 240.549H34.8108V232.413H39.3817V240.549ZM44.9276 240.549H40.3566V232.413H44.9276V240.549ZM50.4734 240.549H45.9025V232.413H50.4734V240.549ZM56.0192 240.549H51.4483V232.413H56.0192V240.549ZM61.8569 240.549H56.9941V232.413H61.8569V240.549Z" fill="#6C63FF"/>
<path opacity="0.1" d="M0.561035 258.92V268.223H62.8318V258.92H0.561035ZM6.10685 267.64H1.53593V259.504H6.10685V267.64ZM11.6527 267.64H7.08175V259.504H11.6527V267.64ZM17.1985 267.64H12.6276V259.504H17.1985V267.64ZM22.7443 267.64H18.1734V259.504H22.7443V267.64ZM28.2901 267.64H23.7192V259.504H28.2901V267.64ZM33.8359 267.64H29.265V259.504H33.8359V267.64ZM39.3817 267.64H34.8108V259.504H39.3817V267.64ZM44.9276 267.64H40.3566V259.504H44.9276V267.64ZM50.4734 267.64H45.9025V259.504H50.4734V267.64ZM56.0192 267.64H51.4483V259.504H56.0192V267.64ZM61.8569 267.64H56.9941V259.504H61.8569V267.64Z" fill="#6C63FF"/>
<path opacity="0.1" d="M0.561035 285.988V295.32H62.8318V285.988H0.561035ZM6.10685 294.737H1.53593V286.571H6.10685V294.737ZM11.6527 294.737H7.08175V286.571H11.6527V294.737ZM17.1985 294.737H12.6276V286.571H17.1985V294.737ZM22.7443 294.737H18.1734V286.571H22.7443V294.737ZM28.2901 294.737H23.7192V286.571H28.2901V294.737ZM33.8359 294.737H29.265V286.571H33.8359V294.737ZM39.3817 294.737H34.8108V286.571H39.3817V294.737ZM44.9276 294.737H40.3566V286.571H44.9276V294.737ZM50.4734 294.737H45.9025V286.571H50.4734V294.737ZM56.0192 294.737H51.4483V286.571H56.0192V294.737ZM61.8569 294.737H56.9941V286.571H61.8569V294.737Z" fill="#6C63FF"/>
<path opacity="0.1" d="M0.800293 313.102C1.02213 313.977 1.27315 314.852 1.53584 315.715V313.686H6.10677V321.851H3.66661C3.73666 322.043 3.81255 322.242 3.89428 322.434H62.8551V313.102H0.800293ZM11.6526 321.851H7.08166V313.686H11.6526V321.851ZM17.1984 321.851H12.6275V313.686H17.1984V321.851ZM22.7442 321.851H18.1733V313.686H22.7442V321.851ZM28.29 321.851H23.7191V313.686H28.29V321.851ZM33.8358 321.851H29.2649V313.686H33.8358V321.851ZM39.3817 321.851H34.8107V313.686H39.3817V321.851ZM44.9275 321.851H40.3566V313.686H44.9275V321.851ZM50.4733 321.851H45.9024V313.686H50.4733V321.851ZM56.0191 321.851H51.4482V313.686H56.0191V321.851ZM61.8568 321.851H56.994V313.686H61.8568V321.851Z" fill="#6C63FF"/>
<path opacity="0.1" d="M13.7424 340.193C13.8825 340.386 14.0226 340.584 14.1686 340.777H17.1983V344.69C17.5194 345.081 17.8463 345.466 18.1732 345.857V340.782H22.7442V348.948H20.8936C21.0746 349.14 21.2555 349.338 21.4482 349.531H62.8317V340.199L13.7424 340.193ZM28.29 348.942H23.7191V340.777H28.29V348.942ZM33.8358 348.942H29.2649V340.777H33.8358V348.942ZM39.3816 348.942H34.8107V340.777H39.3816V348.942ZM44.9274 348.942H40.3565V340.777H44.9274V348.942ZM50.4732 348.942H45.9023V340.777H50.4732V348.942ZM56.019 348.942H51.4481V340.777H56.019V348.942ZM61.8567 348.942H56.994V340.777H61.8567V348.942Z" fill="#6C63FF"/>
<path opacity="0.1" d="M44.3088 367.284C44.8342 367.582 45.3655 367.868 45.9025 368.153V367.868H50.4734V370.445L51.4484 370.889V367.868H56.0193V372.819L56.9942 373.192V367.868H61.857V374.866L62.8319 375.17V367.284H44.3088Z" fill="#6C63FF"/>
<path opacity="0.1" d="M199.79 171.349C199.79 171.349 195.032 184.436 204.851 185.632C205.301 185.853 205.809 185.926 206.303 185.841C206.797 185.757 207.251 185.518 207.601 185.159C207.601 185.159 206.918 184.932 207.548 183.655C207.769 183.201 207.938 182.724 208.05 182.232C208.198 181.564 208.124 180.866 207.84 180.243V180.243C207.84 180.243 207.402 176.038 201.705 172.766C201.705 172.766 200.689 171.29 200.333 171.232L200.625 173.769C200.625 173.769 202.475 173.477 203.649 174.481C203.649 174.481 200.73 173.693 200.654 174.148C200.654 174.236 200.87 175.484 200.87 175.484C200.87 175.484 204.092 174.994 205.85 176.604C205.85 176.604 202.475 175.192 200.952 175.956L201.407 177.811C201.407 177.811 204.787 177.134 206.86 178.884C206.86 178.884 203.287 177.537 201.536 178.213L202.23 179.963C202.23 179.963 205.54 179.38 207.256 180.832C207.256 180.832 202.96 179.665 202.417 180.354C202.716 181.033 203.096 181.673 203.55 182.261C203.55 182.261 205.937 181.888 206.854 182.844C206.854 182.844 203.906 182.383 203.801 182.687C203.801 182.687 205.313 184.495 206.562 185.02C205.389 184.605 204.344 183.891 203.532 182.949C203.455 183.712 203.603 184.48 203.958 185.159C203.958 185.159 202.686 184.576 203.17 182.506C203.17 182.506 202.049 181.054 202.049 180.756C202.049 180.756 201.279 182.722 201.465 184.11C201.465 184.11 200.531 182.657 201.851 180.295L201.115 178.546C201.115 178.546 199.948 181.094 200.029 182.343C200.029 182.343 199.306 180.715 200.963 178.085L200.502 176.271C199.891 177.373 199.426 178.549 199.119 179.77C199.119 179.77 198.768 178.12 200.386 175.723L200.216 174.475C200.216 174.475 199.399 176.038 199.206 176.51C199.014 176.983 198.868 176.965 198.868 176.965C199.002 175.862 199.441 174.818 200.134 173.95C200.134 173.95 199.948 171.349 199.79 171.349Z" fill="#6C63FF"/>
<path opacity="0.1" d="M160.17 267.325C160.17 267.325 155.412 280.418 165.231 281.614C165.681 281.835 166.19 281.908 166.684 281.822C167.178 281.736 167.632 281.496 167.981 281.136C167.981 281.136 167.298 280.908 167.928 279.637C168.152 279.182 168.321 278.703 168.43 278.208C168.581 277.54 168.507 276.841 168.22 276.219V276.219C168.22 276.219 167.782 272.014 162.084 268.748C162.084 268.748 161.069 267.272 160.713 267.214L161.004 269.745C161.004 269.745 162.861 269.459 164.028 270.463C164.028 270.463 161.11 269.675 161.034 270.124C161.034 270.218 161.25 271.46 161.25 271.46C161.25 271.46 164.472 270.976 166.229 272.58C166.229 272.58 162.855 271.174 161.331 271.932L161.787 273.793C161.787 273.793 165.167 273.11 167.239 274.866C167.239 274.866 163.666 273.513 161.915 274.189L162.61 275.939C162.61 275.939 165.92 275.356 167.636 276.808C167.636 276.808 163.345 275.642 162.797 276.336C163.096 277.015 163.476 277.655 163.929 278.243C163.929 278.243 166.317 277.864 167.239 278.826C167.239 278.826 164.285 278.365 164.18 278.674C164.18 278.674 165.692 280.477 166.941 281.007C165.768 280.596 164.723 279.884 163.912 278.943C163.834 279.703 163.983 280.47 164.338 281.147C164.338 281.147 163.065 280.564 163.55 278.499C163.55 278.499 162.435 277.041 162.429 276.75C162.429 276.75 161.658 278.721 161.845 280.103C161.845 280.103 160.911 278.657 162.23 276.289L161.495 274.539C161.495 274.539 160.327 277.088 160.415 278.33C160.415 278.33 159.691 276.709 161.349 274.079L160.882 272.265C160.27 273.366 159.805 274.542 159.498 275.764C159.498 275.764 159.148 274.108 160.765 271.716L160.596 270.463C160.596 270.463 159.779 272.026 159.586 272.498C159.393 272.97 159.247 272.953 159.247 272.953C159.382 271.849 159.823 270.805 160.52 269.938C160.52 269.938 160.327 267.325 160.17 267.325Z" fill="#6C63FF"/>
<path opacity="0.1" d="M141.29 143.919C141.29 143.919 136.538 157.007 146.352 158.203C146.802 158.423 147.311 158.496 147.806 158.411C148.3 158.327 148.756 158.088 149.107 157.73C149.107 157.73 148.418 157.503 149.055 156.226C149.275 155.77 149.441 155.29 149.551 154.797C149.7 154.131 149.628 153.435 149.346 152.814C149.346 152.814 148.909 148.609 143.205 145.337C143.205 145.337 142.189 143.861 141.833 143.803L142.131 146.34C142.131 146.34 143.982 146.048 145.149 147.051C145.149 147.051 142.23 146.264 142.154 146.719C142.154 146.806 142.37 148.054 142.37 148.054C142.37 148.054 145.593 147.565 147.356 149.174C147.356 149.174 143.982 147.763 142.452 148.527L142.907 150.382C142.907 150.382 146.287 149.699 148.366 151.455C148.366 151.455 144.787 150.102 143.036 150.784L143.731 152.534C143.731 152.534 147.041 151.95 148.757 153.409C148.757 153.409 144.466 152.242 143.917 152.93C144.216 153.609 144.597 154.25 145.05 154.837C145.05 154.837 147.437 154.464 148.36 155.421C148.36 155.421 145.412 154.96 145.307 155.263C145.307 155.263 146.813 157.071 148.062 157.596C146.89 157.18 145.846 156.466 145.032 155.526C144.955 156.288 145.103 157.057 145.458 157.736C145.458 157.736 144.186 157.153 144.676 155.082C144.676 155.082 143.555 153.63 143.55 153.333C143.55 153.333 142.785 155.298 142.966 156.686C142.966 156.686 142.026 155.234 143.351 152.872L142.61 151.122C142.61 151.122 141.442 153.671 141.53 154.919C141.53 154.919 140.806 153.292 142.464 150.662L141.997 148.848C141.386 149.949 140.921 151.126 140.613 152.347C140.613 152.347 140.269 150.697 141.88 148.299L141.717 147.051C141.717 147.051 140.893 148.614 140.701 149.081C140.508 149.548 140.362 149.542 140.362 149.542C140.497 148.438 140.938 147.394 141.635 146.526C141.635 146.526 141.454 143.919 141.29 143.919Z" fill="#6C63FF"/>
<path opacity="0.1" d="M176.573 215.19C176.573 215.19 180.245 228.604 188.955 223.938C189.45 223.86 189.908 223.627 190.262 223.273C190.616 222.919 190.85 222.462 190.928 221.967C190.928 221.967 190.24 222.177 190.024 220.771C189.941 220.273 189.8 219.785 189.603 219.319C189.344 218.686 188.882 218.157 188.29 217.814C188.29 217.814 185.505 214.63 178.949 215.237C178.949 215.237 177.268 214.624 176.941 214.782L178.646 216.677C178.646 216.677 179.994 215.377 181.53 215.511C181.53 215.511 178.675 216.561 178.885 216.963C178.932 217.045 179.831 217.931 179.831 217.931C179.831 217.931 182.166 215.674 184.548 215.971C184.548 215.971 180.981 216.765 180.175 218.269L181.617 219.523C181.617 219.523 183.987 217.021 186.696 217.255C186.696 217.255 182.989 218.211 181.95 219.774L183.538 220.818C183.538 220.818 185.873 218.421 188.15 218.637C188.15 218.637 183.982 220.171 183.917 221.034C184.555 221.417 185.237 221.721 185.949 221.938C185.949 221.938 187.7 220.258 188.979 220.497C188.979 220.497 186.299 221.821 186.393 222.13C186.393 222.13 188.669 222.714 189.983 222.434C188.787 222.772 187.523 222.793 186.317 222.492C186.692 223.16 187.257 223.701 187.939 224.049C187.939 224.049 186.562 224.3 185.768 222.334C185.768 222.334 184.017 221.792 183.83 221.547C183.83 221.547 184.343 223.6 185.289 224.627C185.289 224.627 183.69 223.979 183.404 221.285L181.787 220.276C181.787 220.276 182.318 223.023 183.088 223.997C183.088 223.997 181.559 223.087 181.395 219.984L179.971 218.771C180.11 220.03 180.412 221.265 180.87 222.445C180.87 222.445 179.638 221.279 179.574 218.409L178.716 217.482C178.716 217.482 178.949 219.232 179.06 219.727C179.171 220.223 179.06 220.311 179.06 220.311C178.534 219.331 178.292 218.224 178.36 217.115C178.36 217.115 176.708 215.102 176.573 215.19Z" fill="#6C63FF"/>
<path d="M238.815 361.884C238.815 361.884 269.101 351.695 262.831 315.593L224.361 305.614L215.429 335.236L238.815 361.884Z" fill="#CED7E7"/>
<path opacity="0.1" d="M215.429 335.236L238.809 361.884C238.809 361.884 269.095 351.695 262.825 315.593L215.429 335.236Z" fill="black"/>
<path d="M88.1675 68.5255C88.1675 68.5255 92.2539 75.1684 97.8405 71.8499C103.427 68.5313 98.0682 59.3629 98.0682 59.3629C98.0682 59.3629 87.3677 57.899 88.1675 68.5255Z" fill="#FED253"/>
<path opacity="0.1" d="M97.8405 71.8498C97.1815 72.2758 96.4423 72.5628 95.6684 72.6932C94.8944 72.8236 94.1019 72.7946 93.3396 72.608C91.2906 72.089 89.7144 70.5142 88.8679 69.4819C88.6154 69.1795 88.3814 68.862 88.1674 68.5313C87.8813 64.7403 89.0606 62.4832 90.6951 61.1534C92.9426 59.3279 96.0541 59.2521 97.3968 59.3104C97.8113 59.3104 98.0506 59.3687 98.0506 59.3687L98.1615 59.5554C98.3191 59.8528 98.6636 60.5119 99.0313 61.3925C100.281 64.2795 101.769 69.5111 97.8405 71.8498Z" fill="black"/>
<path d="M241.792 313.896L262.808 315.593L301.921 315.913L271.103 353.823C271.103 353.823 261.325 354.354 259.311 355.731C257.297 357.107 229.019 356.372 229.019 356.372L224.454 336.939L241.792 313.896Z" fill="#FFA2A2"/>
<path opacity="0.05" d="M241.792 313.896L262.808 315.593L301.921 315.913L271.103 353.823C271.103 353.823 261.325 354.354 259.311 355.731C257.297 357.107 229.019 356.372 229.019 356.372L224.454 336.939L241.792 313.896Z" fill="black"/>
<path d="M220.537 211.971L225.423 220.252L226.486 234.693C226.486 234.693 229.889 247.005 232.44 250.615C234.991 254.225 236.054 263.785 236.054 263.785C236.054 263.785 237.116 272.702 238.389 274.609C239.662 276.516 241.366 290.356 241.366 290.356C241.366 290.356 252.633 312.863 262.831 315.622C262.831 315.622 212.248 332.186 238.815 361.913C238.815 361.913 219.901 366.579 215.435 361.277C210.969 355.976 199.282 277.403 199.282 277.403L202.896 211.148L220.537 211.971Z" fill="#CED7E7"/>
<path opacity="0.05" d="M220.537 211.971L225.423 220.252L226.486 234.693C226.486 234.693 229.889 247.005 232.44 250.615C234.991 254.225 236.054 263.785 236.054 263.785C236.054 263.785 237.116 272.702 238.389 274.609C239.662 276.516 241.366 290.356 241.366 290.356C241.366 290.356 252.633 312.863 262.831 315.622C262.831 315.622 212.248 332.186 238.815 361.913C238.815 361.913 219.901 366.579 215.435 361.277C210.969 355.976 199.282 277.403 199.282 277.403L202.896 211.148L220.537 211.971Z" fill="black"/>
<path d="M159.165 131.258C157.746 138.614 158.167 146.207 160.391 153.362L152.522 175.869C152.522 175.869 92.5864 142.531 97.6886 134.459C100.578 129.881 100.946 117.767 100.713 108.144C100.543 100.83 100.024 94.9632 100.024 94.9632C100.024 94.9632 173.579 102.189 163.789 118.963C161.573 122.775 160.011 126.931 159.165 131.258V131.258Z" fill="#FFA2A2"/>
<path opacity="0.1" d="M163.789 118.963C161.573 122.775 160.011 126.931 159.165 131.258C148.25 134.746 136.461 134.35 125.805 130.136C115.148 125.923 106.282 118.151 100.713 108.144C100.543 100.83 100.024 94.9632 100.024 94.9632C100.024 94.9632 173.561 102.189 163.789 118.963Z" fill="black"/>
<path d="M193.544 82.8612C193.549 90.6465 191.715 98.3232 188.191 105.267C184.668 112.211 179.554 118.227 173.265 122.824C166.977 127.422 159.691 130.472 152 131.727C144.31 132.982 136.431 132.407 129.005 130.047C121.579 127.687 114.815 123.61 109.263 118.147C103.711 112.684 99.5279 105.989 97.0532 98.607C94.5786 91.2246 93.8824 83.363 95.0214 75.6613C96.1603 67.9595 99.1022 60.635 103.608 54.283C104.309 53.2993 105.046 52.3389 105.82 51.4018C110.233 46.0433 115.725 41.6717 121.938 38.5708V38.5708C125.309 36.8858 128.865 35.598 132.534 34.7332C139.158 33.1653 146.035 32.976 152.735 34.1771C159.436 35.3782 165.818 37.9439 171.483 41.7148C177.149 45.4856 181.977 50.3808 185.668 56.0959C189.359 61.811 191.833 68.2237 192.936 74.9351C193.349 77.5569 193.552 80.2073 193.544 82.8612Z" fill="#FFA2A2"/>
<path d="M213.094 286.297C212.353 290.251 213.281 297.478 214.688 304.832C214.746 305.153 214.811 305.474 214.875 305.795C214.939 306.115 215.032 306.611 215.114 307.013C215.762 310.175 216.468 313.306 217.157 316.153C217.846 318.999 218.465 321.437 218.99 323.443C219.784 326.447 220.327 328.336 220.327 328.336C220.327 328.336 220.397 330.191 220.491 333.142C220.543 334.845 220.602 336.921 220.66 339.214C220.66 339.878 220.701 340.555 220.718 341.255C220.747 342.474 220.777 343.739 220.806 345.034C220.806 345.454 220.806 345.874 220.835 346.3C220.835 347.694 220.888 349.117 220.911 350.534C220.94 352.482 220.963 354.43 220.975 356.32C220.975 357.043 220.975 357.754 220.975 358.454C220.975 360.262 220.975 361.994 220.975 363.587C220.911 368.107 220.73 371.519 220.345 372.504C220.21 372.842 220.088 373.21 219.971 373.595C219.465 375.405 219.098 377.252 218.874 379.118L217.881 378.307C215.984 376.744 214.104 375.146 212.195 373.595C209.022 370.939 205.654 368.526 202.119 366.374C201.88 366.235 201.641 366.095 201.395 365.96C200.742 365.581 200.076 365.226 199.399 364.887C198.004 364.185 196.574 363.554 195.114 362.998C188.372 360.431 181.15 359.498 173.83 359.656C170.911 360.77 169.014 361.569 169.014 361.569L165.301 362.688L164.682 362.875C160.66 364.1 155.003 365.838 152.966 366.561C149.673 367.728 121.086 373.671 121.086 373.671C118.475 374.383 115.807 374.871 113.112 375.129C108.205 376.508 103.21 377.552 98.1616 378.255C86.689 379.72 75.0368 378.783 63.9468 375.502C63.6158 375.522 63.2837 375.512 62.9544 375.473C63.1587 375.473 63.3572 375.426 63.5381 375.391L62.8259 375.181L61.851 374.878C60.2165 374.365 58.5956 373.803 56.9882 373.192L56.0133 372.819C54.4566 372.22 52.933 371.577 51.4424 370.889L50.4675 370.445C48.9108 369.722 47.3872 368.958 45.8966 368.153C45.3595 367.873 44.8283 367.57 44.3029 367.284C42.7151 366.398 41.1583 365.469 39.6328 364.496C39.3759 362.298 39.2416 360.828 39.2416 360.828L36.9649 349.502L36.8482 348.918L35.2136 340.753L35.0969 340.17L31.5417 322.405L31.425 321.822L29.7904 313.656L29.6736 313.073L26.0718 295.32L25.955 294.736L24.3205 286.571L24.2037 285.988L20.631 268.2L20.5143 267.616L18.8797 259.48L18.763 258.897L18.115 255.689L17.1401 250.831C17.1401 250.831 14.0286 246.387 10.526 241.132L10.1349 240.549C9.13661 239.073 8.10917 237.539 7.11092 236.035C6.77818 235.539 6.4571 235.049 6.13603 234.565C5.64955 233.83 5.17864 233.113 4.7233 232.413L4.40807 231.929L4.34386 231.829C-0.688243 224.049 2.68011 220.666 2.68011 220.666C2.68011 220.666 4.79336 217.809 7.51956 214.029C7.65383 213.837 7.79393 213.644 7.93988 213.446C9.10742 211.813 10.3917 210.028 11.6527 208.244L12.6276 206.856C12.9953 206.337 13.3573 205.817 13.7075 205.304C13.8476 205.112 13.9819 204.913 14.1103 204.721C16.8015 200.837 19.0198 197.448 19.4752 196.247C20.1874 194.351 24.7291 188.746 29.2533 183.83C32.8202 179.945 36.3695 176.493 37.9632 175.665C41.5767 173.757 43.0653 167.593 43.0653 167.593C43.0653 167.593 50.9287 164.84 51.9912 162.717C53.0536 160.594 67.9339 151.052 67.9339 151.052C67.9339 151.052 73.9526 147.18 76.3869 144.847C76.7315 144.542 77.0321 144.19 77.2801 143.803C78.1266 142.286 83.6549 141.038 85.9024 140.589C86.4861 140.473 86.8481 140.408 86.8481 140.408C87.7554 138.761 88.9024 137.258 90.2515 135.947C91.168 135.136 92.3122 132.342 93.2754 129.636C94.3203 126.685 95.1318 123.845 95.1318 123.845C96.8364 118.112 100.234 119.809 100.234 119.809C100.229 120.592 100.304 121.373 100.456 122.142C101.874 129.14 109.58 132.057 113.626 135.328C118.091 138.933 125.103 148.282 130.631 150.189C135.208 151.77 140.514 157.73 142.195 159.719L142.324 159.871C142.604 160.197 142.744 160.384 142.744 160.384C142.744 160.384 145.879 160.221 147.788 160.186H148.483C148.871 160.147 149.24 159.997 149.545 159.754C151.442 158.465 154.268 154.686 155.499 153.817C156.982 152.749 158.477 135.55 158.477 135.55L158.553 135.515C163.847 133.036 169.527 157.847 169.527 157.847C169.527 157.847 179.516 160.821 180.368 162.944C180.532 163.364 181.285 164.111 182.417 165.015C187.574 168.952 193.062 172.435 198.821 175.425C198.949 175.49 199.072 175.554 199.201 175.606C199.316 175.669 199.435 175.725 199.557 175.775C199.773 175.88 199.983 175.974 200.181 176.061C200.496 176.201 200.788 176.318 201.057 176.411L201.407 176.534C202.244 176.812 203.032 177.219 203.742 177.741C203.952 177.892 204.163 178.05 204.367 178.219C205.162 178.88 205.893 179.614 206.55 180.412C206.649 180.529 206.743 180.651 206.836 180.768C207.28 181.322 207.677 181.87 208.004 182.377C208.54 183.16 209.03 183.974 209.469 184.815C209.469 184.815 218.179 199.682 220.946 201.373C223.713 203.065 225.412 220.276 225.412 220.276L216.071 254.867C216.071 254.867 215.634 263.615 214.816 272.539C214.361 277.543 213.783 282.635 213.094 286.297Z" fill="#CED7E7"/>
<path d="M142.744 161.434C142.744 161.434 136.48 164.828 131.588 165.149C130.948 165.179 130.306 165.142 129.674 165.038C124.548 164.262 117.029 160.051 117.029 160.051L125.85 150.387L136.58 155.701L140.526 159.369L142.744 161.434Z" fill="#63667E"/>
<path opacity="0.1" d="M192.913 74.9351C192.691 75.2487 192.439 75.5398 192.16 75.8041C189.089 78.7202 183.637 77.513 179.451 76.8364C175.814 76.2424 172.261 75.2164 168.868 73.7803C165.914 72.5205 162.37 70.9808 159.714 72.7888C158.693 73.477 157.992 74.5793 156.93 75.1859C155.867 75.7924 154.513 75.8333 153.258 75.8508C149.171 75.8508 145.085 75.8974 141.098 74.9759C135.149 73.5878 128.996 70.0943 123.339 72.3981C118.914 74.1944 116.515 79.006 115.318 83.631C114.735 85.8998 114.303 88.2969 112.983 90.2215C111.664 92.1462 109.113 93.5109 106.941 92.6069C103.736 91.2713 103.264 85.8356 99.3991 85.5615C95.1551 85.2641 95.2076 89.6441 96.4452 92.8111C98.2782 97.4769 100.678 102.143 100.783 107.007C96.2214 98.845 94.0662 89.5598 94.5662 80.2253C95.0662 70.8909 98.201 61.8885 103.608 54.2596C104.549 53.6775 105.285 52.8173 105.715 51.7984C105.759 51.6606 105.794 51.5204 105.821 51.3785C106.142 49.7513 105.237 48.0424 105.184 46.3394C104.98 42.181 109.487 39.2823 113.62 38.7574C116.369 38.4075 119.183 38.6758 121.938 38.5883C123.326 38.5577 124.707 38.3739 126.054 38.0401C128.379 37.3442 130.555 36.2272 132.475 34.7448C139.1 33.1769 145.976 32.9876 152.677 34.1887C159.378 35.3898 165.759 37.9556 171.425 41.7264C177.09 45.4972 181.919 50.3925 185.61 56.1076C189.3 61.8227 191.774 68.2354 192.878 74.9468L192.913 74.9351Z" fill="black"/>
<path d="M193.912 71.4999C193.621 72.6535 193.014 73.7035 192.16 74.5327C189.09 77.4488 183.637 76.2357 179.452 75.5592C175.814 74.9781 172.261 73.9597 168.868 72.5264C165.914 71.2724 162.371 69.7327 159.714 71.5407C158.693 72.2289 157.992 73.3312 156.93 73.9378C155.867 74.5444 154.513 74.5852 153.258 74.5968C149.171 74.626 145.085 74.6493 141.098 73.7278C135.149 72.3339 128.996 68.8462 123.34 71.1441C118.915 72.9405 116.515 77.7579 115.319 82.3829C114.735 84.6517 114.303 87.0488 112.984 88.9676C111.664 90.8864 109.113 92.2628 106.942 91.3588C103.737 90.0232 103.264 84.5876 99.3992 84.3134C95.1552 84.016 95.2078 88.396 96.4453 91.563C98.617 97.0861 101.571 102.58 100.602 108.436C99.6386 108.436 98.0449 108.401 97.0992 108.377C97.8347 107.124 96.4337 105.63 95.0385 105.205C93.6433 104.779 92.0145 104.785 90.9521 103.77C89.8896 102.755 89.8838 101.186 89.9947 99.7807C90.2368 96.7765 90.9725 93.8326 92.1722 91.0672C92.9369 89.3175 93.9235 87.422 93.3397 85.5907C92.9893 84.7606 92.5674 83.9625 92.0787 83.2053C90.8645 80.8724 91.1506 77.9562 92.1897 75.5475C92.6333 74.521 92.9544 73.5529 93.3222 72.6314C93.7866 71.3215 94.4588 70.0947 95.3128 68.9978C96.6497 67.3356 97.9573 64.8336 96.4804 63.288C96.1068 62.8973 96.854 62.629 96.6146 62.1216C96.5723 62.0349 96.5429 61.9426 96.5271 61.8475C96.4585 61.2331 96.6071 60.6141 96.9474 60.0978C97.0163 59.9636 97.0923 59.8332 97.1751 59.707C97.2422 59.5737 97.3183 59.4451 97.4027 59.3221C98.6954 57.1658 100.413 55.2946 102.452 53.8222C103.719 52.9066 105.202 52.0259 105.704 50.5445C106.288 48.7948 105.26 46.9343 105.173 45.0855C104.968 40.9271 109.475 38.0284 113.608 37.5035C117.741 36.9786 122.026 37.8476 126.054 36.7803C131.769 35.2756 135.786 30.2365 140.975 27.4078C143.814 25.8912 146.963 25.0428 150.18 24.9276C153.398 24.8124 156.599 25.4333 159.539 26.7429C165.599 29.5074 170.17 35.0948 176.498 37.1944C178.739 37.9409 181.168 38.2384 183.188 39.4748C185.523 40.9096 186.941 43.4174 188.156 45.8903C190.006 49.6405 190.38 53.4082 191.658 57.3799C192.674 60.5294 194.081 64.647 194.198 68.2747C194.263 69.358 194.167 70.445 193.912 71.4999V71.4999Z" fill="#2F2E41"/>
<g opacity="0.1">
<path opacity="0.1" d="M97.239 64.192C97.3324 63.8188 97.3416 63.4294 97.2659 63.0521C97.1902 62.6749 97.0314 62.3192 96.8012 62.0107C96.953 62.4657 96.2933 62.7281 96.6552 63.1072C96.9436 63.41 97.1452 63.7847 97.239 64.192Z" fill="black"/>
<path opacity="0.1" d="M96.7837 60.6752C96.7149 60.8787 96.6737 61.0906 96.6611 61.3051C96.772 61.1184 96.9238 60.926 96.7837 60.6752Z" fill="black"/>
<path opacity="0.1" d="M192.324 73.1096C189.247 76.0257 183.801 74.8185 179.603 74.1361C175.968 73.5514 172.418 72.5271 169.031 71.0858C166.071 69.826 162.534 68.2863 159.872 70.0943C158.856 70.7825 158.156 71.8848 157.087 72.4914C156.019 73.0979 154.67 73.1388 153.415 73.1504C149.329 73.1504 145.243 73.2029 141.25 72.2756C135.307 70.8875 129.154 67.4056 123.497 69.6977C119.072 71.4999 116.673 76.3115 115.476 80.9365C114.892 83.2053 114.466 85.6024 113.141 87.527C111.816 89.4517 109.265 90.8164 107.099 89.9182C103.894 88.5768 103.421 83.147 99.5567 82.8728C96.5386 82.6571 95.698 84.815 95.9023 87.2121C96.0774 85.3807 97.0698 83.9693 99.5567 84.1443C103.421 84.4184 103.894 89.8541 107.099 91.1897C109.265 92.0937 111.822 90.7348 113.141 88.7984C114.46 86.8621 114.892 84.4767 115.476 82.2138C116.673 77.5888 119.072 72.7713 123.497 70.975C129.154 68.6771 135.307 72.1414 141.25 73.5528C145.219 74.4802 149.341 74.451 153.415 74.4219C154.67 74.4219 155.996 74.3869 157.087 73.7686C158.179 73.1504 158.839 72.0598 159.872 71.3657C162.534 69.5636 166.071 71.1033 169.031 72.3572C172.419 73.7978 175.969 74.8239 179.603 75.4133C183.801 76.0899 189.247 77.3088 192.324 74.381C193.993 72.7888 194.495 70.4851 194.384 67.9655C194.291 69.966 193.707 71.7798 192.324 73.1096Z" fill="black"/>
<path opacity="0.1" d="M105.377 44.0298C105.345 44.3202 105.333 44.6126 105.342 44.9047C105.4 46.1178 105.861 47.3309 106.007 48.5148C106.223 47.0626 105.552 45.5462 105.377 44.0298Z" fill="black"/>
<path opacity="0.1" d="M93.5145 85.4099C93.5627 85.5843 93.5997 85.7615 93.6255 85.9406C93.7201 85.339 93.6822 84.724 93.5145 84.1384C93.1665 83.3054 92.7445 82.5051 92.2536 81.7472C91.815 80.8845 91.5549 79.9423 91.4889 78.9769C91.3702 80.3705 91.6346 81.77 92.2536 83.0245C92.7456 83.7797 93.1677 84.5781 93.5145 85.4099Z" fill="black"/>
<path opacity="0.1" d="M100.759 106.978L97.3441 106.925C97.4238 107.131 97.4557 107.353 97.4375 107.573C97.4193 107.793 97.3514 108.006 97.239 108.197C98.2022 108.197 99.8018 108.232 100.742 108.255C100.905 107.257 100.962 106.244 100.911 105.234C100.898 105.818 100.847 106.4 100.759 106.978Z" fill="black"/>
<path opacity="0.1" d="M95.1725 103.752C93.7773 103.333 92.1544 103.327 91.1153 102.306C90.5036 101.638 90.1588 100.768 90.1463 99.8623C90.0587 101.204 90.1463 102.65 91.1153 103.583C92.1544 104.604 93.7773 104.61 95.1725 105.03C95.6265 105.162 96.0486 105.385 96.413 105.686C96.7775 105.987 97.0764 106.359 97.2916 106.779C97.8812 105.572 96.5269 104.155 95.1725 103.752Z" fill="black"/>
</g>
<path opacity="0.1" d="M201.378 365.96C200.724 365.581 200.059 365.226 199.381 364.887C197.986 364.185 196.556 363.554 195.097 362.998C188.354 360.431 181.133 359.498 173.812 359.656C170.893 360.77 168.996 361.569 168.996 361.569L165.283 362.688L164.665 362.875C164.624 362.467 164.577 362.059 164.536 361.644C164.495 361.23 164.449 360.834 164.402 360.426C163.094 348.055 162.067 335.347 162.067 335.347V324.37V323.093L161.997 290.753L161.413 280.092L161.139 275.373L161.086 274.475L160.981 272.632L160.923 271.536C160.794 271.188 160.685 270.834 160.596 270.474C160.555 270.328 160.514 270.165 160.479 269.996C160.333 269.413 160.175 268.66 160.012 267.844C158.944 262.478 157.607 253.432 157.525 251.595C157.42 249.146 155.295 234.495 155.295 234.495C155.079 226.429 148.29 211.241 146.579 208.378C144.869 205.514 142.96 188.309 143.602 187.382C143.935 186.886 144.151 183.952 144.285 181.246C144.285 180.937 144.314 180.634 144.326 180.336C144.414 178.219 144.455 176.452 144.455 176.452L151.133 175.134L152.925 174.784L153.065 174.755L153.124 174.871C153.316 175.227 153.917 176.364 154.624 177.857C154.706 178.015 154.781 178.184 154.863 178.353C154.898 178.435 154.939 178.517 154.98 178.598C156.288 181.456 157.8 185.218 157.735 187.382C157.63 191.208 161.991 200.446 161.991 200.446C162.411 202.569 171.658 223.693 171.658 223.693C171.658 223.693 179.206 244.398 178.78 247.798C178.354 251.198 182.394 273.705 182.394 273.705L186.539 296.854C188.553 301.414 191.209 311.924 191.209 311.924L192.219 317.885L192.411 319.022L195.102 334.927L196.422 342.719C196.422 342.719 196.976 346.86 197.817 351.467C197.887 351.881 197.969 352.301 198.05 352.721C198.568 355.754 199.304 358.746 200.251 361.674C200.721 363.076 201.097 364.508 201.378 365.96V365.96Z" fill="black"/>
<path d="M202.102 366.374C201.862 366.235 201.623 366.095 201.378 365.96C200.724 365.581 200.058 365.226 199.381 364.887C197.986 364.185 196.556 363.554 195.096 362.998C188.354 360.431 181.133 359.498 173.812 359.656C170.893 360.77 168.996 361.569 168.996 361.569L165.283 362.688C165.237 362.28 165.196 361.872 165.149 361.458C165.102 361.044 165.067 360.711 165.032 360.338C163.725 347.997 162.697 335.347 162.697 335.347V324.265V322.988L162.627 290.73L162.043 280.547L161.927 278.435L161.845 277.006L161.74 275.117L161.635 273.198L161.559 271.816V271.512C161.559 271.483 161.559 271.448 161.518 271.413C161.407 271.098 161.273 270.62 161.127 270.013L161.057 269.722C161.028 269.588 160.993 269.442 160.963 269.296C159.866 264.321 158.255 253.596 158.167 251.583C158.062 249.134 155.937 234.483 155.937 234.483C155.721 226.417 148.932 211.23 147.221 208.366C145.511 205.503 143.608 188.297 144.244 187.37C144.612 186.787 144.828 183.247 144.968 180.325C144.968 180.091 144.968 179.864 144.968 179.648C145.044 177.846 145.073 176.44 145.073 176.44L151.285 175.215L152.861 174.906L153.106 174.86L153.69 174.743C153.69 174.743 154.454 176.154 155.371 178.097L155.488 178.342C156.824 181.223 158.406 185.142 158.36 187.37C158.255 191.196 162.615 200.434 162.615 200.434C163.036 202.557 172.283 223.682 172.283 223.682C172.283 223.682 179.831 244.386 179.405 247.787C178.979 251.187 183.018 273.694 183.018 273.694L187.163 296.842C189.177 301.403 191.833 311.913 191.833 311.913L192.773 317.465L192.966 318.591L195.085 331.142L197.04 342.707C197.04 342.707 197.624 346.83 198.43 351.455C198.506 351.875 198.582 352.295 198.663 352.721C199.18 355.768 199.916 358.773 200.864 361.714C201.382 363.238 201.795 364.795 202.102 366.374V366.374Z" fill="#63667E"/>
<path d="M196.836 66.8341C196.836 66.8341 194.606 69.7036 192.592 69.7036C190.578 69.7036 182.738 69.3828 178.652 68.1113C174.565 66.8399 154.53 65.8776 154.53 65.8776C154.53 65.8776 126.159 65.9826 125.202 65.0261C124.244 64.0696 107.56 58.9721 105.861 59.2929C105.505 59.3629 104.635 59.5145 103.474 59.707L102.143 59.9228C100.129 60.2436 97.6127 60.6169 95.3127 60.891C92.4697 61.2234 89.9712 61.3925 89.1772 61.1009V58.6572C89.1772 58.6572 92.4697 53.8747 92.6799 52.5041C92.89 51.1335 95.6571 31.2629 102.884 24.1534C105.87 18.4512 110.702 13.9282 116.591 11.3224C126.369 7.07062 136.147 3.46627 136.147 3.46627L137.858 3.22131L143.374 2.40479C143.542 2.23801 143.724 2.08582 143.917 1.94987C145.447 0.783416 150.082 -1.75363 156.124 3.69956L157.192 5.40259C157.192 5.40259 175.785 9.75347 184.39 24.9349C192.995 40.1164 193.427 54.9829 194.063 61.7775C194.063 61.7775 193.637 63.6905 194.489 64.4312C194.798 64.7035 195.092 64.9916 195.371 65.2943C195.447 65.3702 195.523 65.446 195.593 65.5276C195.838 65.7726 196.066 66.0292 196.252 66.2392C196.275 66.2556 196.294 66.2752 196.311 66.2975C196.356 66.3527 196.405 66.4053 196.457 66.455L196.836 66.8341Z" fill="#FED253"/>
<path opacity="0.05" d="M196.836 66.8341C196.836 66.8341 194.606 69.7036 192.592 69.7036C190.578 69.7036 182.738 69.3828 178.652 68.1114C174.565 66.8399 154.53 65.8776 154.53 65.8776C154.53 65.8776 126.159 65.9826 125.202 65.0261C124.244 64.0696 107.56 58.9722 105.862 59.2929C105.505 59.3629 104.636 59.5146 103.474 59.707L103.17 57.8407L103.094 57.3799C103.094 57.3799 135.295 50.4804 156.76 54.0964C178.226 57.7124 194.063 61.7367 194.063 61.7367C194.063 61.7367 193.637 63.6497 194.49 64.3904C194.798 64.6627 195.092 64.9508 195.371 65.2535C195.447 65.3294 195.523 65.4052 195.593 65.4868C195.838 65.7318 196.066 65.9884 196.253 66.1984C196.275 66.2148 196.295 66.2344 196.311 66.2567C196.357 66.3118 196.405 66.3644 196.457 66.4142L196.836 66.8341Z" fill="black"/>
<path opacity="0.1" d="M193.912 71.4999C189.936 71.809 182.61 70.8408 179.405 70.3684C178.494 70.2343 177.601 70.071 176.702 69.8727C173.264 69.1261 162.692 67.0324 156.27 68.0005C148.512 69.167 126.62 67.044 126.62 67.044C126.62 67.044 113.124 64.2854 107.7 62.0574C105.71 61.2351 102.382 60.9784 99.0723 61.3867C98.2282 61.4919 97.3903 61.6418 96.5621 61.8358C92.0437 62.9031 88.2317 65.3352 88.8914 69.4819C88.6388 69.1795 88.4049 68.862 88.1908 68.5313C87.9048 64.7403 89.084 62.4832 90.7185 61.1534L91.1038 60.9959C93.1006 60.4291 95.1326 59.9946 97.1867 59.6953C97.5078 59.6429 97.8405 59.5962 98.1791 59.5554C103.988 58.7738 112.388 58.5989 119.475 62.1624C119.475 62.1624 126.06 65.2477 130.526 65.2477C134.992 65.2477 171.331 65.5685 179.837 68.0064C181.53 68.4951 183.257 68.8596 185.003 69.097C188.104 69.4964 191.255 69.1995 194.227 68.228C194.288 69.3283 194.181 70.4314 193.912 71.4999V71.4999Z" fill="black"/>
<path opacity="0.1" d="M196.836 66.8341C196.836 66.8341 194.606 69.7036 192.592 69.7036C190.578 69.7036 182.738 69.3828 178.652 68.1113C174.565 66.8399 154.53 65.8776 154.53 65.8776C154.53 65.8776 126.159 65.9825 125.202 65.0261C124.244 64.0696 107.56 58.9721 105.861 59.2929C105.505 59.3629 104.635 59.5145 103.474 59.707L102.143 59.9228C99.831 59.911 97.5299 60.2372 95.3127 60.891C92.4697 61.2234 89.9712 61.3925 89.1772 61.1009V60.6168C89.7893 60.2619 90.4275 59.9539 91.0862 59.6953C95.0255 58.5932 99.082 57.9628 103.17 57.8173C108.267 57.6307 114.227 58.2256 119.463 60.8618C119.463 60.8618 126.048 63.9471 130.514 63.9471C134.98 63.9471 171.32 64.262 179.825 66.7058C181.519 67.1899 183.246 67.5524 184.991 67.7906C188.822 68.2728 192.712 67.7148 196.252 66.175C196.275 66.1914 196.294 66.2111 196.311 66.2333C196.356 66.2885 196.405 66.3411 196.457 66.3908L196.836 66.8341Z" fill="black"/>
<path d="M88.9731 69.3828C88.9731 69.3828 81.8511 63.9646 91.098 60.3544C91.098 60.3544 107.251 55.3678 119.475 61.5208C119.475 61.5208 126.06 64.5945 130.526 64.5945C134.992 64.5945 171.331 64.9152 179.837 67.359C181.531 67.8437 183.257 68.2063 185.003 68.4438C189.528 68.9919 194.112 68.1217 198.121 65.9534C198.704 65.6326 199.23 65.4693 199.387 65.6559C199.919 66.2975 199.498 70.0127 194.822 70.7534C191.174 71.3366 182.884 70.2343 179.399 69.7269C178.494 69.5927 177.595 69.4236 176.702 69.2311C173.264 68.4846 162.692 66.3908 156.241 67.359C148.488 68.5254 126.591 66.4025 126.591 66.4025C126.591 66.4025 113.1 63.6438 107.677 61.41C102.254 59.1763 86.9532 61.1009 88.9731 69.3828Z" fill="#FED253"/>
<path opacity="0.1" d="M149.014 12.4538C148.43 11.614 140.929 5.61256 137.87 3.18633L143.386 2.3698C143.554 2.20302 143.736 2.05083 143.929 1.91489C147.94 6.11997 149.014 12.4538 149.014 12.4538Z" fill="black"/>
<path opacity="0.1" d="M124.682 44.6422L122.236 48.2524L131.588 47.9375L131.798 43.9015L124.682 44.6422Z" fill="black"/>
<path opacity="0.1" d="M181.746 48.9989L182.808 52.2883L188.763 53.2448L186.211 49.3139L181.746 48.9989Z" fill="black"/>
<path opacity="0.1" d="M79.5159 159.427C80.1522 160.489 101.086 188.006 106.614 187.242C112.143 186.478 79.5159 159.427 79.5159 159.427Z" fill="black"/>
<path opacity="0.1" d="M149.656 184.576C149.656 184.576 154.758 189.464 154.011 191.371C153.263 193.278 149.656 184.576 149.656 184.576Z" fill="black"/>
<path opacity="0.1" d="M93.9701 218.129C93.9701 218.129 89.5043 239.044 91.8452 239.709C94.1861 240.374 93.9701 218.129 93.9701 218.129Z" fill="black"/>
<path opacity="0.1" d="M151.355 299.35C152.096 301.473 158.261 315.278 159.644 316.019C161.028 316.759 151.355 299.35 151.355 299.35Z" fill="black"/>
<path opacity="0.1" d="M222.983 242.654C222.767 243.395 217.455 247.752 218.623 249.344C219.79 250.936 222.983 242.654 222.983 242.654Z" fill="black"/>
<path opacity="0.1" d="M181.746 281.404C181.641 281.94 180.578 293.068 182.598 295.209C184.618 297.349 181.746 281.404 181.746 281.404Z" fill="black"/>
<path opacity="0.1" d="M236.2 339.214C234.659 340.071 233.065 340.899 231.442 341.692C229.691 342.544 227.939 343.354 226.153 344.118C225.441 344.428 224.729 344.731 224.022 345.022C222.948 345.466 221.886 345.891 220.835 346.3C217.642 347.548 214.565 348.633 211.827 349.548C210.765 349.904 209.749 350.231 208.803 350.534C204.04 352.045 200.876 352.867 200.876 352.867C200.153 352.712 199.413 352.652 198.675 352.686C198.471 352.686 198.261 352.686 198.045 352.686C197.056 352.758 196.072 352.882 195.097 353.059C188.576 354.226 179.364 357.498 173.812 359.638C170.893 360.752 168.996 361.551 168.996 361.551L165.283 362.671L164.665 362.858C160.642 364.082 154.986 365.82 152.948 366.544C149.656 367.71 121.069 373.653 121.069 373.653C118.457 374.365 115.789 374.853 113.094 375.111C106.454 375.72 99.7791 375.872 93.1177 375.566C86.4277 375.998 75.6046 374.528 69.3057 373.537L68.3016 373.379C65.8673 372.982 64.3203 372.697 64.3203 372.697L65.1376 371.571L81.8976 348.469L81.9969 348.329L97.6127 326.814L98.1965 326.033L99.6151 324.079C99.6151 324.079 100.467 322.912 103.748 322.836C104.133 322.836 104.554 322.836 105.015 322.836C107.771 323.058 110.49 323.612 113.112 324.487L113.871 324.714C125.178 327.951 142.656 327.141 142.656 327.141C142.656 327.141 153.532 325.391 162.078 324.341L162.715 324.26C165.508 323.865 168.32 323.622 171.139 323.53C176.346 323.635 187.613 320.877 187.613 320.877C190.035 320.358 191.057 319.92 192.423 318.946C192.604 318.818 192.796 318.678 193.007 318.526C193.59 318.089 194.262 317.552 195.126 316.887C196.702 315.68 198.914 314.041 202.394 311.743C202.697 311.545 203.018 311.347 203.363 311.16C203.707 310.974 204.145 310.723 204.565 310.513C207.935 308.919 211.487 307.743 215.143 307.013C218.176 306.362 221.253 305.939 224.349 305.748H224.81C233.567 305.281 242.51 306.78 247.741 311.697C248.655 312.561 249.452 313.541 250.111 314.613C250.431 315.122 250.715 315.652 250.963 316.199C251.44 317.244 251.795 318.34 252.02 319.465C252.063 319.675 252.098 319.885 252.125 320.095C252.125 320.159 252.125 320.218 252.125 320.282C252.125 320.451 252.16 320.62 252.172 320.789C252.639 327.771 245.388 334.081 236.2 339.214Z" fill="black"/>
<path d="M64.3203 371.443C64.3203 371.443 83.2345 374.942 93.1177 374.306C93.1177 374.306 111.29 375.263 121.069 372.399C121.069 372.399 149.673 366.45 152.948 365.284C156.223 364.117 168.996 360.291 168.996 360.291C168.996 360.291 193.865 349.887 200.876 351.584C200.876 351.584 255.925 337.359 251.991 318.141C248.056 298.924 213.31 303.281 202.37 310.495C191.43 317.71 193.03 318.462 187.601 319.629C187.601 319.629 176.334 322.387 171.127 322.282C165.92 322.177 142.645 325.893 142.645 325.893C142.645 325.893 124.367 326.744 113.106 323.239C101.845 319.734 99.6092 322.813 99.6092 322.813L64.3203 371.443Z" fill="#FFA2A2"/>
<path opacity="0.1" d="M105.336 321.565C105.339 321.588 105.339 321.612 105.336 321.635C105.295 322.069 105.183 322.492 105.003 322.889C102.762 328.383 90.0353 343.203 90.0353 343.203C89.4551 344.963 88.7549 346.682 87.9396 348.347C86.1861 351.906 84.1663 355.327 81.8976 358.583C78.5346 363.453 74.863 368.103 70.9052 372.504H70.876C70.3724 372.878 69.8481 373.222 69.3057 373.537C67.9338 374.353 65.8731 375.362 63.9291 375.485C63.5981 375.504 63.266 375.494 62.9367 375.455C63.141 375.455 63.3395 375.409 63.5205 375.374L62.8083 375.164L61.8334 374.86C60.1988 374.347 58.5779 373.785 56.9706 373.175L55.9957 372.802C54.439 372.203 52.9153 371.559 51.4248 370.871L50.4499 370.428C48.8932 369.705 47.3695 368.941 45.879 368.136C45.3419 367.856 44.8107 367.553 44.2853 367.267C42.6974 366.38 41.1407 365.451 39.6151 364.479C37.9961 363.449 36.4122 362.374 34.8632 361.254C33.6957 359.09 32.7325 357.171 32.2071 356.139C31.2497 354.22 31.168 351.473 31.2847 349.484C31.2847 349.28 31.2847 349.088 31.3197 348.901C31.419 347.653 31.5708 346.796 31.5708 346.796C30.7058 345.64 29.9254 344.424 29.2357 343.156C28.8394 342.527 28.6141 341.805 28.5819 341.062C28.6083 340.764 28.5806 340.464 28.5001 340.176C28.0506 338.333 26.1184 335.166 24.332 333.177C23.001 331.713 22.9193 326.243 23.0477 322.364C23.1236 320.031 23.2696 318.316 23.2696 318.316C23.008 318.148 22.8122 317.895 22.715 317.599C22.2456 316.323 21.9281 314.995 21.7693 313.645C21.7693 313.452 21.7167 313.26 21.6875 313.062C21.3139 310.385 21.1446 307.696 21.1446 307.696C16.8247 304.552 14.7699 299.647 13.8125 295.273L13.6899 294.69C13.1641 292.001 12.9409 289.263 13.0244 286.525C13.0244 286.262 13.0244 286.064 13.0244 285.941C13.0244 285.819 13.0244 285.796 13.0244 285.796C13.0244 285.796 13.5965 273.157 15.196 268.223C15.2602 268.013 15.3303 267.821 15.4003 267.64C15.5182 267.33 15.6709 267.034 15.8557 266.759C16.4394 265.983 16.8539 264.519 17.1983 262.787C17.4377 261.586 17.6362 260.25 17.7821 258.92C17.9164 257.812 18.0215 256.71 18.1032 255.689C18.3309 252.96 18.4009 250.831 18.4009 250.831L17.3209 245.512C17.0232 244.06 16.7955 242.596 16.6379 241.132C16.6379 240.94 16.5912 240.747 16.5679 240.549C16.2948 237.845 16.246 235.124 16.4219 232.413C16.4219 232.214 16.4219 232.022 16.457 231.829C16.9128 225.654 18.5288 219.619 21.2205 214.041L21.5124 213.458C21.9016 212.68 22.3102 211.916 22.7383 211.166C23.0477 210.612 23.3746 210.063 23.7132 209.521C24.6108 208.069 25.5851 206.665 26.6321 205.316C26.7838 205.118 26.9415 204.925 27.0991 204.733C28.9207 202.476 30.9451 200.391 33.1469 198.504C39.043 193.441 44.4546 191.243 49.3699 191.073C70.8643 190.315 82.9192 228.295 84.869 234.95C85.0558 235.591 85.1492 235.941 85.1492 235.941C85.1492 235.941 93.859 244.649 91.308 248.469C90.8133 249.31 90.5122 250.25 90.4265 251.222C89.7259 256.36 91.7341 264.823 91.7341 264.823C91.7341 264.823 92.4463 267.156 94.5245 272.743L95.1375 274.376C96.4393 277.875 96.7429 283.748 95.9956 289.009C95.2776 294.048 93.5905 298.504 90.8876 299.647C85.3593 301.98 86.8479 304.313 88.1206 306.232C88.8768 307.607 89.5079 309.048 90.0061 310.536C90.8059 312.688 91.5473 314.951 91.8275 315.832C91.9092 316.077 91.9501 316.211 91.9501 316.211C92.7244 315.912 93.5289 315.696 94.3494 315.569C95.3943 315.424 96.4276 315.529 96.6261 316.421C96.7312 316.899 97.3325 317.465 98.1789 318.031C100.689 319.757 105.336 321.565 105.336 321.565Z" fill="black"/>
<path d="M104.063 321.565C104.028 322.009 103.915 322.443 103.731 322.848C101.501 328.348 88.7628 343.203 88.7628 343.203C88.1801 344.962 87.4799 346.681 86.6671 348.347C85.2583 351.221 83.6652 354.001 81.8977 356.67C78.2382 362.185 74.184 367.428 69.7669 372.358L69.6326 372.504C69.6326 372.504 69.1189 372.895 68.3017 373.397C66.8413 374.328 65.2322 375.002 63.5439 375.391L62.8317 375.181L61.8568 374.878C60.2223 374.365 58.6013 373.803 56.994 373.192L56.0191 372.819C54.4624 372.22 52.9388 371.577 51.4482 370.889L50.4733 370.445C48.9166 369.722 47.393 368.958 45.9024 368.153C45.3653 367.873 44.8341 367.57 44.3087 367.284C42.7208 366.398 41.1641 365.469 39.6385 364.496C38.0196 363.466 36.4356 362.391 34.8867 361.271C34.1706 360.758 33.4623 360.231 32.7617 359.691C31.9736 358.198 31.3432 356.938 30.952 356.156C29.9947 354.237 29.9129 351.49 30.0297 349.502C30.0297 349.298 30.0297 349.105 30.0647 348.918C30.164 347.67 30.3157 346.813 30.3157 346.813C30.3157 346.813 29.8429 346.177 29.2708 345.314C28.9497 344.836 28.6053 344.282 28.2959 343.734C27.7121 342.707 27.2568 341.669 27.3443 341.08C27.3562 340.979 27.3562 340.877 27.3443 340.777C27.3356 340.58 27.3062 340.384 27.2568 340.193C26.8073 338.35 24.8692 335.183 23.0828 333.195C21.7518 331.731 21.6701 326.26 21.7927 322.382C21.7927 322.183 21.7927 321.991 21.7927 321.798C21.8744 319.786 21.997 318.334 21.997 318.334C21.3374 318.048 20.8295 315.931 20.5026 313.668L20.415 313.085C20.0414 310.408 19.8721 307.719 19.8721 307.719C15.5522 304.576 13.4973 299.671 12.5458 295.296C11.8829 292.233 11.6277 289.095 11.7869 285.965C11.7869 285.871 11.7869 285.819 11.7869 285.819C11.7869 285.819 12.2889 273.116 13.8884 268.176C13.9527 267.966 14.0227 267.774 14.0928 267.593C14.2329 267.29 14.4072 267.005 14.6123 266.742C15.4997 265.505 16.0893 262.531 16.4746 259.486L16.5446 258.903C17.0291 254.82 17.1634 250.814 17.1634 250.814L16.0776 245.495C15.7818 244.036 15.5541 242.576 15.3946 241.114C15.3654 240.922 15.3479 240.724 15.3245 240.531C15.0516 237.828 15.0027 235.107 15.1786 232.395C15.1786 232.197 15.1786 232.004 15.2194 231.812C15.6725 225.636 17.2887 219.601 19.983 214.023C20.0764 213.825 20.1698 213.633 20.2749 213.44C21.0255 211.925 21.8596 210.453 22.7734 209.031C23.0887 208.535 23.4097 208.045 23.7483 207.561C24.2796 206.791 24.8341 206.033 25.4121 205.298L25.8791 204.715C27.6851 202.468 29.6918 200.389 31.8744 198.504C38.2959 193.004 44.1336 190.881 49.3875 191.073C70.0822 191.814 81.6992 228.429 83.6081 234.95C83.7949 235.591 83.8883 235.941 83.8883 235.941C83.8883 235.941 92.604 244.649 90.0529 248.469C89.5583 249.31 89.2572 250.25 89.1714 251.222C88.4651 256.36 90.4791 264.823 90.4791 264.823C90.4791 264.823 91.1913 267.156 93.2695 272.743C93.4563 273.262 93.6606 273.804 93.8533 274.376C95.1551 277.875 95.4586 283.748 94.7114 289.009C93.9934 294.054 92.3121 298.504 89.6034 299.647C84.081 301.98 85.5637 304.313 86.8422 306.232C87.5984 307.607 88.2295 309.048 88.7278 310.536C89.7377 313.283 90.6659 316.211 90.6659 316.211C91.0479 316.064 91.4377 315.937 91.8334 315.832C92.6456 315.565 93.5056 315.476 94.3553 315.569C94.5905 315.588 94.8138 315.68 94.9931 315.833C95.1725 315.986 95.2987 316.192 95.3536 316.421C95.5112 317.121 96.7196 317.99 98.1848 318.812C100.087 319.847 102.05 320.766 104.063 321.565V321.565Z" fill="#CED7E7"/>
<path opacity="0.1" d="M27.2275 265.482C29.2474 265.377 50.9286 256.99 55.3944 259.854C59.8603 262.717 87.5018 281.299 87.5018 281.299C87.5018 281.299 70.1813 258.687 55.0909 253.38C40.0004 248.072 27.2275 265.482 27.2275 265.482Z" fill="black"/>
<path opacity="0.1" d="M58.395 299.671C58.395 299.671 80.0762 304.022 83.3687 306.996L58.395 299.671Z" fill="black"/>
<path opacity="0.1" d="M54.2211 332.063C53.9059 332.384 46.0483 350.003 46.6788 350.003C47.3093 350.003 54.011 339.505 54.011 339.505L54.2211 332.063Z" fill="black"/>
<path opacity="0.1" d="M68.9964 310.921C68.9964 310.921 62.6216 313.155 63.363 313.365C64.1044 313.575 68.7804 311.878 68.9964 310.921Z" fill="black"/>
<path opacity="0.1" d="M62.6216 337.575C63.684 339.803 67.0816 346.492 67.8288 345.431C68.576 344.369 62.6216 337.575 62.6216 337.575Z" fill="black"/>
<path opacity="0.1" d="M142.201 160.985L141.29 162.279C141.29 162.279 134.057 157.188 131.086 154.639C128.115 152.09 121.098 163.767 115.569 166.951C110.041 170.136 100.695 170.987 100.695 170.987C100.695 170.987 93.468 163.767 93.6898 161.655C93.9116 159.544 90.2922 158.897 90.0763 157.41C89.8603 155.922 88.5876 151.676 86.8889 149.553C85.9899 148.434 85.8614 144.928 85.9432 141.878C86.5269 141.761 86.8889 141.697 86.8889 141.697C87.7962 140.05 88.9432 138.547 90.2922 137.236C92.207 135.538 95.1784 125.134 95.1784 125.134C96.8772 119.401 100.275 121.098 100.275 121.098C100.275 129.805 109.206 132.99 113.666 136.6C118.126 140.21 125.143 149.553 130.672 151.466C135.208 153.012 140.514 158.99 142.201 160.985Z" fill="black"/>
<path d="M142.201 159.707L141.291 161.008C141.291 161.008 134.028 155.928 131.057 153.362C128.086 150.796 121.069 162.489 115.54 165.674C110.012 168.858 100.666 169.716 100.666 169.716C100.666 169.716 93.4389 162.489 93.6607 160.384C93.8826 158.278 90.2632 157.625 90.0472 156.132C89.8312 154.639 88.5586 150.399 86.8598 148.276C85.9608 147.156 85.8324 143.651 85.9141 140.601L86.8598 140.426C87.7671 138.779 88.9141 137.275 90.2632 135.964C92.178 134.261 95.1494 123.862 95.1494 123.862C96.8481 118.129 100.246 119.82 100.246 119.82C100.246 128.528 109.177 131.718 113.637 135.328C118.097 138.939 125.114 148.276 130.643 150.189C135.208 151.758 140.514 157.713 142.201 159.707Z" fill="#CED7E7"/>
<path opacity="0.1" d="M142.744 161.434C142.744 161.434 136.48 164.828 131.588 165.149C130.948 165.179 130.306 165.142 129.673 165.038C129.673 165.038 135.073 161.008 140.088 160.186L142.744 161.434Z" fill="black"/>
<path opacity="0.1" d="M155.499 178.738C155.499 178.738 147.601 175.665 144.991 180.29C145.079 178.167 145.114 176.405 145.114 176.405L153.725 174.702C153.725 174.702 154.554 176.236 155.523 178.301C155.499 178.575 155.499 178.738 155.499 178.738Z" fill="black"/>
<path d="M129.673 165.038C129.673 165.038 139.136 159.363 143.684 159.842C148.453 160.337 157.694 160.687 157.694 160.687C157.694 160.687 154.507 167.908 154.933 169.395C155.359 170.882 155.464 178.102 155.464 178.102C155.464 178.102 145.902 174.387 144.308 181.287C144.308 181.287 139.101 173.536 135.593 171.197C133.265 169.517 131.259 167.43 129.673 165.038Z" fill="#63667E"/>
<path opacity="0.1" d="M183.129 171.629C180.368 171.629 170.59 165.464 168.465 161.434C166.34 157.404 163.363 161.854 160.602 163.347C158.85 164.303 151.909 162.303 148.167 160.851C150.064 159.562 154.268 155.934 155.499 155.065C156.982 153.998 158.477 136.798 158.477 136.798C163.789 134.039 169.527 159.095 169.527 159.095C169.527 159.095 179.522 162.069 180.368 164.192C180.531 164.612 181.285 165.359 182.417 166.263C183.585 169.202 184.227 171.629 183.129 171.629Z" fill="black"/>
<path d="M183.129 170.351C180.368 170.351 170.59 164.192 168.465 160.162C166.34 156.132 163.363 160.582 160.602 162.069C158.85 163.026 153.287 161.177 149.545 159.737C151.442 158.453 154.268 154.674 155.499 153.799C156.982 152.738 158.477 135.538 158.477 135.538C163.789 132.78 169.527 157.835 169.527 157.835C169.527 157.835 179.522 160.81 180.368 162.933C180.531 163.353 181.284 164.099 182.417 165.003C183.585 167.925 184.227 170.351 183.129 170.351Z" fill="#CED7E7"/>
<path d="M220.893 356.384L313.31 279.398C314.232 278.619 315.407 278.204 316.614 278.231L351.092 279.135C351.092 279.135 353.479 280.885 349.977 284.711L262.796 356.185C261.854 356.955 260.685 357.393 259.469 357.434L221.769 358.682C221.498 358.69 221.232 358.614 221.006 358.464C220.781 358.314 220.608 358.097 220.511 357.844C220.415 357.592 220.4 357.315 220.469 357.053C220.537 356.791 220.685 356.557 220.893 356.384Z" fill="#0DC8A1"/>
<path d="M265.598 346.912C265.598 346.912 285.785 375.794 308.214 348.93C330.642 322.067 324.156 307.952 317.355 307.206C310.554 306.459 272.288 335.872 265.598 346.912Z" fill="#FFA2A2"/>
</svg>
