<svg width="488" height="507" viewBox="0 0 488 507" fill="none" xmlns="http://www.w3.org/2000/svg">
<rect x="6.12372" y="136.635" width="284.025" height="376.347" transform="rotate(-15 6.12372 136.635)" fill="url(#paint0_linear_101_14)" stroke="black" stroke-width="10"/>
<rect x="201.025" y="5.64721" width="284.025" height="376.347" transform="rotate(8 201.025 5.64721)" fill="url(#paint1_linear_101_14)" stroke="black" stroke-width="10"/>
<path d="M288.14 274.992H287.187H287.191C284.144 274.481 282.093 271.598 282.597 268.555L290.155 223.141L290.159 223.137C291.167 217.25 296.398 213.028 302.366 213.281C315.725 213.93 328.542 207.949 336.628 197.297C344.71 186.641 347.023 172.688 342.804 159.996C338.585 147.304 328.378 137.512 315.527 133.816C304.394 130.551 292.39 132.246 282.597 138.465C279.984 140.121 276.523 139.344 274.871 136.73C273.214 134.117 273.992 130.656 276.605 129.004C290.55 120.191 307.855 118.555 323.203 124.598C338.551 130.641 350.098 143.637 354.289 159.59C358.484 175.539 354.824 192.535 344.433 205.344C334.042 218.153 318.167 225.239 301.695 224.426C301.137 224.426 301.078 224.426 301.024 224.929L293.629 270.347C293.168 273.019 290.856 274.98 288.141 274.992L288.14 274.992Z" fill="black"/>
<path d="M294.13 295.092C294.13 299.424 290.622 302.932 286.29 302.932C281.962 302.932 278.45 299.424 278.45 295.092C278.45 290.764 281.962 287.252 286.29 287.252C290.622 287.252 294.13 290.764 294.13 295.092Z" fill="#FE7531"/>
<defs>
<linearGradient id="paint0_linear_101_14" x1="147.012" y1="133.099" x2="166.148" y2="676.001" gradientUnits="userSpaceOnUse">
<stop stop-color="#5EDCF6"/>
<stop offset="1" stop-color="#0C4FAF"/>
</linearGradient>
<linearGradient id="paint1_linear_101_14" x1="396.406" y1="-126.01" x2="343.781" y2="386.347" gradientUnits="userSpaceOnUse">
<stop stop-color="#3285E7"/>
<stop offset="1" stop-color="#51EBB7"/>
</linearGradient>
</defs>
</svg>
