<svg xmlns="http://www.w3.org/2000/svg" width="136.604" height="89.969" viewBox="0 0 136.604 89.969">
  <g id="Group_23" data-name="Group 23" transform="translate(-1469 -421.877)">
    <path id="Path_301" data-name="Path 301" d="M381.614,281.44a104.448,104.448,0,0,1-42.348-9.275,4.473,4.473,0,0,1-2.652-4.1V231.643a4.505,4.505,0,0,1,4.5-4.5h81a4.505,4.505,0,0,1,4.5,4.5v36.418a4.473,4.473,0,0,1-2.652,4.1h0a104.449,104.449,0,0,1-42.348,9.275Z" transform="translate(1156.128 230.406)" fill="#651991"/>
    <path id="Path_302" data-name="Path 302" d="M381.6,251.937a4.5,4.5,0,0,1-1.749-.352l-64.232-27.1a4.5,4.5,0,0,1,.153-8.353l64.232-24.368a4.484,4.484,0,0,1,3.211.007l63.372,24.368a4.5,4.5,0,0,1,.154,8.338l-63.372,27.1a4.506,4.506,0,0,1-1.77.36Z" transform="translate(1156.128 230.406)" fill="#651991"/>
    <circle id="Ellipse_48" data-name="Ellipse 48" cx="6" cy="6" r="6" transform="translate(1494.242 493.049)" fill="#3f3d56"/>
    <path id="Path_303" data-name="Path 303" d="M446.965,220.631l-63.373,27.1a4,4,0,0,1-3.127.008l-64.232-27.1a3.925,3.925,0,0,1-1.913-1.681,4,4,0,0,0,1.913,5.681l64.232,27.1a4,4,0,0,0,3.127-.008l63.373-27.1a4,4,0,0,0,1.895-5.673,3.927,3.927,0,0,1-1.895,1.673Z" transform="translate(1156.128 230.406)" opacity="0.2"/>
    <path id="Path_304" data-name="Path 304" d="M344.618,268.62a1,1,0,0,0,1-1V234.158L378.6,222.143a1,1,0,0,0,.03-2l-32.981,12.015a1.962,1.962,0,0,0-1.433.575,1.986,1.986,0,0,0-.6,1.425v33.461A1,1,0,0,0,344.618,268.62Z" transform="translate(1156.128 230.406)" fill="#3f3d56"/>
  </g>
</svg>
