<svg xmlns="http://www.w3.org/2000/svg" width="754.122" height="398.792" viewBox="0 0 754.122 398.792">
  <g id="undraw_server_down_s-4-lk" transform="translate(0 -10.183)">
    <path id="Path_368" data-name="Path 368" d="M31.391,151.642c0,54.033,33.9,97.756,75.789,97.756" transform="translate(-31.391 -112.901)" fill="#2f2e41"/>
    <path id="Path_369" data-name="Path 369" d="M140.092,248.922c0-54.64,37.828-98.855,84.576-98.855" transform="translate(-64.303 -112.425)" fill="#6c63ff"/>
    <path id="Path_370" data-name="Path 370" d="M70.775,158.668c0,51.326,21.616,92.858,48.329,92.858" transform="translate(-43.316 -115.029)" fill="#6c63ff"/>
    <path id="Path_371" data-name="Path 371" d="M140.092,237c0-69.818,43.723-126.314,97.756-126.314" transform="translate(-64.303 -100.5)" fill="#2f2e41"/>
    <path id="Path_372" data-name="Path 372" d="M117.224,290.317s10.748-.331,13.987-2.638,16.533-5.061,17.337-1.362,16.152,18.4,4.018,18.5-28.2-1.89-31.428-3.859S117.224,290.317,117.224,290.317Z" transform="translate(-57.379 -153.131)" fill="#a8a8a8"/>
    <path id="Path_373" data-name="Path 373" d="M152.782,306.043c-12.135.1-28.2-1.89-31.428-3.859-2.462-1.5-3.443-6.881-3.771-9.364l-.359.014s.681,8.668,3.914,10.638,19.294,3.957,31.428,3.859c3.5-.028,4.713-1.274,4.646-3.12C156.725,305.325,155.389,306.022,152.782,306.043Z" transform="translate(-57.379 -155.647)" opacity="0.2"/>
    <ellipse id="Ellipse_61" data-name="Ellipse 61" cx="130.381" cy="17.737" rx="130.381" ry="17.737" transform="translate(8.094 281.317)" fill="#3f3d56"/>
    <ellipse id="Ellipse_62" data-name="Ellipse 62" cx="109.464" cy="14.892" rx="109.464" ry="14.892" transform="translate(29.011 284.162)" opacity="0.1"/>
    <ellipse id="Ellipse_63" data-name="Ellipse 63" cx="197.314" cy="26.843" rx="197.314" ry="26.843" transform="translate(359.494 355.289)" fill="#3f3d56"/>
    <path id="Path_374" data-name="Path 374" d="M494,699.25c62.75,16.036,183.37-20.917,196.617-62.75" transform="translate(-197.953 -341.172)" fill="none" stroke="#2f2e41" stroke-miterlimit="10" stroke-width="2"/>
    <path id="Path_375" data-name="Path 375" d="M341,357.9s90.639-25.1,96.217,55.778-74.6,103.886-11.853,119.922" transform="translate(-125.134 -174.237)" fill="none" stroke="#2f2e41" stroke-miterlimit="10" stroke-width="2"/>
    <path id="Path_377" data-name="Path 377" d="M801.283,662.823l-5.493,35.067s-27.04,14.365-8.027,14.787,108.581,0,108.581,0,17.322,0-10.14-15.21l-5.492-36.757Z" transform="translate(-284.846 -348.502)" fill="#2f2e41"/>
    <path id="Path_378" data-name="Path 378" d="M783.94,712.3c4.318-3.842,11.852-7.845,11.852-7.845l5.492-35.067,79.429.075,5.492,34.57c6.4,3.547,10.371,6.266,12.692,8.352,3.527-.8,7.382-3.8-12.692-14.913l-5.492-36.757-79.429,2.112-5.492,35.067S773.071,709.962,783.94,712.3Z" transform="translate(-284.849 -348.502)" opacity="0.1"/>
    <rect id="Rectangle_30" data-name="Rectangle 30" width="357.852" height="249.271" rx="18.046" transform="translate(376.802 69.908)" fill="#2f2e41"/>
    <rect id="Rectangle_31" data-name="Rectangle 31" width="333.769" height="186.742" transform="translate(388.843 83.217)" fill="#3f3d56"/>
    <circle id="Ellipse_65" data-name="Ellipse 65" cx="2.112" cy="2.112" r="2.112" transform="translate(553.616 75.189)" fill="#f2f2f2"/>
    <path id="Path_379" data-name="Path 379" d="M967.677,621.322v21.852a12.581,12.581,0,0,1-12.583,12.582H622.406a12.581,12.581,0,0,1-12.582-12.584v-21.85Z" transform="translate(-233.022 -336.577)" fill="#2f2e41"/>
    <path id="Path_380" data-name="Path 380" d="M870.27,660.861v4.225h-227.3v-3.38l.313-.845,5.6-15.21H865.622Z" transform="translate(-221.171 -273.872)" fill="#2f2e41"/>
    <path id="Path_381" data-name="Path 381" d="M1098.118,755.717c-.414,1.77-1.977,3.638-5.509,5.4-12.675,6.337-38.447-1.69-38.447-1.69s-19.857-3.38-19.857-12.252a15.842,15.842,0,0,1,1.741-1.035c5.329-2.819,23-9.776,54.326.295a13.065,13.065,0,0,1,5.955,3.9C1097.6,751.826,1098.592,753.711,1098.118,755.717Z" transform="translate(-361.545 -372.864)" fill="#2f2e41"/>
    <path id="Path_382" data-name="Path 382" d="M1098.874,755.717c-15.514,5.945-29.342,6.388-43.534-3.469-7.157-4.969-13.659-6.2-18.539-6.1,5.329-2.819,23-9.776,54.326.295a13.065,13.065,0,0,1,5.955,3.9C1098.351,751.826,1099.348,753.711,1098.874,755.717Z" transform="translate(-362.301 -372.864)" opacity="0.1"/>
    <circle id="Ellipse_67" data-name="Ellipse 67" cx="8.027" cy="8.027" r="8.027" transform="translate(547.701 294.041)" fill="#f2f2f2"/>
    <rect id="Rectangle_32" data-name="Rectangle 32" width="145.022" height="168.728" transform="translate(75.725 113.942)" fill="#2f2e41"/>
    <rect id="Rectangle_33" data-name="Rectangle 33" width="174.306" height="59.961" transform="translate(61.083 97.208)" fill="#3f3d56"/>
    <rect id="Rectangle_34" data-name="Rectangle 34" width="174.306" height="59.961" transform="translate(61.083 168.325)" fill="#3f3d56"/>
    <rect id="Rectangle_35" data-name="Rectangle 35" width="174.306" height="59.961" transform="translate(61.083 239.442)" fill="#3f3d56"/>
    <rect id="Rectangle_36" data-name="Rectangle 36" width="11.156" height="11.156" transform="translate(189.372 107.667)" fill="#6c63ff" opacity="0.4"/>
    <rect id="Rectangle_37" data-name="Rectangle 37" width="11.156" height="11.156" transform="translate(205.408 107.667)" fill="#6c63ff" opacity="0.8"/>
    <rect id="Rectangle_38" data-name="Rectangle 38" width="11.156" height="11.156" transform="translate(221.444 107.667)" fill="#6c63ff"/>
    <rect id="Rectangle_39" data-name="Rectangle 39" width="11.156" height="11.156" transform="translate(189.372 178.086)" fill="#6c63ff" opacity="0.4"/>
    <rect id="Rectangle_40" data-name="Rectangle 40" width="11.156" height="11.156" transform="translate(205.408 178.086)" fill="#6c63ff" opacity="0.8"/>
    <rect id="Rectangle_41" data-name="Rectangle 41" width="11.156" height="11.156" transform="translate(221.444 178.086)" fill="#6c63ff"/>
    <rect id="Rectangle_42" data-name="Rectangle 42" width="11.156" height="11.156" transform="translate(189.372 248.505)" fill="#6c63ff" opacity="0.4"/>
    <rect id="Rectangle_43" data-name="Rectangle 43" width="11.156" height="11.156" transform="translate(205.408 248.505)" fill="#6c63ff" opacity="0.8"/>
    <rect id="Rectangle_44" data-name="Rectangle 44" width="11.156" height="11.156" transform="translate(221.444 248.505)" fill="#6c63ff"/>
  </g>
</svg>
