<svg width="305" height="506" viewBox="0 0 305 506" fill="none" xmlns="http://www.w3.org/2000/svg">
<path d="M108.452 38.944C106.599 46.301 100.561 61.095 100.508 68.725L100.925 68.186C102.058 69.6312 103.305 70.9826 104.655 72.227C106.436 69.762 108.712 67.6951 111.336 66.158C110.241 69.4813 109.822 72.9902 110.104 76.478C114.357 85.421 127.579 79.384 135.518 77.265C144.839 85.396 155.899 86.345 169.233 79.129C173.219 78.999 177.652 78.647 180.091 75.95C182.53 73.253 169.845 59.462 170.885 56.007C178.291 31.399 177.872 34.075 168.167 24.693C166.031 22.628 165.567 19.176 163.054 17.272C159.563 14.632 154.721 14.332 150.273 14.172C151.411 14.0786 152.505 13.6938 153.451 13.0547C154.397 12.4156 155.162 11.5437 155.673 10.523C156.104 9.50613 156.246 8.39006 156.083 7.2977C155.921 6.20535 155.46 5.17909 154.751 4.33196C152.851 1.96596 149.413 0.906969 146.246 0.955969C143.148 1.16488 140.1 1.84921 137.21 2.98496C135.307 3.50233 133.512 4.35649 131.91 5.50696C131.155 6.05201 130.585 6.81445 130.275 7.69237C129.965 8.5703 129.931 9.52189 130.176 10.42C130.55 11.2292 131.103 11.9434 131.792 12.5094C132.481 13.0755 133.289 13.4787 134.155 13.689C135.482 14.0489 136.85 14.2309 138.225 14.23C131.916 14.2684 125.769 16.2269 120.6 19.845C114.139 24.503 110.315 31.589 108.452 38.944Z" fill="#2F2E41"/>
<path d="M172.531 53.9034C175.773 40.41 167.462 26.8436 153.969 23.6019C140.476 20.3602 126.909 28.6708 123.668 42.1641C120.426 55.6574 128.737 69.2239 142.23 72.4656C155.723 75.7073 169.29 67.3967 172.531 53.9034Z" fill="#FFB6B6"/>
<path d="M131.327 37.939C133.364 42.106 137.68 42.951 141.613 43.309C142.853 43.426 144.099 43.522 145.351 43.589C145.725 42.965 146.129 42.348 146.558 41.758C148.339 39.293 150.615 37.2261 153.239 35.689C152.371 38.3145 151.93 41.0626 151.934 43.828C154.285 43.8493 156.64 43.8076 158.999 43.703C161.028 43.8546 163.038 43.221 164.613 41.9331C166.188 40.6452 167.208 38.8015 167.462 36.783C170.055 39.964 173.008 42.8909 176.627 43.8029C180.851 44.7029 174.168 42.744 176.274 38.974C177.988 36.188 178.674 32.6649 179.056 29.3029C179.504 25.3029 179.44 20.783 177.195 18.591C175.395 16.815 168.295 22.5 165.886 23.007C160.562 24.151 170.818 20.479 165.839 22.685L165.539 23.731C165.702 18.259 163.071 13.374 159.247 12.031C156.67 11.131 153.797 11.731 151.012 12.366C147.414 13.0208 143.931 14.2 140.675 15.866C136.958 17.9082 133.962 21.0491 132.098 24.8589C130.108 28.9909 129.569 34.34 131.327 37.939Z" fill="#2F2E41"/>
<path d="M154.658 9.84302C154.403 9.80402 155.052 9.81102 154.832 9.84302C154.941 9.82175 155.048 9.79165 155.152 9.75302C155.17 9.74702 155.407 9.63403 155.252 9.71503C155.607 9.55425 155.908 9.2941 156.118 8.96602C156.605 8.16329 156.953 7.28433 157.147 6.36603C157.386 5.1552 157.877 4.00845 158.59 3.00102C158.795 2.73104 159.06 2.51307 159.365 2.36482C159.669 2.21657 160.004 2.1422 160.343 2.14775C160.682 2.1533 161.014 2.23862 161.314 2.39677C161.613 2.55493 161.871 2.78147 162.067 3.05801C162.697 4.06501 162.434 5.44703 162.232 6.54703C162.024 7.69024 161.633 8.7924 161.074 9.81102C160.132 11.4803 158.725 12.8396 157.024 13.723C155.057 14.7562 152.808 15.1275 150.613 14.782C150.319 14.7041 150.054 14.5424 149.85 14.3165C149.646 14.0906 149.512 13.8104 149.464 13.5098C149.417 13.2092 149.458 12.9013 149.582 12.6235C149.706 12.3457 149.908 12.11 150.164 11.945L153.486 10.027C153.837 9.82467 154.253 9.76735 154.646 9.86726C155.039 9.96718 155.377 10.2164 155.589 10.562C155.8 10.9075 155.869 11.322 155.779 11.7172C155.69 12.1125 155.45 12.4572 155.11 12.678L151.788 14.596L151.339 11.759C151.795 11.826 152.257 11.8418 152.717 11.806C153.21 11.7885 153.699 11.701 154.167 11.546C154.618 11.4226 155.054 11.2506 155.467 11.033C155.733 10.8929 155.991 10.7393 156.241 10.573C156.332 10.5123 156.421 10.4504 156.51 10.387C156.504 10.387 156.881 10.098 156.716 10.234C157.132 9.88129 157.513 9.4906 157.856 9.06702C157.977 8.9168 158.086 8.75694 158.181 8.58902C158.348 8.31572 158.499 8.0329 158.633 7.74202C158.902 7.12755 159.094 6.48192 159.204 5.82002C159.257 5.54088 159.295 5.25915 159.319 4.97601C159.316 4.82271 159.323 4.66936 159.34 4.51701C159.423 4.14901 159.34 4.72502 159.514 4.85702L160.227 5.24702C160.354 5.26673 160.483 5.25763 160.606 5.22041C160.729 5.18319 160.842 5.11879 160.936 5.03201C160.998 4.91335 160.984 4.93368 160.893 5.09302C160.788 5.27989 160.694 5.47329 160.613 5.67203C160.44 6.13747 160.29 6.61141 160.165 7.09203C159.91 8.11283 159.546 9.10345 159.08 10.047C158.627 10.9989 157.886 11.7836 156.961 12.2892C156.036 12.7949 154.976 12.9957 153.93 12.863C153.531 12.7637 153.187 12.5114 152.972 12.1606C152.757 11.8098 152.689 11.3887 152.782 10.988C152.886 10.5918 153.14 10.2513 153.49 10.0379C153.839 9.82445 154.258 9.75461 154.658 9.84302Z" fill="#2F2E41"/>
<path d="M145.468 484.035H156.998L162.483 439.564H145.466L145.468 484.035Z" fill="#FFB6B6"/>
<path d="M160.835 485.073V477.257L157.804 477.442L145.466 478.173L142.61 478.348L140.427 504.521L140.31 505.921H148.497L148.76 504.527L149.949 498.192L153.019 504.527L153.691 505.921H175.391C176.683 505.914 177.92 505.397 178.832 504.482C179.745 503.568 180.26 502.33 180.264 501.038C181.188 496.768 163.135 487.521 160.835 485.073Z" fill="#2F2E41"/>
<path d="M17.1089 470.14L26.6019 476.683L56.3569 443.183L42.3459 433.524L17.1089 470.14Z" fill="#FFB6B6"/>
<path d="M29.172 479.716L33.608 473.28L31.008 471.712L20.435 465.312L17.984 463.836L1.33002 484.151L0.437012 485.24L7.177 489.886L8.185 488.886L12.759 484.345L11.691 491.303L11.454 492.832L29.324 505.15C30.3917 505.877 31.7035 506.153 32.9738 505.918C34.244 505.683 35.3701 504.956 36.107 503.895C39.288 500.894 29.677 483.035 29.172 479.716Z" fill="#2F2E41"/>
<path d="M304.249 31.906C303.359 33.8461 301.746 35.3618 299.755 36.1305C297.764 36.8991 295.551 36.8598 293.588 36.021C293.192 35.8444 292.811 35.6354 292.45 35.396L242.95 72.896L227.407 59.721L290.672 23.897C291.781 22.4744 293.329 21.4589 295.076 21.009C296.822 20.5591 298.669 20.7001 300.327 21.41C301.267 21.8228 302.116 22.4168 302.826 23.1579C303.536 23.899 304.094 24.7727 304.466 25.7292C304.839 26.6857 305.019 27.7061 304.997 28.7323C304.975 29.7585 304.751 30.7704 304.338 31.71C304.309 31.776 304.28 31.8413 304.249 31.906Z" fill="#FFB6B6"/>
<path d="M158.9 137.221C158.9 137.221 141.408 132.758 153.662 109.788C165.916 86.818 213.043 61.203 216.305 60.888C219.567 60.573 216.921 63.6769 222.571 58.5539C227.171 54.3869 229.048 58.3539 229.219 56.3299C229.669 50.9869 236.636 60.0869 235.711 53.5239C234.786 46.9609 250.527 68.0709 250.527 68.0709C250.527 68.0709 250.527 71.9839 242.255 75.1579C237.611 76.9409 234.372 75.4299 234.481 79.4249C234.59 83.4199 225.066 81.9249 223.832 82.7989C222.598 83.6729 201.768 111.421 201.768 111.421L158.9 137.221Z" fill="#651991"/>
<path d="M202.572 233.408L202.872 230.289L190.045 195.131L135.394 205.669C135.394 205.669 107.227 240.369 113.494 263.333C115.194 269.561 93.8199 310.933 100.854 306.467C107.888 302.001 93.5379 314.424 97.2129 314.715C100.888 315.006 95.1129 319.336 94.0239 321.697C68.8469 376.069 28.5879 447.062 28.5879 447.062C28.5879 447.062 36.9609 470.601 50.1729 457.44C63.3849 444.279 151.773 327.36 151.773 327.36C151.773 327.36 150.582 334.972 148.921 346.546C143.789 382.301 135.728 454.28 142.89 458.007C148.607 460.967 155.009 462.353 161.439 462.025C161.439 462.025 208.839 352.414 202.576 331.536" fill="#2F2E41"/>
<path d="M170.258 86.7699L165.172 76.1969L137.614 79.5359L134.765 88.1619C126.779 96.1402 120.201 105.412 115.309 115.586C107.684 131.875 133.061 203.83 128.886 208.006C124.711 212.182 109.239 214.432 116.198 219.547C123.157 224.662 116.198 221.391 114.464 227.227C112.73 233.063 109.315 256.292 109.315 256.292C109.315 256.292 135.815 278.502 152.515 245.092C176.873 247.18 181.745 224.214 181.745 224.214L189.934 210.651C200.559 205.788 184.181 150.096 188.357 138.961C192.533 127.826 170.258 86.7699 170.258 86.7699Z" fill="#651991"/>
<path d="M195.443 205.989C195.506 201.899 195.494 197.494 197.31 193.726C198.674 190.895 201.21 188.068 204.543 187.826C207.38 187.626 210.6 189.302 210.861 192.386C211.171 196.051 208.085 199.553 205.586 201.867C202.567 204.64 198.891 206.598 194.905 207.557C194.625 207.641 194.376 207.805 194.187 208.027C193.998 208.25 193.877 208.523 193.839 208.812C193.802 209.102 193.848 209.396 193.974 209.66C194.099 209.924 194.298 210.146 194.547 210.299C197.721 212.054 200.526 214.405 202.809 217.223C204.917 219.823 207.097 223.266 207.542 226.654C207.732 228.098 207.476 229.854 205.947 230.454C204.495 231.027 202.729 230.281 201.483 229.543C198.555 227.592 196.261 224.828 194.883 221.591C193.181 217.923 192.608 213.832 193.236 209.837C193.546 207.948 190.655 207.137 190.343 209.037C188.968 217.424 192.315 227.411 199.819 232.037C203.233 234.137 208.441 234.51 210.155 230.071C211.708 226.049 209.138 221.216 206.991 217.908C204.237 213.667 200.486 210.165 196.066 207.708L195.708 210.45C200.065 209.378 204.089 207.249 207.426 204.25C210.619 201.383 214.057 197.127 213.879 192.583C213.72 188.499 210.457 185.537 206.545 184.94C202.292 184.291 198.497 186.608 196.06 189.968C192.717 194.577 192.534 200.513 192.449 205.984C192.449 206.382 192.607 206.763 192.888 207.045C193.17 207.326 193.551 207.484 193.949 207.484C194.347 207.484 194.728 207.326 195.01 207.045C195.291 206.763 195.449 206.382 195.449 205.984L195.443 205.989Z" fill="#2F2E41"/>
<path d="M73.61 263.272C75.5027 262.286 76.9358 260.6 77.6041 258.574C78.2724 256.547 78.1231 254.339 77.188 252.421C76.9922 252.034 76.7647 251.664 76.508 251.315L111.515 200.028L97.596 185.146L64.942 250.104C63.5759 251.282 62.6382 252.878 62.2751 254.645C61.912 256.412 62.144 258.249 62.935 259.87C63.3935 260.788 64.0284 261.607 64.8036 262.28C65.5787 262.953 66.4788 263.467 67.4525 263.792C68.4261 264.117 69.4543 264.247 70.4782 264.175C71.5021 264.102 72.5017 263.829 73.42 263.37C73.484 263.337 73.5473 263.305 73.61 263.272Z" fill="#FFB6B6"/>
<path d="M171.614 112.898C171.614 112.898 166.292 95.6479 143.955 109.021C121.618 122.394 98.3631 170.73 98.2061 174.004C98.0491 177.278 101.022 174.481 96.1841 180.378C92.2491 185.178 96.3061 186.857 94.2911 187.128C88.9771 187.842 98.4101 194.35 91.8091 193.751C85.2081 193.152 107.071 207.83 107.071 207.83C107.071 207.83 110.979 207.63 113.741 199.217C115.292 194.491 113.624 191.33 117.619 191.242C121.614 191.154 119.651 181.715 120.463 180.442C121.275 179.169 147.963 156.991 147.963 156.991L171.614 112.898Z" fill="#651991"/>
<path d="M136.657 27.796C153.081 8.85502 123.885 59.006 145.696 78.557C136.806 85.61 104.196 83.108 106.042 78.557C107.888 74.006 113.924 30.587 120.404 27.796C126.884 25.005 136.657 27.796 136.657 27.796Z" fill="#2F2E41"/>
</svg>
