<svg width="638" height="376" viewBox="0 0 638 376" fill="none" xmlns="http://www.w3.org/2000/svg">
<path d="M20.395 0H609.128C620.392 0 629.523 6.716 629.523 15V361C629.523 369.284 620.392 376 609.128 376H20.395C9.131 376 0 369.284 0 361V15C0 6.716 9.131 0 20.395 0Z" fill="#3D0A69"/>
<path d="M623 0H24C15.7157 0 9 6.71573 9 15V353C9 361.284 15.7157 368 24 368H623C631.284 368 638 361.284 638 353V15C638 6.71573 631.284 0 623 0Z" fill="#7A60A1"/>
<path d="M54.8 157.4V184.9H91V191.3H54.8V221H47.4V151H95.4V157.4H54.8ZM109.181 146.8H116.281V221H109.181V146.8ZM154.437 168C161.303 168 166.57 169.733 170.237 173.2C173.903 176.6 175.737 181.667 175.737 188.4V221H168.937V212.8C167.337 215.533 164.97 217.667 161.837 219.2C158.77 220.733 155.103 221.5 150.837 221.5C144.97 221.5 140.303 220.1 136.837 217.3C133.37 214.5 131.637 210.8 131.637 206.2C131.637 201.733 133.237 198.133 136.437 195.4C139.703 192.667 144.87 191.3 151.937 191.3H168.637V188.1C168.637 183.567 167.37 180.133 164.837 177.8C162.303 175.4 158.603 174.2 153.737 174.2C150.403 174.2 147.203 174.767 144.137 175.9C141.07 176.967 138.437 178.467 136.237 180.4L133.037 175.1C135.703 172.833 138.903 171.1 142.637 169.9C146.37 168.633 150.303 168 154.437 168ZM151.937 215.9C155.937 215.9 159.37 215 162.237 213.2C165.103 211.333 167.237 208.667 168.637 205.2V196.6H152.137C143.137 196.6 138.637 199.733 138.637 206C138.637 209.067 139.803 211.5 142.137 213.3C144.47 215.033 147.737 215.9 151.937 215.9ZM209.121 221.5C204.854 221.5 200.754 220.9 196.821 219.7C192.954 218.433 189.921 216.867 187.721 215L190.921 209.4C193.121 211.133 195.888 212.567 199.221 213.7C202.554 214.767 206.021 215.3 209.621 215.3C214.421 215.3 217.954 214.567 220.221 213.1C222.554 211.567 223.721 209.433 223.721 206.7C223.721 204.767 223.088 203.267 221.821 202.2C220.554 201.067 218.954 200.233 217.021 199.7C215.088 199.1 212.521 198.533 209.321 198C205.054 197.2 201.621 196.4 199.021 195.6C196.421 194.733 194.188 193.3 192.321 191.3C190.521 189.3 189.621 186.533 189.621 183C189.621 178.6 191.454 175 195.121 172.2C198.788 169.4 203.888 168 210.421 168C213.821 168 217.221 168.467 220.621 169.4C224.021 170.267 226.821 171.433 229.021 172.9L225.921 178.6C221.588 175.6 216.421 174.1 210.421 174.1C205.888 174.1 202.454 174.9 200.121 176.5C197.854 178.1 196.721 180.2 196.721 182.8C196.721 184.8 197.354 186.4 198.621 187.6C199.954 188.8 201.588 189.7 203.521 190.3C205.454 190.833 208.121 191.4 211.521 192C215.721 192.8 219.088 193.6 221.621 194.4C224.154 195.2 226.321 196.567 228.121 198.5C229.921 200.433 230.821 203.1 230.821 206.5C230.821 211.1 228.888 214.767 225.021 217.5C221.221 220.167 215.921 221.5 209.121 221.5ZM270.747 168C277.347 168 282.58 169.933 286.447 173.8C290.38 177.6 292.347 183.167 292.347 190.5V221H285.247V191.2C285.247 185.733 283.88 181.567 281.147 178.7C278.414 175.833 274.514 174.4 269.447 174.4C263.78 174.4 259.28 176.1 255.947 179.5C252.68 182.833 251.047 187.467 251.047 193.4V221H243.947V146.8H251.047V177.6C252.98 174.533 255.647 172.167 259.047 170.5C262.447 168.833 266.347 168 270.747 168ZM343.523 221.6C336.589 221.6 330.323 220.067 324.723 217C319.189 213.933 314.823 209.7 311.623 204.3C308.489 198.833 306.923 192.733 306.923 186C306.923 179.267 308.489 173.2 311.623 167.8C314.823 162.333 319.223 158.067 324.823 155C330.423 151.933 336.689 150.4 343.623 150.4C348.823 150.4 353.623 151.267 358.023 153C362.423 154.733 366.156 157.267 369.223 160.6L364.523 165.3C359.056 159.767 352.156 157 343.823 157C338.289 157 333.256 158.267 328.723 160.8C324.189 163.333 320.623 166.8 318.023 171.2C315.489 175.6 314.223 180.533 314.223 186C314.223 191.467 315.489 196.4 318.023 200.8C320.623 205.2 324.189 208.667 328.723 211.2C333.256 213.733 338.289 215 343.823 215C352.223 215 359.123 212.2 364.523 206.6L369.223 211.3C366.156 214.633 362.389 217.2 357.923 219C353.523 220.733 348.723 221.6 343.523 221.6ZM401.116 168C407.983 168 413.25 169.733 416.916 173.2C420.583 176.6 422.416 181.667 422.416 188.4V221H415.616V212.8C414.016 215.533 411.65 217.667 408.516 219.2C405.45 220.733 401.783 221.5 397.516 221.5C391.65 221.5 386.983 220.1 383.516 217.3C380.05 214.5 378.316 210.8 378.316 206.2C378.316 201.733 379.916 198.133 383.116 195.4C386.383 192.667 391.55 191.3 398.616 191.3H415.316V188.1C415.316 183.567 414.05 180.133 411.516 177.8C408.983 175.4 405.283 174.2 400.416 174.2C397.083 174.2 393.883 174.767 390.816 175.9C387.75 176.967 385.116 178.467 382.916 180.4L379.716 175.1C382.383 172.833 385.583 171.1 389.316 169.9C393.05 168.633 396.983 168 401.116 168ZM398.616 215.9C402.616 215.9 406.05 215 408.916 213.2C411.783 211.333 413.916 208.667 415.316 205.2V196.6H398.816C389.816 196.6 385.316 199.733 385.316 206C385.316 209.067 386.483 211.5 388.816 213.3C391.15 215.033 394.416 215.9 398.616 215.9ZM448.501 178.7C450.167 175.167 452.634 172.5 455.901 170.7C459.234 168.9 463.334 168 468.201 168V174.9L466.501 174.8C460.967 174.8 456.634 176.5 453.501 179.9C450.367 183.3 448.801 188.067 448.801 194.2V221H441.701V168.4H448.501V178.7ZM528.568 146.8V221H521.768V210.6C519.635 214.133 516.801 216.833 513.268 218.7C509.801 220.567 505.868 221.5 501.468 221.5C496.535 221.5 492.068 220.367 488.068 218.1C484.068 215.833 480.935 212.667 478.668 208.6C476.401 204.533 475.268 199.9 475.268 194.7C475.268 189.5 476.401 184.867 478.668 180.8C480.935 176.733 484.068 173.6 488.068 171.4C492.068 169.133 496.535 168 501.468 168C505.735 168 509.568 168.9 512.968 170.7C516.435 172.433 519.268 175 521.468 178.4V146.8H528.568ZM502.068 215.2C505.735 215.2 509.035 214.367 511.968 212.7C514.968 210.967 517.301 208.533 518.968 205.4C520.701 202.267 521.568 198.7 521.568 194.7C521.568 190.7 520.701 187.133 518.968 184C517.301 180.867 514.968 178.467 511.968 176.8C509.035 175.067 505.735 174.2 502.068 174.2C498.335 174.2 494.968 175.067 491.968 176.8C489.035 178.467 486.701 180.867 484.968 184C483.301 187.133 482.468 190.7 482.468 194.7C482.468 198.7 483.301 202.267 484.968 205.4C486.701 208.533 489.035 210.967 491.968 212.7C494.968 214.367 498.335 215.2 502.068 215.2ZM562.441 221.5C558.175 221.5 554.075 220.9 550.141 219.7C546.275 218.433 543.241 216.867 541.041 215L544.241 209.4C546.441 211.133 549.208 212.567 552.541 213.7C555.875 214.767 559.341 215.3 562.941 215.3C567.741 215.3 571.275 214.567 573.541 213.1C575.875 211.567 577.041 209.433 577.041 206.7C577.041 204.767 576.408 203.267 575.141 202.2C573.875 201.067 572.275 200.233 570.341 199.7C568.408 199.1 565.841 198.533 562.641 198C558.375 197.2 554.941 196.4 552.341 195.6C549.741 194.733 547.508 193.3 545.641 191.3C543.841 189.3 542.941 186.533 542.941 183C542.941 178.6 544.775 175 548.441 172.2C552.108 169.4 557.208 168 563.741 168C567.141 168 570.541 168.467 573.941 169.4C577.341 170.267 580.141 171.433 582.341 172.9L579.241 178.6C574.908 175.6 569.741 174.1 563.741 174.1C559.208 174.1 555.775 174.9 553.441 176.5C551.175 178.1 550.041 180.2 550.041 182.8C550.041 184.8 550.675 186.4 551.941 187.6C553.275 188.8 554.908 189.7 556.841 190.3C558.775 190.833 561.441 191.4 564.841 192C569.041 192.8 572.408 193.6 574.941 194.4C577.475 195.2 579.641 196.567 581.441 198.5C583.241 200.433 584.141 203.1 584.141 206.5C584.141 211.1 582.208 214.767 578.341 217.5C574.541 220.167 569.241 221.5 562.441 221.5Z" fill="#3D0A69"/>
<g filter="url(#filter0_d_13_84)">
<path d="M54.8 157.4V184.9H91V191.3H54.8V221H47.4V151H95.4V157.4H54.8ZM109.181 146.8H116.281V221H109.181V146.8ZM154.437 168C161.303 168 166.57 169.733 170.237 173.2C173.903 176.6 175.737 181.667 175.737 188.4V221H168.937V212.8C167.337 215.533 164.97 217.667 161.837 219.2C158.77 220.733 155.103 221.5 150.837 221.5C144.97 221.5 140.303 220.1 136.837 217.3C133.37 214.5 131.637 210.8 131.637 206.2C131.637 201.733 133.237 198.133 136.437 195.4C139.703 192.667 144.87 191.3 151.937 191.3H168.637V188.1C168.637 183.567 167.37 180.133 164.837 177.8C162.303 175.4 158.603 174.2 153.737 174.2C150.403 174.2 147.203 174.767 144.137 175.9C141.07 176.967 138.437 178.467 136.237 180.4L133.037 175.1C135.703 172.833 138.903 171.1 142.637 169.9C146.37 168.633 150.303 168 154.437 168ZM151.937 215.9C155.937 215.9 159.37 215 162.237 213.2C165.103 211.333 167.237 208.667 168.637 205.2V196.6H152.137C143.137 196.6 138.637 199.733 138.637 206C138.637 209.067 139.803 211.5 142.137 213.3C144.47 215.033 147.737 215.9 151.937 215.9ZM209.121 221.5C204.854 221.5 200.754 220.9 196.821 219.7C192.954 218.433 189.921 216.867 187.721 215L190.921 209.4C193.121 211.133 195.888 212.567 199.221 213.7C202.554 214.767 206.021 215.3 209.621 215.3C214.421 215.3 217.954 214.567 220.221 213.1C222.554 211.567 223.721 209.433 223.721 206.7C223.721 204.767 223.088 203.267 221.821 202.2C220.554 201.067 218.954 200.233 217.021 199.7C215.088 199.1 212.521 198.533 209.321 198C205.054 197.2 201.621 196.4 199.021 195.6C196.421 194.733 194.188 193.3 192.321 191.3C190.521 189.3 189.621 186.533 189.621 183C189.621 178.6 191.454 175 195.121 172.2C198.788 169.4 203.888 168 210.421 168C213.821 168 217.221 168.467 220.621 169.4C224.021 170.267 226.821 171.433 229.021 172.9L225.921 178.6C221.588 175.6 216.421 174.1 210.421 174.1C205.888 174.1 202.454 174.9 200.121 176.5C197.854 178.1 196.721 180.2 196.721 182.8C196.721 184.8 197.354 186.4 198.621 187.6C199.954 188.8 201.588 189.7 203.521 190.3C205.454 190.833 208.121 191.4 211.521 192C215.721 192.8 219.088 193.6 221.621 194.4C224.154 195.2 226.321 196.567 228.121 198.5C229.921 200.433 230.821 203.1 230.821 206.5C230.821 211.1 228.888 214.767 225.021 217.5C221.221 220.167 215.921 221.5 209.121 221.5ZM270.747 168C277.347 168 282.58 169.933 286.447 173.8C290.38 177.6 292.347 183.167 292.347 190.5V221H285.247V191.2C285.247 185.733 283.88 181.567 281.147 178.7C278.414 175.833 274.514 174.4 269.447 174.4C263.78 174.4 259.28 176.1 255.947 179.5C252.68 182.833 251.047 187.467 251.047 193.4V221H243.947V146.8H251.047V177.6C252.98 174.533 255.647 172.167 259.047 170.5C262.447 168.833 266.347 168 270.747 168ZM343.523 221.6C336.589 221.6 330.323 220.067 324.723 217C319.189 213.933 314.823 209.7 311.623 204.3C308.489 198.833 306.923 192.733 306.923 186C306.923 179.267 308.489 173.2 311.623 167.8C314.823 162.333 319.223 158.067 324.823 155C330.423 151.933 336.689 150.4 343.623 150.4C348.823 150.4 353.623 151.267 358.023 153C362.423 154.733 366.156 157.267 369.223 160.6L364.523 165.3C359.056 159.767 352.156 157 343.823 157C338.289 157 333.256 158.267 328.723 160.8C324.189 163.333 320.623 166.8 318.023 171.2C315.489 175.6 314.223 180.533 314.223 186C314.223 191.467 315.489 196.4 318.023 200.8C320.623 205.2 324.189 208.667 328.723 211.2C333.256 213.733 338.289 215 343.823 215C352.223 215 359.123 212.2 364.523 206.6L369.223 211.3C366.156 214.633 362.389 217.2 357.923 219C353.523 220.733 348.723 221.6 343.523 221.6ZM401.116 168C407.983 168 413.25 169.733 416.916 173.2C420.583 176.6 422.416 181.667 422.416 188.4V221H415.616V212.8C414.016 215.533 411.65 217.667 408.516 219.2C405.45 220.733 401.783 221.5 397.516 221.5C391.65 221.5 386.983 220.1 383.516 217.3C380.05 214.5 378.316 210.8 378.316 206.2C378.316 201.733 379.916 198.133 383.116 195.4C386.383 192.667 391.55 191.3 398.616 191.3H415.316V188.1C415.316 183.567 414.05 180.133 411.516 177.8C408.983 175.4 405.283 174.2 400.416 174.2C397.083 174.2 393.883 174.767 390.816 175.9C387.75 176.967 385.116 178.467 382.916 180.4L379.716 175.1C382.383 172.833 385.583 171.1 389.316 169.9C393.05 168.633 396.983 168 401.116 168ZM398.616 215.9C402.616 215.9 406.05 215 408.916 213.2C411.783 211.333 413.916 208.667 415.316 205.2V196.6H398.816C389.816 196.6 385.316 199.733 385.316 206C385.316 209.067 386.483 211.5 388.816 213.3C391.15 215.033 394.416 215.9 398.616 215.9ZM448.501 178.7C450.167 175.167 452.634 172.5 455.901 170.7C459.234 168.9 463.334 168 468.201 168V174.9L466.501 174.8C460.967 174.8 456.634 176.5 453.501 179.9C450.367 183.3 448.801 188.067 448.801 194.2V221H441.701V168.4H448.501V178.7ZM528.568 146.8V221H521.768V210.6C519.635 214.133 516.801 216.833 513.268 218.7C509.801 220.567 505.868 221.5 501.468 221.5C496.535 221.5 492.068 220.367 488.068 218.1C484.068 215.833 480.935 212.667 478.668 208.6C476.401 204.533 475.268 199.9 475.268 194.7C475.268 189.5 476.401 184.867 478.668 180.8C480.935 176.733 484.068 173.6 488.068 171.4C492.068 169.133 496.535 168 501.468 168C505.735 168 509.568 168.9 512.968 170.7C516.435 172.433 519.268 175 521.468 178.4V146.8H528.568ZM502.068 215.2C505.735 215.2 509.035 214.367 511.968 212.7C514.968 210.967 517.301 208.533 518.968 205.4C520.701 202.267 521.568 198.7 521.568 194.7C521.568 190.7 520.701 187.133 518.968 184C517.301 180.867 514.968 178.467 511.968 176.8C509.035 175.067 505.735 174.2 502.068 174.2C498.335 174.2 494.968 175.067 491.968 176.8C489.035 178.467 486.701 180.867 484.968 184C483.301 187.133 482.468 190.7 482.468 194.7C482.468 198.7 483.301 202.267 484.968 205.4C486.701 208.533 489.035 210.967 491.968 212.7C494.968 214.367 498.335 215.2 502.068 215.2ZM562.441 221.5C558.175 221.5 554.075 220.9 550.141 219.7C546.275 218.433 543.241 216.867 541.041 215L544.241 209.4C546.441 211.133 549.208 212.567 552.541 213.7C555.875 214.767 559.341 215.3 562.941 215.3C567.741 215.3 571.275 214.567 573.541 213.1C575.875 211.567 577.041 209.433 577.041 206.7C577.041 204.767 576.408 203.267 575.141 202.2C573.875 201.067 572.275 200.233 570.341 199.7C568.408 199.1 565.841 198.533 562.641 198C558.375 197.2 554.941 196.4 552.341 195.6C549.741 194.733 547.508 193.3 545.641 191.3C543.841 189.3 542.941 186.533 542.941 183C542.941 178.6 544.775 175 548.441 172.2C552.108 169.4 557.208 168 563.741 168C567.141 168 570.541 168.467 573.941 169.4C577.341 170.267 580.141 171.433 582.341 172.9L579.241 178.6C574.908 175.6 569.741 174.1 563.741 174.1C559.208 174.1 555.775 174.9 553.441 176.5C551.175 178.1 550.041 180.2 550.041 182.8C550.041 184.8 550.675 186.4 551.941 187.6C553.275 188.8 554.908 189.7 556.841 190.3C558.775 190.833 561.441 191.4 564.841 192C569.041 192.8 572.408 193.6 574.941 194.4C577.475 195.2 579.641 196.567 581.441 198.5C583.241 200.433 584.141 203.1 584.141 206.5C584.141 211.1 582.208 214.767 578.341 217.5C574.541 220.167 569.241 221.5 562.441 221.5Z" fill="#3D0A69"/>
</g>
<defs>
<filter id="filter0_d_13_84" x="42.4" y="146.8" width="541.741" height="79.7999" filterUnits="userSpaceOnUse" color-interpolation-filters="sRGB">
<feFlood flood-opacity="0" result="BackgroundImageFix"/>
<feColorMatrix in="SourceAlpha" type="matrix" values="0 0 0 0 0 0 0 0 0 0 0 0 0 0 0 0 0 0 127 0" result="hardAlpha"/>
<feOffset dx="-3" dy="3"/>
<feGaussianBlur stdDeviation="1"/>
<feColorMatrix type="matrix" values="0 0 0 0 0.0941176 0 0 0 0 0.00784314 0 0 0 0 0.168627 0 0 0 1 0"/>
<feBlend mode="normal" in2="BackgroundImageFix" result="effect1_dropShadow_13_84"/>
<feBlend mode="normal" in="SourceGraphic" in2="effect1_dropShadow_13_84" result="shape"/>
</filter>
</defs>
</svg>
