<svg width="368" height="339" viewBox="0 0 368 339" fill="none" xmlns="http://www.w3.org/2000/svg">
<path d="M198.5 339C292.112 339 368 331.165 368 321.5C368 311.835 292.112 304 198.5 304C104.888 304 29 311.835 29 321.5C29 331.165 104.888 339 198.5 339Z" fill="#1E4588" fill-opacity="0.2"/>
<path d="M296.019 309.713L307.639 305.804L298.089 259.124L280.94 264.894L296.019 309.713Z" fill="#FFB6B6"/>
<path d="M291.773 306.916L295.044 305.816L306.066 296.328L314.657 299.218C318.525 297.917 322.751 298.206 326.406 300.021C330.06 301.835 332.845 305.028 334.146 308.895L334.305 309.369L296.838 321.974L291.773 306.916Z" fill="#2F2E41"/>
<path d="M239.645 302.031L251.576 304.853L268.135 260.177L250.527 256.013L239.645 302.031Z" fill="#FFB6B6"/>
<path d="M237.523 297.416L240.881 298.21L255.253 295.979L261.019 302.972C264.99 303.911 268.426 306.39 270.57 309.862C272.713 313.334 273.39 317.516 272.451 321.487L272.336 321.974L233.866 312.874L237.523 297.416Z" fill="#2F2E41"/>
<path d="M138.05 295.515H159.097V260.637H138.05V295.515Z" fill="#CACACA"/>
<path d="M158.044 279.092L155.343 283.073L205.857 317.349L208.558 313.368L158.044 279.092Z" fill="#CACACA"/>
<path d="M139.106 279.096L88.592 313.372L91.2934 317.353L141.807 283.077L139.106 279.096Z" fill="#CACACA"/>
<path d="M207.204 321.974C210.857 321.974 213.819 319.013 213.819 315.359C213.819 311.706 210.857 308.744 207.204 308.744C203.551 308.744 200.589 311.706 200.589 315.359C200.589 319.013 203.551 321.974 207.204 321.974Z" fill="#CACACA"/>
<path d="M148.272 321.974C151.925 321.974 154.887 319.013 154.887 315.359C154.887 311.706 151.925 308.744 148.272 308.744C144.619 308.744 141.657 311.706 141.657 315.359C141.657 319.013 144.619 321.974 148.272 321.974Z" fill="#CACACA"/>
<path d="M89.942 321.974C93.5954 321.974 96.557 319.013 96.557 315.359C96.557 311.706 93.5954 308.744 89.942 308.744C86.2887 308.744 83.327 311.706 83.327 315.359C83.327 319.013 86.2887 321.974 89.942 321.974Z" fill="#CACACA"/>
<path d="M150.678 281.082H145.867V315.359H150.678V281.082Z" fill="#CACACA"/>
<path d="M144.063 276.271H153.083V229.967H144.063V276.271Z" fill="#CACACA"/>
<path d="M102.715 237.184V226.359C102.717 224.366 103.51 222.455 104.919 221.046C106.328 219.637 108.239 218.844 110.232 218.842H180.522C182.515 218.844 184.426 219.637 185.835 221.046C187.244 222.455 188.037 224.366 188.039 226.359V237.183C188.037 239.176 187.244 241.087 185.835 242.496C184.426 243.905 182.515 244.698 180.522 244.7H110.232C108.239 244.698 106.329 243.905 104.919 242.496C103.51 241.087 102.717 239.177 102.715 237.184Z" fill="#3F3D56"/>
<path d="M60.299 217.222L14.919 139.195C13.4431 136.651 13.0366 133.625 13.7887 130.781C14.5409 127.938 16.3902 125.509 18.931 124.027L21.583 122.484C24.1274 121.008 27.1533 120.602 29.9968 121.354C32.8404 122.106 35.2694 123.956 36.751 126.497L82.131 204.524C83.6069 207.068 84.0132 210.094 83.2609 212.938C82.5086 215.781 80.659 218.21 78.118 219.692L75.466 221.235C72.9218 222.711 69.8961 223.117 67.0528 222.364C64.2095 221.612 61.7806 219.763 60.299 217.222Z" fill="#3F3D56"/>
<path d="M103.011 236.811C93.2015 236.8 83.7969 232.898 76.8604 225.962C69.924 219.025 66.0222 209.621 66.0111 199.811H70.0111C70.0105 205.857 71.6706 211.786 74.8102 216.952C77.9498 222.119 82.4483 226.323 87.8147 229.107C93.1811 231.891 99.2091 233.148 105.241 232.739C111.272 232.331 117.076 230.273 122.018 226.791L124.325 230.059C118.094 234.468 110.644 236.828 103.011 236.811Z" fill="#3F3D56"/>
<path d="M145.011 180.811C145.011 180.811 257.011 146.811 274.011 188.811C291.011 230.811 307.011 278.811 307.011 278.811L285.011 285.811L242.011 213.811C242.011 213.811 138.365 239.811 116.688 209.311L145.011 180.811Z" fill="#2F2E41"/>
<path d="M64.0111 95.811L38.0111 93.811L33.0111 125.811C33.0111 125.811 65.0111 208.811 120.011 216.811L172.011 169.811L114.421 148.354L64.0111 95.811Z" fill="#651991"/>
<path d="M61.0021 76.7973C77.8057 68.4049 84.6243 47.9795 76.2319 31.176C67.8395 14.3724 47.4141 7.55381 30.6106 15.9462C13.807 24.3386 6.98843 44.7639 15.3808 61.5675C23.7732 78.371 44.1986 85.1896 61.0021 76.7973Z" fill="#FFB8B8"/>
<path d="M55.2191 81.5881C53.6491 82.9011 51.2851 83.5881 48.0501 83.6881C38.5312 83.9819 29.1788 81.1447 21.4275 75.6119C13.6762 70.079 7.95414 62.1559 5.13906 53.0581C3.72206 48.4791 2.52307 41.6491 4.85107 35.1121C6.52507 30.4121 9.81208 26.4721 12.7621 23.1471C15.3151 20.2681 17.9801 17.4471 20.6831 14.7661C23.9121 11.5601 27.7611 8.00007 32.5891 6.32807C36.1271 5.10307 39.9181 4.99408 43.5891 4.88908C44.8671 4.85208 46.1891 4.81407 47.4721 4.72807C50.666 4.61953 53.8011 3.83781 56.6721 2.43406C57.2613 2.11826 57.9114 1.93262 58.5785 1.88966C59.2457 1.8467 59.9142 1.94744 60.5391 2.18507C61.1752 2.42597 61.7522 2.8006 62.2311 3.28364C62.71 3.76669 63.0797 4.34691 63.3151 4.98509C63.7791 6.24009 64.1961 7.37108 65.6151 7.78508C66.1263 7.92247 66.6634 7.93251 67.1794 7.81431C67.6954 7.69612 68.1746 7.45329 68.5751 7.10707C68.7865 6.92436 69.0402 6.79738 69.3132 6.73765C69.5861 6.67792 69.8697 6.68737 70.1381 6.76509C70.4068 6.83978 70.6531 6.97906 70.8557 7.17079C71.0582 7.36252 71.2108 7.60085 71.3001 7.86506L71.4161 8.20909C71.7071 8.00862 72.0424 7.88183 72.3932 7.83967C72.7441 7.79752 73.0999 7.84125 73.4301 7.96708C73.9088 8.13937 74.3144 8.46981 74.5798 8.90382C74.8453 9.33783 74.9547 9.84944 74.8901 10.3541C74.4158 14.5153 72.7844 18.4603 70.1811 21.7411C68.3812 23.9644 66.1618 25.8121 63.6491 27.1791L63.2491 27.4011L62.9711 26.9821C51.6711 31.1561 48.2241 42.9921 48.7811 52.7591L47.7931 52.8921C47.7167 52.5747 47.5768 52.276 47.3819 52.0141C47.187 51.7522 46.9412 51.5324 46.6591 51.3681C46.3326 51.161 45.9684 51.0203 45.5875 50.954C45.2066 50.8878 44.8163 50.8973 44.4391 50.9821C43.7219 51.2082 43.0877 51.6415 42.6164 52.2276C42.1452 52.8136 41.858 53.526 41.7911 54.2751C41.7398 55.0581 41.8521 55.8432 42.1208 56.5804C42.3896 57.3176 42.8089 57.9908 43.3521 58.5571C44.5341 59.7316 45.8997 60.7057 47.3951 61.4411C48.0731 61.8241 48.7741 62.2201 49.4391 62.6551C53.1991 65.1371 55.9121 68.9182 57.0591 73.2751C57.5751 75.2691 57.8711 78.1141 56.3531 80.3421C56.0348 80.8081 55.6532 81.2275 55.2191 81.5881Z" fill="#2F2E41"/>
<path d="M278.435 201.69C273.202 246.697 262.011 288.811 262.011 288.811L241.011 285.811L245.794 200.939" fill="#2F2E41"/>
<path d="M71.3631 51.83C70.3586 51.8293 69.3806 51.5074 68.5721 50.9113C67.7636 50.3153 67.1668 49.4763 66.8691 48.517C53.2241 41.406 60.4381 36.391 61.3781 30.746C61.0103 29.5556 61.1302 28.2678 61.7115 27.1658C62.2928 26.0638 63.2879 25.2376 64.4781 24.869L78.4271 20.558C79.6176 20.1899 80.9056 20.3097 82.0079 20.891C83.1101 21.4723 83.9364 22.4676 84.3051 23.658L89.7971 41.429C90.1638 42.6196 90.0434 43.907 89.4622 45.0089C88.8811 46.1108 87.8867 46.9372 86.6971 47.307L72.748 51.618C72.2998 51.7569 71.8333 51.8277 71.364 51.828L71.3631 51.83Z" fill="#3F3D56"/>
<path d="M80.478 19.942C81.4934 19.9348 82.484 20.255 83.3032 20.8549C84.1224 21.4549 84.7265 22.3028 85.026 23.273L90.811 41.443C91.2023 42.6602 91.104 43.982 90.537 45.128C90.2641 45.6892 89.8821 46.1905 89.4134 46.6026C88.9447 47.0147 88.3986 47.3293 87.807 47.528L84.671 48.58L75.962 21.228L79.098 20.176C79.5434 20.0262 80.0092 19.9459 80.479 19.938L80.478 19.942Z" fill="#6C63FF"/>
<path d="M8.3731 61.953C7.72356 61.9527 7.09114 61.7446 6.56829 61.3593C6.04544 60.9739 5.65957 60.4313 5.4671 59.811L4.01409 55.111C3.77639 54.3409 3.85433 53.508 4.23071 52.7954C4.60708 52.0827 5.25109 51.5488 6.02111 51.311L69.0031 31.848C69.7732 31.6103 70.6061 31.6882 71.3187 32.0645C72.0313 32.4409 72.5653 33.085 72.8031 33.855L74.2561 38.555C74.493 39.3249 74.4149 40.1574 74.0388 40.8698C73.6628 41.5821 73.0195 42.1163 72.2501 42.355L9.26711 61.818C8.97757 61.9075 8.67618 61.953 8.3731 61.953Z" fill="#3F3D56"/>
<path d="M179.703 209.16H170.318C169.113 209.16 167.954 208.699 167.078 207.871C166.203 207.043 165.677 205.911 165.61 204.708L164.018 176.433C163.982 175.793 164.077 175.151 164.297 174.549C164.517 173.946 164.858 173.395 165.299 172.929C165.74 172.463 166.271 172.092 166.86 171.838C167.45 171.584 168.084 171.454 168.726 171.454H181.295C181.937 171.454 182.572 171.584 183.161 171.838C183.75 172.092 184.282 172.463 184.722 172.929C185.163 173.396 185.504 173.947 185.724 174.55C185.945 175.152 186.039 175.793 186.003 176.434L184.411 204.708C184.344 205.911 183.818 207.043 182.943 207.871C182.067 208.699 180.908 209.16 179.703 209.16Z" fill="#E4E4E4"/>
<path d="M185.652 178L185.532 180.1H164.49L164.369 178H185.652Z" fill="#CACACA"/>
<path d="M185.385 182.714L185.27 184.814H164.752L164.636 182.714H185.385Z" fill="#CACACA"/>
<path d="M185.124 187.427L185.003 189.527H165.019L164.898 187.427H185.124Z" fill="#CACACA"/>
<path d="M184.856 192.141L184.736 194.235H165.286L165.165 192.141H184.856Z" fill="#CACACA"/>
<path d="M184.589 196.854L184.474 198.954H165.548L165.433 196.854H184.589Z" fill="#CACACA"/>
<path d="M184.327 201.567L184.207 203.667H165.815L165.694 201.567H184.327Z" fill="#CACACA"/>
<path d="M175.273 173.288C177.153 173.288 178.677 172.936 178.677 172.502C178.677 172.068 177.153 171.716 175.273 171.716C173.393 171.716 171.869 172.068 171.869 172.502C171.869 172.936 173.393 173.288 175.273 173.288Z" fill="#CACACA"/>
<path d="M175.53 173.287C175.322 173.287 175.122 173.204 174.974 173.057C174.827 172.909 174.744 172.709 174.744 172.501V157.624H169.773C169.667 157.628 169.562 157.61 169.464 157.572C169.365 157.535 169.275 157.477 169.199 157.404C169.123 157.331 169.063 157.243 169.022 157.146C168.98 157.049 168.959 156.944 168.959 156.839C168.959 156.733 168.98 156.628 169.022 156.531C169.063 156.434 169.123 156.346 169.199 156.273C169.275 156.2 169.365 156.142 169.464 156.105C169.562 156.067 169.667 156.049 169.773 156.053H175.53C175.633 156.053 175.736 156.073 175.831 156.113C175.926 156.152 176.013 156.21 176.086 156.283C176.159 156.356 176.217 156.443 176.256 156.538C176.296 156.633 176.316 156.736 176.316 156.839V172.503C176.316 172.711 176.233 172.911 176.086 173.059C175.938 173.206 175.738 173.289 175.53 173.289V173.287Z" fill="#CACACA"/>
<path d="M172.843 186.179C171.706 185.247 170.379 184.575 168.955 184.212C167.53 183.848 166.043 183.801 164.599 184.074C163.155 184.347 161.787 184.934 160.594 185.792C159.401 186.651 158.41 187.76 157.692 189.043L122.511 182.776L129.857 199.831L162.139 203.168C164.374 204.229 166.92 204.434 169.296 203.744C171.672 203.054 173.712 201.517 175.031 199.424C176.349 197.33 176.854 194.826 176.451 192.385C176.047 189.944 174.762 187.736 172.839 186.179H172.843Z" fill="#FFB6B6"/>
<path d="M149.968 203.359L85.4911 198.295L85.3621 198.051C85.1161 197.585 60.6861 151.307 57.0911 140.689C54.8545 134.296 54.8718 127.33 57.14 120.948L57.205 120.794L57.3501 120.71C60.3218 119.008 63.7848 118.37 67.168 118.9C70.5512 119.431 73.6527 121.098 75.9611 123.628C87.0403 135.901 95.1154 150.581 99.549 166.509L102.061 175.572L148.191 185.905L149.968 203.359Z" fill="#651991"/>
<path d="M78.1121 32.495C77.5876 32.4955 77.0762 32.331 76.6503 32.0248C76.2245 31.7187 75.9057 31.2863 75.7391 30.789L74.4671 26.997C74.3577 26.6845 74.3114 26.3534 74.331 26.023C74.3506 25.6925 74.4357 25.3692 74.5812 25.0718C74.7268 24.7745 74.9299 24.509 75.1789 24.2907C75.4279 24.0725 75.7177 23.906 76.0316 23.8007C76.3455 23.6954 76.6771 23.6535 77.0073 23.6774C77.3375 23.7014 77.6597 23.7906 77.9551 23.9401C78.2505 24.0895 78.5133 24.2961 78.7283 24.5479C78.9432 24.7997 79.1059 25.0918 79.2071 25.407L80.4791 29.199C80.5836 29.5103 80.6258 29.8391 80.6032 30.1667C80.5806 30.4943 80.4937 30.8142 80.3475 31.1083C80.2012 31.4023 79.9984 31.6646 79.7508 31.8802C79.5031 32.0958 79.2154 32.2605 78.9041 32.365C78.6489 32.4508 78.3814 32.4947 78.1121 32.495Z" fill="#3F3D56"/>
<path d="M81.0161 42.52C80.473 42.5189 79.945 42.341 79.512 42.0132C79.079 41.6854 78.7645 41.2255 78.6161 40.703L77.5221 36.855C77.3408 36.2172 77.4204 35.5334 77.7432 34.9542C78.0661 34.375 78.6058 33.9478 79.2436 33.7665C79.8815 33.5852 80.5652 33.6648 81.1444 33.9876C81.7236 34.3105 82.1508 34.8502 82.3321 35.488L83.4261 39.336C83.5322 39.7084 83.5503 40.1003 83.4791 40.4809C83.4079 40.8614 83.2493 41.2203 83.0157 41.5291C82.7821 41.8379 82.48 42.0882 82.1332 42.2604C81.7864 42.4325 81.4043 42.5217 81.0171 42.521L81.0161 42.52Z" fill="#3F3D56"/>
</svg>
