<svg width="138" height="473" viewBox="0 0 138 473" fill="none" xmlns="http://www.w3.org/2000/svg">
<path d="M40.5689 249.321C41.4283 248.602 42.1195 247.704 42.594 246.689C43.0685 245.674 43.3146 244.567 43.3151 243.447C43.3156 242.326 43.0704 241.219 42.5968 240.204C42.1232 239.189 41.4327 238.29 40.5739 237.57L35.9299 197.399L21.1689 200.819L29.3689 238.899C28.2454 240.42 27.721 242.302 27.8958 244.185C28.0706 246.068 28.9323 247.821 30.3166 249.11C31.701 250.398 33.5111 251.132 35.4019 251.172C37.2927 251.211 39.132 250.554 40.5689 249.324V249.321Z" fill="#FFB6B6"/>
<path d="M39.0481 203.952L21.9591 214.612C21.9591 214.612 20.9191 220.86 19.7441 205.158C19.6211 203.519 20.7651 200.663 20.6441 198.981C20.5021 197.081 15.0661 196.22 14.9231 194.299C14.8231 192.932 16.3931 191.716 16.2911 190.353C16.1371 188.288 15.9851 186.234 15.8351 184.214C15.7101 182.524 13.8351 181.452 13.7171 179.821C13.5991 178.19 15.2251 175.972 15.1101 174.413C14.2491 162.724 17.2271 133.313 17.2271 132.713C16.9969 131.212 16.3699 129.799 15.4111 128.621L16.3231 125.893L15.7231 120.775C14.9306 114.049 16.3446 107.248 19.7521 101.395L24.0921 98.553L44.1171 132.235C35.6901 161.381 30.1891 172.83 39.0561 203.947L39.0481 203.952Z" fill="#651991"/>
<path d="M25.7139 455.089H36.0469L40.9669 415.215H25.7139V455.089Z" fill="#FFB6B6"/>
<path d="M22.3398 448.009L38.8548 447.023V454.099L54.5548 464.943C55.3302 465.478 55.9142 466.248 56.2215 467.139C56.5288 468.03 56.5433 468.995 56.2629 469.895C55.9825 470.795 55.4219 471.581 54.6629 472.14C53.9039 472.698 52.9862 473 52.0438 473H32.3838L28.9948 466L27.6718 473H20.2588L22.3408 448.009H22.3398Z" fill="#2F2E41"/>
<path d="M83.7852 455.089H94.1222L99.0412 415.215H83.7852V455.089Z" fill="#FFB6B6"/>
<path d="M80.4062 448.009L96.9212 447.023V454.099L112.621 464.943C113.397 465.479 113.981 466.248 114.288 467.139C114.595 468.03 114.61 468.996 114.329 469.896C114.049 470.795 113.488 471.582 112.729 472.14C111.969 472.699 111.052 473 110.109 473H90.4512L87.0622 466L85.7392 473H78.3262L80.4082 448.009H80.4062Z" fill="#2F2E41"/>
<path d="M21.3254 420.704H21.3654L23.3534 325.747C22.0668 323.265 21.4138 320.504 21.4526 317.709C21.4913 314.914 22.2206 312.172 23.5754 309.727L23.8604 309.212L23.1224 305.791C22.1746 301.396 22.6095 296.815 24.3674 292.677L26.2224 232.201C19.5964 189.259 51.1744 161.253 51.1744 161.253H98.4744L108.63 196.145C115.344 261.555 114.13 355.42 103.472 417.173L103.762 417.32C104.313 417.627 104.724 418.135 104.91 418.738C105.096 419.34 105.043 419.991 104.762 420.556C104.27 421.982 103.023 422.846 101.977 422.485L76.9954 421.616C76.4449 421.308 76.0339 420.801 75.8477 420.198C75.6615 419.596 75.7144 418.945 75.9954 418.38C76.4874 416.954 77.7344 416.09 78.7804 416.451L80.4804 417.31L78.7274 413.742C77.672 411.594 77.2156 409.201 77.4062 406.815C77.5968 404.429 78.4274 402.138 79.8104 400.185L79.5034 392.331C78.1966 390.801 77.2969 388.965 76.8877 386.995C76.4785 385.025 76.573 382.983 77.1624 381.059L78.8474 375.559L76.8564 324.624L77.2564 313.197L76.4284 300.233L72.5994 241.922L58.1154 313.629L43.3104 421.429C43.6665 421.75 43.9312 422.16 44.0775 422.617C44.2238 423.073 44.2466 423.561 44.1434 424.029C43.9907 424.65 43.6313 425.2 43.1243 425.59C42.6172 425.979 41.9927 426.185 41.3534 426.172H21.2534C20.832 426.172 20.4163 426.074 20.0388 425.887C19.6613 425.699 19.3321 425.427 19.077 425.092C18.8219 424.756 18.6477 424.367 18.568 423.953C18.4882 423.539 18.5052 423.112 18.6174 422.706C18.7866 422.122 19.1435 421.609 19.6329 421.248C20.1223 420.886 20.7171 420.696 21.3254 420.706V420.704Z" fill="#2F2E41"/>
<path d="M136.281 233.712C136.988 232.843 137.495 231.829 137.768 230.743C138.041 229.656 138.073 228.523 137.86 227.423C137.648 226.323 137.197 225.283 136.539 224.377C135.881 223.47 135.032 222.718 134.053 222.175L121.853 183.62L108.011 189.78L123.3 225.605C122.484 227.312 122.326 229.26 122.855 231.077C123.385 232.893 124.564 234.451 126.169 235.454C127.773 236.456 129.691 236.832 131.555 236.511C133.42 236.19 135.101 235.194 136.278 233.712H136.281Z" fill="#FFB6B6"/>
<path d="M89.6888 111.913C89.6888 111.913 103.6 161.141 102.97 166.113C101.67 176.368 37.7468 207.89 32.9928 193.862L33.5928 189.251C31.1928 184.451 45.8438 165.385 46.5548 162.891C47.4548 159.703 43.3668 149.234 43.3668 149.234C43.3668 149.234 46.1948 139.678 45.7438 133.761C45.2928 127.844 43.9198 128.761 38.9158 125.108C33.9118 121.455 25.7158 104.631 25.7158 104.631C25.7158 104.631 29.3558 88.246 29.3558 85.058C29.3558 81.87 44.3098 76.439 46.1258 74.623C46.9163 73.5682 47.5817 72.4252 48.1088 71.217C48.4768 70.481 48.2428 68.773 48.6358 67.928C48.8868 67.376 49.7658 67.719 50.0248 67.15C50.2758 66.598 50.0578 65.962 50.3088 65.418C50.6348 64.698 51.4218 64.071 51.7318 63.393C53.1548 60.28 54.3678 57.744 54.7448 57.744C55.6448 57.744 84.7868 61.844 84.7868 61.844C86.3727 64.2966 88.2006 66.5841 90.2428 68.672C93.4308 71.852 108.352 79.592 108.352 79.592L89.6908 111.91L89.6888 111.913Z" fill="#651991"/>
<path d="M125.437 193.96C123.161 196.236 111.898 206.687 111.437 203.95C110.976 201.213 110.737 200.896 108.915 199.992C107.093 199.088 107.091 198.628 106.639 195.44C106.187 192.252 102.087 189.063 102.547 187.699C103.007 186.335 102.577 188.07 102.577 186.699C102.577 185.328 101.213 180.331 99.3893 179.419C97.5653 178.507 94.8373 177.603 96.2093 175.327C97.5813 173.051 83.3643 104.766 83.3643 104.766L96.1133 79.736L104.757 78.824C104.757 78.824 107.384 80.324 108.207 93.877C108.249 94.563 108.997 95.823 109.029 96.577C109.055 97.2 108.367 97.303 108.386 97.971C108.39 98.1136 108.394 98.2573 108.398 98.402C108.415 99.066 110.209 99.555 110.236 100.196C110.284 101.342 110.989 108.647 111.065 109.721C111.151 110.932 111.251 112.098 111.365 113.221C112.623 125.432 113.073 126.463 113.853 130.361C115.059 136.393 120.061 171.626 120.061 171.626C120.061 171.626 123.701 172.526 123.701 175.718C123.701 178.91 127.716 185.318 125.901 188.954C124.086 192.59 127.717 191.69 125.441 193.967L125.437 193.96Z" fill="#651991"/>
<path d="M63.4855 56.041C75.4088 56.041 85.0745 46.3753 85.0745 34.452C85.0745 22.5288 75.4088 12.863 63.4855 12.863C51.5622 12.863 41.8965 22.5288 41.8965 34.452C41.8965 46.3753 51.5622 56.041 63.4855 56.041Z" fill="#FFB8B8"/>
<path d="M16.9645 79.823C12.3958 78.2037 7.82752 76.5816 3.25952 74.957C4.04701 73.6358 5.04982 72.4555 6.22651 71.465C10.5765 67.833 16.5795 67.177 22.1025 65.951C27.6255 64.725 33.6375 62.214 35.6595 56.928C37.7595 51.428 34.7145 45.498 32.9465 39.897C30.3354 32.0405 30.6525 23.505 33.8395 15.864C35.4672 12.0904 37.9426 8.74257 41.0734 6.08033C44.2042 3.4181 47.9064 1.51304 51.8925 0.512982C59.8925 -1.26402 68.9325 1.63299 73.8505 8.17999C77.02 7.2283 80.4282 7.47029 83.4314 8.86024C86.4347 10.2502 88.8249 12.6918 90.1505 15.724C90.7745 17.1445 91.0523 18.6929 90.961 20.2417C90.8697 21.7905 90.412 23.2956 89.6255 24.633C87.9185 27.215 84.2695 28.533 81.5255 27.101L83.1185 23.058C78.1915 24.73 74.9885 33.639 75.6535 38.803C76.3185 43.967 79.3205 48.474 82.3745 52.684C85.4285 56.894 88.6845 61.147 89.9975 66.184C91.8875 73.422 89.3325 81.333 84.6065 87.136C79.8805 92.939 73.2205 96.877 66.3235 99.774C61.161 101.944 55.7961 103.598 50.3075 104.71C51.2875 102.802 52.2595 100.894 53.2395 98.986L41.6025 106.013C39.3535 106.232 37.0865 106.363 34.8195 106.407C28.2195 106.521 21.4905 105.829 15.4515 103.195C9.41252 100.561 4.09152 95.765 1.90352 89.542C1.20213 87.5294 0.870138 85.4066 0.92352 83.276C6.27085 82.1207 11.6182 80.9683 16.9655 79.819L16.9645 79.823Z" fill="#2F2E41"/>
</svg>
