<svg xmlns="http://www.w3.org/2000/svg" width="705.668" height="485.137" viewBox="0 0 705.668 485.137">
  <g id="undraw_party_re_nmwj" transform="translate(0 0.001)">
    <path id="Path_424" data-name="Path 424" d="M788.568,234.2a367.631,367.631,0,0,1-104.42-15.48A447.285,447.285,0,0,1,584.141,174.7c-51.286-30.258-83.834-62.151-88.695-67.043-18.369,29.122-46.269,52.1-82.937,68.3-29.551,13.057-64.834,21.767-104.868,25.887-68.127,7.014-127.22-1.835-127.809-1.925a.7.7,0,1,1,.213-1.393c.587.09,59.529,8.913,127.481,1.913,62.628-6.451,145.943-28.045,187.2-94.286a.7.7,0,0,1,1.107-.116c.331.345,33.769,34.853,89.063,67.47,51.008,30.088,131.581,64.675,225.768,58.574a.7.7,0,1,1,.091,1.407Q799.7,234.2,788.568,234.2Z" transform="translate(-122.944 -105.819)" fill="#ccc"/>
    <path id="Path_425" data-name="Path 425" d="M287.279,276.3a1.726,1.726,0,0,1-1.567-1.255l-9.058-30.426a1.762,1.762,0,0,1,1.616-2.263h0l18.453-.759a1.762,1.762,0,0,1,1.759,2.269l-9.395,31.185a1.729,1.729,0,0,1-1.69,1.254C287.357,276.3,287.318,276.3,287.279,276.3Z" transform="translate(-151.683 -145.904)" fill="#e6e6e6"/>
    <path id="Path_426" data-name="Path 426" d="M411.189,266.357a1.726,1.726,0,0,1-1.748-.987L395.6,236.8a1.762,1.762,0,0,1,1.231-2.494h0l18.09-3.721a1.762,1.762,0,0,1,2.1,1.956l-4.251,32.291a1.729,1.729,0,0,1-1.466,1.509C411.268,266.348,411.228,266.353,411.189,266.357Z" transform="translate(-186.77 -142.643)" fill="#e6e6e6"/>
    <path id="Path_427" data-name="Path 427" d="M546.661,218.993a1.726,1.726,0,0,1-1.958-.442l-21.474-23.381a1.762,1.762,0,0,1,.461-2.743h0l16.254-8.768a1.762,1.762,0,0,1,2.576,1.268l5.219,32.149a1.729,1.729,0,0,1-.97,1.867C546.733,218.962,546.7,218.978,546.661,218.993Z" transform="translate(-224.364 -128.738)" fill="#e6e6e6"/>
    <path id="Path_428" data-name="Path 428" d="M996.994,317.23a1.726,1.726,0,0,1-1.416-1.423l-5.6-31.249a1.762,1.762,0,0,1,1.859-2.068h0l18.422,1.311a1.762,1.762,0,0,1,1.494,2.451L998.931,316.19a1.729,1.729,0,0,1-1.82,1.057C997.069,317.242,997.033,317.237,996.994,317.23Z" transform="translate(-362.292 -157.976)" fill="#e6e6e6"/>
    <path id="Path_429" data-name="Path 429" d="M859.979,288.043a1.726,1.726,0,0,1-1.065-1.7l1.476-31.711a1.762,1.762,0,0,1,2.272-1.6h0l17.672,5.365a1.762,1.762,0,0,1,.913,2.722L862.1,287.46a1.729,1.729,0,0,1-2.009.627C860.053,288.073,860.016,288.059,859.979,288.043Z" transform="translate(-323.604 -149.257)" fill="#e6e6e6"/>
    <path id="Path_430" data-name="Path 430" d="M753.157,268.635H742.6a3.171,3.171,0,0,1-3.093-3.872l1.956-8.631c-25.1-4.08-43.974-31.493-43.974-63.964,0-35.558,22.605-64.486,50.391-64.486s50.391,28.929,50.391,64.486c0,32.471-18.878,59.884-43.974,63.964l1.956,8.631a3.171,3.171,0,0,1-3.093,3.872Z" transform="translate(-275.947 -112.274)" fill="#ff6584"/>
    <path id="Path_431" data-name="Path 431" d="M774.367,311.614H757.453a2.467,2.467,0,1,1,0-4.933h16.914a2.467,2.467,0,1,1,0,4.933Z" transform="translate(-292.923 -165.12)" fill="#3f3d56"/>
    <path id="Path_432" data-name="Path 432" d="M748.541,309.1a17.461,17.461,0,0,0-15.046,3.232,17.148,17.148,0,0,0-6.248,14.036c.516,11.515,12.109,17.7,20.19,23.9,9.549,7.318,18.513,15.762,24.984,25.985,6.408,10.124,10.427,22.121,9.5,34.2-.805,10.45-5.541,20.811-13.663,27.575a32.342,32.342,0,0,1-3.218,2.344c-1.141.733-.082,2.564,1.067,1.826,8.9-5.72,14.786-15.256,17.016-25.5,2.481-11.4.271-23.263-4.6-33.726-5.065-10.869-13.032-20.11-21.984-27.978-4.44-3.9-9.157-7.445-13.934-10.92-4.2-3.056-8.6-6.346-11.214-10.947a15.25,15.25,0,0,1-.16-14.845,14.95,14.95,0,0,1,12.94-7.609,14.713,14.713,0,0,1,3.818.466,1.058,1.058,0,0,0,.562-2.039Z" transform="translate(-284.728 -165.68)" fill="#3f3d56"/>
    <path id="Path_433" data-name="Path 433" d="M720.382,226.66a4.586,4.586,0,0,1-4.581-4.523,52.333,52.333,0,0,1,0-33.946,4.581,4.581,0,1,1,9.162.059l-.022.121a48.443,48.443,0,0,0,0,33.59l.02.117A4.586,4.586,0,0,1,720.382,226.66Z" transform="translate(-280.519 -128.794)" fill="#fff"/>
    <path id="Path_434" data-name="Path 434" d="M179.949,426.812a3.155,3.155,0,0,1-1.758-2.114l-2.149-8.585c-24.237,7.681-53.453-8.266-68.1-37.244-16.043-31.733-8.921-67.749,15.876-80.285s58.023,3.082,74.066,34.815c14.65,28.978,10.171,61.96-10.385,76.924l5.64,6.82a3.171,3.171,0,0,1-1.013,4.851l-9.425,4.765A3.156,3.156,0,0,1,179.949,426.812Z" transform="translate(-99.363 -161.45)" fill="#ccc"/>
    <path id="Path_435" data-name="Path 435" d="M201.115,466.24a2.47,2.47,0,0,1,1.088-3.314l15.1-7.631a2.467,2.467,0,0,1,2.226,4.4l-15.095,7.632A2.47,2.47,0,0,1,201.115,466.24Z" transform="translate(-129.325 -208.916)" fill="#3f3d56"/>
    <path id="Path_436" data-name="Path 436" d="M226.137,455.519a17.461,17.461,0,0,1,14.886-3.9,17.148,17.148,0,0,1,11.908,9.707c4.735,10.509-2.819,21.263-7.236,30.436-5.22,10.84-9.41,22.419-10.573,34.462-1.151,11.926.675,24.446,6.958,34.809,5.434,8.963,14.335,16.073,24.635,18.444a32.309,32.309,0,0,0,3.929.64c1.349.14,1.23,2.251-.129,2.111-10.523-1.09-20.078-6.944-26.69-15.081-7.356-9.053-10.737-20.639-11.107-32.176-.384-11.985,2.557-23.827,7-34.887,2.2-5.486,4.813-10.775,7.508-16.032,2.37-4.622,4.815-9.545,5.068-14.829a15.25,15.25,0,0,0-6.555-13.32,14.95,14.95,0,0,0-14.981-.953,14.712,14.712,0,0,0-3.2,2.139c-1.025.9-2.447-.67-1.421-1.566Z" transform="translate(-136.686 -207.806)" fill="#3f3d56"/>
    <path id="Path_437" data-name="Path 437" d="M212.112,365.972l-.035-.113a48.443,48.443,0,0,0-15.154-29.978l-.074-.1A4.581,4.581,0,1,1,205,331.6a52.333,52.333,0,0,1,15.315,30.295,4.581,4.581,0,1,1-8.2,4.081Z" transform="translate(-127.994 -171.741)" fill="#fff"/>
    <path id="Path_438" data-name="Path 438" d="M834.824,541.743l-77.057-39.729a4.938,4.938,0,0,1-2.124-6.645l4.767-9.245A4.939,4.939,0,0,1,767.055,484l77.057,39.729a4.939,4.939,0,0,1,2.124,6.645l-4.766,9.245a4.9,4.9,0,0,1-2.884,2.436,4.957,4.957,0,0,1-1.511.237A4.9,4.9,0,0,1,834.824,541.743Z" transform="translate(-292.955 -217.308)" fill="#6c63ff"/>
    <path id="Path_439" data-name="Path 439" d="M830.157,513.288a4.909,4.909,0,0,1,3.8.1l25.253,13.963a12.312,12.312,0,0,1,5.112,16.176l-.316-.154.317.154a12.322,12.322,0,0,1-15.136,6.232L821.8,540.185a4.933,4.933,0,0,1-2.518-6.51l8.143-17.782a4.962,4.962,0,0,1,.524-.912A4.9,4.9,0,0,1,830.157,513.288Z" transform="translate(-311.78 -226.017)" fill="#2f2e41"/>
    <circle id="Ellipse_84" data-name="Ellipse 84" cx="37.719" cy="37.719" r="37.719" transform="translate(538.761 207.567)" fill="#6c63ff"/>
    <path id="Path_440" data-name="Path 440" d="M910.765,748.318v-86.7a4.939,4.939,0,0,1,4.933-4.933h10.4a4.939,4.939,0,0,1,4.933,4.933v86.7a4.939,4.939,0,0,1-4.933,4.933H915.7A4.939,4.939,0,0,1,910.765,748.318Z" transform="translate(-338.913 -268.452)" fill="#6c63ff"/>
    <path id="Path_441" data-name="Path 441" d="M878.765,748.318v-86.7a4.939,4.939,0,0,1,4.933-4.933h10.4a4.939,4.939,0,0,1,4.933,4.933v86.7a4.939,4.939,0,0,1-4.933,4.933H883.7A4.939,4.939,0,0,1,878.765,748.318Z" transform="translate(-329.466 -268.452)" fill="#6c63ff"/>
    <path id="Path_442" data-name="Path 442" d="M914.381,463.64l.039-1.41c-2.622-.073-4.934-.237-6.671-1.507a4.333,4.333,0,0,1-1.678-3.191,2.477,2.477,0,0,1,.813-2.04c1.153-.974,3.009-.659,4.361-.039l1.166.535-2.237-16.344-1.4.191,1.9,13.9a4.976,4.976,0,0,0-4.707.677,3.856,3.856,0,0,0-1.311,3.166,5.732,5.732,0,0,0,2.255,4.28C909.15,463.494,912.05,463.575,914.381,463.64Z" transform="translate(-337.109 -204.375)" fill="#2f2e41"/>
    <rect id="Rectangle_65" data-name="Rectangle 65" width="7.591" height="1.41" transform="translate(557.172 236.661)" fill="#2f2e41"/>
    <rect id="Rectangle_66" data-name="Rectangle 66" width="7.591" height="1.41" transform="translate(581.134 236.661)" fill="#2f2e41"/>
    <path id="Path_443" data-name="Path 443" d="M963.058,645.107,950.013,559.4a4.938,4.938,0,0,1,4.135-5.619l10.284-1.565a4.939,4.939,0,0,1,5.62,4.135L983.1,642.056a4.939,4.939,0,0,1-4.135,5.62l-10.283,1.565a4.929,4.929,0,0,1-5.62-4.135Z" transform="translate(-350.484 -237.591)" fill="#6c63ff"/>
    <path id="Path_444" data-name="Path 444" d="M951.818,586.884a4.909,4.909,0,0,1-2.153-3.135l-3.537-28.638a12.312,12.312,0,0,1,10.086-13.64l.061.347-.061-.347a12.322,12.322,0,0,1,13.935,8.587l8.344,27.785a4.933,4.933,0,0,1-3.788,5.862l-19.173,3.858a4.9,4.9,0,0,1-3.714-.68Z" transform="translate(-349.325 -234.381)" fill="#2f2e41"/>
    <path id="Path_445" data-name="Path 445" d="M910.943,641.926h-100.8a5.991,5.991,0,0,1-5.352-8.682l48.734-96.914a33.488,33.488,0,0,1,63.407,15.044v84.561a6,6,0,0,1-5.99,5.991Z" transform="translate(-307.439 -227.473)" fill="#2f2e41"/>
    <path id="Path_446" data-name="Path 446" d="M902.109,399.081c-7.721,1.724-14.234,6.756-22,8.321-3.538.713-7.434.684-10.683-1.058a11.135,11.135,0,0,1-5.169-6.032,16.647,16.647,0,0,1,2.655-15.745c4.358-5.335,11.306-7.793,17.973-8.486,13.342-1.387,27.045,3.01,37.9,10.668,11.212,7.907,19.814,19.781,22.7,33.294a38.989,38.989,0,0,1-1.243,21.864,27.858,27.858,0,0,1-13.933,15.184,27.34,27.34,0,0,1-4.768,1.776,1.058,1.058,0,0,0,.562,2.039,30.115,30.115,0,0,0,17.455-12.854c4.131-6.607,5.516-14.7,4.88-22.383-1.231-14.87-9.408-28.538-20.839-37.894-10.982-8.989-25.188-14.458-39.472-14.023-7.164.218-14.6,2.036-20.17,6.757a18.971,18.971,0,0,0-6.584,16.764,15.2,15.2,0,0,0,3.337,7.96,13.756,13.756,0,0,0,8.83,4.56c8.446,1.1,15.77-3.688,23.233-6.766a36.128,36.128,0,0,1,5.892-1.906c1.327-.3.766-2.335-.562-2.039Z" transform="translate(-324.292 -184.914)" fill="#2f2e41"/>
    <path id="Path_447" data-name="Path 447" d="M948.178,375.844c-3.033-11.352,4.881-23.167,15.634-26.712a30.718,30.718,0,0,1,18.916.211,37.312,37.312,0,0,1,15.588,10.177c9.426,10.028,13.6,23.562,15.555,36.906,2.017,13.778.879,28.868,7.929,41.388,2.923,5.191,7.261,9.736,12.867,11.971a19.843,19.843,0,0,0,16.5-.615,15.829,15.829,0,0,0,3.316-2.422c.992-.936-.505-2.429-1.495-1.5-4.2,3.959-10.448,4.705-15.841,3.152-5.881-1.694-10.408-6.215-13.392-11.42-3.45-6.019-4.886-12.9-5.67-19.726-.855-7.452-1.185-14.944-2.327-22.366-2.06-13.386-6.511-26.823-15.953-36.868a39.722,39.722,0,0,0-15.7-10.445,33.281,33.281,0,0,0-19.224-.971,26.22,26.22,0,0,0-14.452,9.719,24.441,24.441,0,0,0-4.985,15.883,21.573,21.573,0,0,0,.687,4.2,1.058,1.058,0,0,0,2.039-.562Z" transform="translate(-349.147 -176.619)" fill="#2f2e41"/>
    <path id="Path_448" data-name="Path 448" d="M466.062,561.857l-87.647-5.74a10.543,10.543,0,1,1,1.378-21.041l87.647,5.74a4.938,4.938,0,0,1,4.6,5.25l-.733,11.187a4.938,4.938,0,0,1-4.919,4.615Q466.228,561.867,466.062,561.857Z" transform="translate(-178.838 -232.542)" fill="#6c63ff"/>
    <path id="Path_449" data-name="Path 449" d="M450.4,562.879l-72.075-2.694a4.937,4.937,0,0,1-4.75-5.118l.625-16.71a4.938,4.938,0,0,1,5.118-4.75L451.4,536.3a4.937,4.937,0,0,1,4.75,5.118l-.625,16.71a4.944,4.944,0,0,1-4.932,4.753C450.528,562.882,450.466,562.882,450.4,562.879Z" transform="translate(-180.319 -232.114)" fill="#2f2e41"/>
    <path id="Path_450" data-name="Path 450" d="M356.005,745.485V652.045a4.943,4.943,0,0,1,4.937-4.937h11.212a4.943,4.943,0,0,1,4.937,4.937v93.441a4.943,4.943,0,0,1-4.937,4.937H360.943a4.943,4.943,0,0,1-4.938-4.937Z" transform="translate(-175.132 -265.624)" fill="#2f2e41"/>
    <path id="Path_451" data-name="Path 451" d="M403.409,682.212,354.974,602.3a4.943,4.943,0,0,1,1.663-6.781l9.587-5.811a4.943,4.943,0,0,1,6.782,1.663l48.435,79.908a4.943,4.943,0,0,1-1.663,6.781l-9.587,5.811A4.943,4.943,0,0,1,403.409,682.212Z" transform="translate(-174.617 -248.468)" fill="#2f2e41"/>
    <circle id="Ellipse_85" data-name="Ellipse 85" cx="38.739" cy="38.739" r="38.739" transform="translate(164.1 206.49)" fill="#6c63ff"/>
    <path id="Path_452" data-name="Path 452" d="M414.994,461.966A9.188,9.188,0,0,0,418.349,460a6.178,6.178,0,0,0,1.806-4.891,4.156,4.156,0,0,0-1.848-3.2,5.375,5.375,0,0,0-5.125-.06l.071-15.123-1.519-.007-.084,17.779,1.171-.736c1.357-.852,3.3-1.452,4.665-.574a2.669,2.669,0,0,1,1.156,2.065A4.669,4.669,0,0,1,417.3,458.9c-1.677,1.6-4.125,2.1-6.916,2.551l.241,1.5A25.044,25.044,0,0,0,414.994,461.966Z" transform="translate(-191.186 -203.51)" fill="#2f2e41"/>
    <rect id="Rectangle_67" data-name="Rectangle 67" width="8.182" height="1.519" transform="translate(229.617 233.519) rotate(-7.523)" fill="#2f2e41"/>
    <rect id="Rectangle_68" data-name="Rectangle 68" width="8.182" height="1.519" transform="translate(204.013 236.9) rotate(-7.523)" fill="#2f2e41"/>
    <path id="Path_453" data-name="Path 453" d="M332.113,633.908V557.554a34.966,34.966,0,0,1,34.926-34.926h23.183a6.449,6.449,0,0,1,6.453,6.408l13.676,104.873a6.464,6.464,0,0,1-6.457,6.457H338.569a6.464,6.464,0,0,1-6.456-6.457Z" transform="translate(-168.078 -228.874)" fill="#2f2e41"/>
    <path id="Path_454" data-name="Path 454" d="M262.576,603.592l66.465-57.423a10.543,10.543,0,0,1,13.785,15.956l-66.465,57.423a4.937,4.937,0,0,1-6.964-.508l-7.33-8.484a4.938,4.938,0,0,1,.508-6.964Z" transform="translate(-147.044 -235.066)" fill="#6c63ff"/>
    <path id="Path_455" data-name="Path 455" d="M283.391,581.577l54.578-47.153a4.937,4.937,0,0,1,6.964.508l12.519,14.49a4.937,4.937,0,0,1-.508,6.964L302.366,603.54a4.943,4.943,0,0,1-6.964-.508l-12.52-14.491a4.938,4.938,0,0,1,.508-6.964Z" transform="translate(-153.189 -232.002)" fill="#2f2e41"/>
    <path id="Path_456" data-name="Path 456" d="M367.194,406.3c5.179-4.286,12.1-.232,17.958-.808,5.6-.55,10.113-5.481,11.342-10.787,1.434-6.19-1.674-12.479-6.355-16.444-5.127-4.343-12.011-5.693-18.571-5.032-7.519.757-14.446,4.124-20.682,8.237a92.559,92.559,0,0,0-16.546,13.489c-4.459,4.741-8.269,10.42-9.574,16.889-1.186,5.879-.49,12.431,2.9,17.495a18.386,18.386,0,0,0,7.083,6.064c2.962,1.525,6.132,2.636,9,4.351,4.333,2.593,8.491,7.879,7.016,13.27a7.439,7.439,0,0,1-1.751,3.15c-1,1.07-2.742-.4-1.738-1.474,1.763-1.883,1.743-4.44.867-6.745a12.36,12.36,0,0,0-5.379-6.145c-3-1.791-6.327-2.925-9.405-4.564a20.527,20.527,0,0,1-7.409-6.381c-3.622-5.24-4.607-11.989-3.645-18.2,1.041-6.718,4.618-12.772,9.053-17.819a89.7,89.7,0,0,1,16.721-14.238c6.443-4.434,13.539-8.151,21.337-9.4,6.759-1.079,14.047-.2,19.868,3.586,5.434,3.531,9.538,9.506,9.832,16.1a16.89,16.89,0,0,1-8.168,15,14.509,14.509,0,0,1-8.7,1.843c-3.233-.269-6.453-1.321-9.716-1.108a6.791,6.791,0,0,0-4.032,1.541C367.363,409.106,366.072,407.226,367.194,406.3Z" transform="translate(-165.079 -184.045)" fill="#2f2e41"/>
    <path id="Path_457" data-name="Path 457" d="M429.82,706.844,400.757,751.9a4.943,4.943,0,0,1-6.825,1.473L384.51,747.3a4.938,4.938,0,0,1-1.473-6.825L412.1,695.414a4.943,4.943,0,0,1,6.825-1.473l9.421,6.077a4.9,4.9,0,0,1,2.15,3.108q.028.128.049.257a4.9,4.9,0,0,1-.726,3.461Z" transform="translate(-182.88 -279.218)" fill="#2f2e41"/>
    <path id="Path_458" data-name="Path 458" d="M810.3,793.591H180.945a.7.7,0,1,1,0-1.409H810.3a.7.7,0,1,1,0,1.409Z" transform="translate(-123.241 -308.454)" fill="#3f3d56"/>
    <rect id="Rectangle_69" data-name="Rectangle 69" width="4.229" height="13.391" transform="translate(280.584 208.162)" fill="#f2f2f2"/>
    <rect id="Rectangle_70" data-name="Rectangle 70" width="4.229" height="13.391" transform="translate(348.947 170.105)" fill="#f2f2f2"/>
    <rect id="Rectangle_71" data-name="Rectangle 71" width="4.229" height="13.391" transform="translate(332.553 213.754) rotate(-38.519)" fill="#f2f2f2"/>
    <rect id="Rectangle_72" data-name="Rectangle 72" width="13.391" height="4.229" transform="translate(309.237 263.292) rotate(-60)" fill="#f2f2f2"/>
    <rect id="Rectangle_73" data-name="Rectangle 73" width="13.391" height="4.229" transform="translate(290.207 132.91) rotate(-60)" fill="#f2f2f2"/>
    <rect id="Rectangle_74" data-name="Rectangle 74" width="4.229" height="13.391" transform="translate(401.805 349.821)" fill="#f2f2f2"/>
    <rect id="Rectangle_75" data-name="Rectangle 75" width="4.229" height="13.391" transform="translate(470.168 311.763)" fill="#f2f2f2"/>
    <rect id="Rectangle_76" data-name="Rectangle 76" width="4.229" height="13.391" transform="translate(453.774 355.412) rotate(-38.519)" fill="#f2f2f2"/>
    <rect id="Rectangle_77" data-name="Rectangle 77" width="13.391" height="4.229" transform="translate(430.458 404.951) rotate(-60)" fill="#f2f2f2"/>
    <rect id="Rectangle_78" data-name="Rectangle 78" width="13.391" height="4.229" transform="translate(411.428 274.568) rotate(-60)" fill="#f2f2f2"/>
    <path id="Path_459" data-name="Path 459" d="M377.465,390.538l-6.87-4.082-5.454-3.246-7.909-4.7-5.461-3.242-7.423-4.419a.8.8,0,0,0-1.206.676l-.076,6.282L343,382.661l-.09,7.037-.055,4.858-.09,7.037-.059,4.851-.046,3.605a.74.74,0,0,0,.1.4.832.832,0,0,0,.284.3.792.792,0,0,0,.8.009l33.612-18.842a.75.75,0,0,0,.393-.566.6.6,0,0,0,.016-.118.832.832,0,0,0-.1-.4A.74.74,0,0,0,377.465,390.538Z" transform="translate(-171.192 -184.031)" fill="#ccc"/>
    <path id="Path_460" data-name="Path 460" d="M258.012,274.587l-14.23,4.152.065-4.855,8.705-2.539Z" transform="translate(-71.972 -80.109)" fill="#3f3d56"/>
    <path id="Path_461" data-name="Path 461" d="M271.314,285.862l-27.739,8.1.055-4.858,22.231-6.487Z" transform="translate(-71.911 -83.437)" fill="#3f3d56"/>
    <path id="Path_462" data-name="Path 462" d="M377.865,399.979a.75.75,0,0,1-.393.566l-16.342,9.161-18.4,5.371.059-4.851Z" transform="translate(-171.212 -192.664)" fill="#3f3d56"/>
    <circle id="Ellipse_86" data-name="Ellipse 86" cx="6.356" cy="6.356" r="6.356" transform="translate(164.45 177.68)" fill="#ccc"/>
  </g>
</svg>
