<svg xmlns="http://www.w3.org/2000/svg" width="170.911" height="378.072" viewBox="0 0 170.911 378.072">
  <g id="undraw_operating_system_re_iqsc" transform="translate(0 -104.58)">
    <path id="Path_332" data-name="Path 332" d="M80.937,471.2H93.2l5.832-47.288H80.935Z" fill="#ffb8b8"/>
    <path id="Path_333" data-name="Path 333" d="M221.7,676.369h38.531v14.887H236.59A14.887,14.887,0,0,1,221.7,676.369h0Z" transform="translate(338.575 1158.94) rotate(179.997)" fill="#2f2e41"/>
    <path id="Path_334" data-name="Path 334" d="M34.937,471.2H47.2l5.832-47.288H34.935Z" fill="#ffb8b8"/>
    <path id="Path_335" data-name="Path 335" d="M175.7,676.369h38.531v14.887H190.59A14.887,14.887,0,0,1,175.7,676.369h0Z" transform="translate(246.575 1158.942) rotate(179.997)" fill="#2f2e41"/>
    <path id="Path_336" data-name="Path 336" d="M179.827,539.034a10.743,10.743,0,0,0,2.062-16.343l8.072-114.558-23.253,2.255-.639,112.187a10.8,10.8,0,0,0,13.757,16.459Z" transform="translate(-143.393 -208.674)" fill="#ffb8b8"/>
    <path id="Path_337" data-name="Path 337" d="M224.7,656.055a4.517,4.517,0,0,1-4.469-3.966l-7.126-59.6a3.5,3.5,0,0,0-6.933-.128l-8.977,57.067a4.479,4.479,0,0,1-4.445,3.8h-14.55a4.5,4.5,0,0,1-4.5-4.534l6.944-126.534a4.474,4.474,0,0,1,3.854-4.42l53.994-7.838a4.5,4.5,0,0,1,5.146,4.485l-.942,136.557a4.5,4.5,0,0,1-4.286,4.463l-13.5.644Q224.8,656.055,224.7,656.055Z" transform="translate(-143.393 -208.674)" fill="#2f2e41"/>
    <path id="Path_338" data-name="Path 338" d="M196.7,526.939a45.086,45.086,0,0,1-15.226-2.711,4.466,4.466,0,0,1-2.918-4c-.466-10.337-3.191-63.544-11.124-96a33.178,33.178,0,0,1,12.637-34.573q.64-.46,1.305-.9a32.306,32.306,0,0,1,31.4-2.461,33.219,33.219,0,0,1,19.363,25.957l12.938,96.051a4.478,4.478,0,0,1-.931,3.4,4.418,4.418,0,0,1-3.053,1.673c-4.483.447-13.78,2.185-25.68,8.8A38.125,38.125,0,0,1,196.7,526.939Z" transform="translate(-143.393 -208.674)" fill="#3f3d56"/>
    <path id="Path_339" data-name="Path 339" d="M180.886,447.321,159.6,441.548a4.505,4.505,0,0,1-3.166-5.521l7.485-27.6a12.4,12.4,0,0,1,24.346,3.927l-1.7,30.876a4.5,4.5,0,0,1-5.671,4.1Z" transform="translate(-143.393 -208.674)" fill="#3f3d56"/>
    <circle id="Ellipse_58" data-name="Ellipse 58" cx="24.561" cy="24.561" r="24.561" transform="translate(36.632 115.449)" fill="#ffb8b8"/>
    <path id="Path_340" data-name="Path 340" d="M293.59,396.939a10.523,10.523,0,0,0-.239,1.64l-42.958,24.782-10.441-6.011-11.131,14.572,22.337,15.921,49.008-38.663a10.5,10.5,0,1,0-6.576-12.241Z" transform="translate(-143.393 -208.674)" fill="#ffb8b8"/>
    <path id="Path_341" data-name="Path 341" d="M246.833,424.557l-18.5,12.009a4.505,4.505,0,0,1-6.224-1.325l-15.57-23.992A12.4,12.4,0,0,1,225.7,395.732L247.565,417.6a4.5,4.5,0,0,1-.733,6.957Z" transform="translate(-143.393 -208.674)" fill="#3f3d56"/>
    <path id="Path_342" data-name="Path 342" d="M187.206,368.116c4.582,4.881,13.091,2.261,13.688-4.407a8.054,8.054,0,0,0-.01-1.556c-.308-2.954-2.015-5.635-1.606-8.754a4.591,4.591,0,0,1,.84-2.149c3.651-4.889,12.222,2.187,15.668-2.239,2.113-2.714-.371-6.987,1.251-10.021,2.14-4,8.479-2.029,12.454-4.221,4.423-2.439,4.158-9.225,1.247-13.353-3.551-5.034-9.776-7.72-15.923-8.107s-12.253,1.275-17.992,3.511c-6.521,2.541-12.988,6.053-17,11.788-4.88,6.973-5.35,16.348-2.909,24.5C178.4,358.071,183.464,364.13,187.206,368.116Z" transform="translate(-143.393 -208.674)" fill="#2f2e41"/>
    <path id="Path_343" data-name="Path 343" d="M284.393,691.326h-140a1,1,0,1,1,0-2h140a1,1,0,0,1,0,2Z" transform="translate(-143.393 -208.674)" fill="#3f3d56"/>
  </g>
</svg>
