<svg width="72" height="72" viewBox="0 0 72 72" fill="none" xmlns="http://www.w3.org/2000/svg">
<path d="M36 72C55.8823 72 72 55.8823 72 36C72 16.1177 55.8823 0 36 0C16.1177 0 0 16.1177 0 36C0 55.8823 16.1177 72 36 72Z" fill="#2A5D9E"/>
<path d="M36 71C55.33 71 71 55.33 71 36C71 16.67 55.33 1 36 1C16.67 1 1 16.67 1 36C1 55.33 16.67 71 36 71Z" stroke="#2E268E" stroke-width="2"/>
<path d="M15.6392 22.478V33.584H26.7452" stroke="#4EB6D2" stroke-width="6" stroke-linecap="round" stroke-linejoin="round"/>
<path d="M56.3604 52.094V40.988H45.2544" stroke="#4EB6D2" stroke-width="6" stroke-linecap="round" stroke-linejoin="round"/>
<path d="M56.3602 40.984L47.7722 49.054C45.7831 51.0446 43.3223 52.4989 40.6192 53.2811C37.9161 54.0634 35.0589 54.1481 32.3142 53.5274C29.5695 52.9067 27.0267 51.6008 24.9233 49.7316C22.8198 47.8624 21.2241 45.4907 20.2852 42.838M51.7142 31.728C50.775 29.0754 49.1791 26.704 47.0756 24.835C44.972 22.9659 42.4292 21.6603 39.6845 21.0398C36.9399 20.4193 34.0827 20.5042 31.3798 21.2866C28.6768 22.069 26.216 23.5234 24.2272 25.514L15.6392 33.584L51.7142 31.728Z" stroke="#4EB6D2" stroke-width="6" stroke-linecap="round" stroke-linejoin="round"/>
</svg>
