<svg width="165" height="505" viewBox="0 0 165 505" fill="none" xmlns="http://www.w3.org/2000/svg">
<path d="M86.487 67.184C86.487 67.184 83.813 76.9839 89.1609 80.5529C94.5089 84.1219 96.291 101.053 96.291 101.053L85.591 130.464L57.071 135.812L46.371 115.312V85.012C46.371 85.012 49.936 69.861 49.045 65.404C48.154 60.947 86.487 67.184 86.487 67.184Z" fill="#FFB9B9"/>
<path opacity="0.2" d="M86.487 67.184C86.487 67.184 83.813 76.9839 89.1609 80.5529C94.5089 84.1219 96.291 101.053 96.291 101.053L85.591 130.464L57.071 135.812L46.371 115.312V85.012C46.371 85.012 49.936 69.861 49.045 65.404C48.154 60.947 86.487 67.184 86.487 67.184Z" fill="black"/>
<path d="M115.007 235.631L138.18 240.087C138.18 240.087 139.963 265.933 138.18 272.172C136.397 278.411 134.615 285.541 136.397 287.323C138.179 289.105 128.376 334.56 129.267 337.233C130.158 339.906 131.941 347.933 131.05 353.276C130.159 358.619 127.485 356.841 129.267 362.189C131.049 367.537 132.832 368.428 131.05 371.989C129.268 375.55 120.35 462.006 117.681 462.897C115.012 463.788 90.943 464.68 90.943 462.897C90.943 461.114 98.9639 447.746 96.2909 444.181C93.6179 440.616 97.182 380.011 97.182 377.337C97.182 374.663 102.53 370.207 99.8559 368.424C97.1819 366.641 95.3999 364.859 96.2909 362.185C97.1819 359.511 98.965 358.62 97.182 355.946C95.399 353.272 95.3989 299.797 89.1609 298.014C89.1609 298.014 81.1399 337.229 83.8129 347.033C86.4859 356.837 82.922 360.402 82.922 360.402L95.4 371.102L78.466 403.187L60.6409 382.687C60.6409 382.687 60.6409 377.339 57.0759 376.448C53.5109 375.557 51.728 374.665 51.728 371.992C51.728 369.319 45.4889 352.384 45.4889 352.384C45.4889 352.384 27.6639 296.235 36.5759 267.715C45.4879 239.195 48.922 240.139 48.922 240.139L115.007 235.631Z" fill="#2F2E41"/>
<path d="M129.267 420.121L139.067 430.816L135.502 460.228H127.48L115.007 432.599L129.267 420.121Z" fill="#FFB9B9"/>
<path d="M135.506 439.729C135.506 439.729 131.941 447.75 129.267 445.968C126.593 444.186 125.707 441.512 121.694 441.512C117.681 441.512 114.116 442.403 115.007 444.186C115.898 445.969 126.593 465.576 126.593 465.576C128.162 468.923 128.976 472.574 128.976 476.271C128.976 479.968 128.162 483.619 126.593 486.966C121.245 498.552 140.853 504.791 144.418 492.314C147.983 479.837 148.874 465.576 147.983 460.229C147.092 454.882 152.439 427.252 152.439 427.252C152.439 427.252 138.039 420.614 133.654 420.368C133.654 420.368 137.288 436.164 135.506 439.729Z" fill="#2F2E41"/>
<path d="M111.442 459.337L115.007 470.037C115.007 470.037 115.007 480.737 118.572 486.08C122.137 491.423 125.702 503.014 111.442 503.905C97.182 504.796 90.942 499.449 90.942 499.449C90.942 499.449 93.616 492.319 90.942 489.649C88.268 486.979 90.942 481.628 90.942 481.628L93.616 460.238L111.442 459.337Z" fill="#2F2E41"/>
<path d="M87.378 370.211H95.399L135.506 422.795C135.506 422.795 128.376 439.729 117.681 441.511C117.681 441.511 115.898 440.62 107.881 435.272C99.864 429.924 78.47 403.187 78.47 403.187L75.796 388.036L87.378 370.211Z" fill="#2F2E41"/>
<path d="M67.77 78.77C83.5212 78.77 96.29 66.0011 96.29 50.25C96.29 34.4988 83.5212 21.73 67.77 21.73C52.0188 21.73 39.25 34.4988 39.25 50.25C39.25 66.0011 52.0188 78.77 67.77 78.77Z" fill="#FFB9B9"/>
<path d="M102.529 86.7921L93.616 83.2271C93.616 83.2271 92.725 114.421 75.791 114.421C58.857 114.421 41.032 109.965 41.032 101.052C41.032 92.1391 26.772 117.095 26.772 117.095C26.772 117.095 40.141 206.22 39.25 207.111C38.359 208.002 49.05 255.239 49.05 255.239C49.05 255.239 94.504 257.022 109.655 250.783C124.806 244.544 129.263 232.958 129.263 232.958L123.024 154.528L110.546 93.923L102.529 86.7921Z" fill="#13B3F2"/>
<path d="M87.3831 78.77C87.3831 78.77 90.943 75.205 96.29 78.77C101.637 82.335 134.614 90.356 134.614 93.03V126.901C134.614 126.901 135.505 132.249 132.831 135.814C130.157 139.379 123.918 152.748 127.483 158.987C131.048 165.226 144.417 237.418 141.743 246.33C139.069 255.242 131.943 263.264 131.943 263.264C131.943 263.264 93.6171 182.156 93.6171 158.983C93.6171 135.81 93.989 107.383 93.989 107.383L87.3831 78.77Z" fill="#651991"/>
<path d="M126.593 93.922H134.617C134.617 93.922 164.917 151.854 164.917 163.44C164.917 175.026 145.309 239.197 143.527 240.088C141.745 240.979 136.397 230.288 136.397 230.288L131.941 194.638C131.941 194.638 140.854 173.248 138.18 169.683C135.506 166.118 122.137 138.489 122.137 138.489L126.593 93.922Z" fill="#651991"/>
<path d="M47.698 78.77C47.698 78.77 37.467 85.9 35.685 88.57C33.903 91.24 7.16503 106.395 6.27403 109.96C5.38303 113.525 26.774 143.828 26.774 143.828C26.774 143.828 35.687 193.738 35.687 197.303C35.687 200.868 39.252 261.473 39.252 261.473C39.252 261.473 75.793 272.173 75.793 265.929C75.793 259.685 76.6841 170.565 71.3371 150.957C65.9901 131.349 47.698 78.77 47.698 78.77Z" fill="#651991"/>
<path d="M53.51 263.26C53.51 263.26 83.81 304.26 67.77 303.367C51.73 302.474 41.032 267.717 41.032 267.717L53.51 263.26Z" fill="#FFB9B9"/>
<path d="M16.969 107.291L6.26899 109.965C6.26899 109.965 -2.64401 188.396 2.70399 199.091C8.05199 209.786 36.577 279.301 36.577 276.63C36.577 273.959 61.666 269.19 60.708 266.671C59.75 264.152 54.402 253.457 52.62 249.892C50.838 246.327 48.164 241.871 49.055 237.414C49.946 232.957 39.255 213.883 39.255 213.883C39.255 213.883 36.581 202.655 35.69 197.307C34.799 191.959 26.777 133.137 26.777 133.137L16.969 107.291Z" fill="#651991"/>
<path d="M95.734 28.172C95.1891 26.4949 94.0385 25.0812 92.507 24.207C92.5872 22.4363 92.3567 20.6652 91.826 18.974C90.051 14.034 85.845 14.317 81.877 12.133C80.155 11.185 80.262 10.348 79.366 8.79198C78.163 6.72384 76.4041 5.03453 74.289 3.91598C71.743 2.38898 69.0561 0.815985 66.0441 0.623985C59.7151 0.217985 54.863 5.82399 48.813 7.62399C46.147 8.41699 43.282 8.44897 40.601 9.19897C37.92 9.94897 35.246 11.737 34.847 14.342C34.663 15.542 34.988 16.778 34.801 17.98C34.429 20.369 32.201 22.043 30.711 24.008C27.411 28.354 27.791 34.494 30.428 39.223C30.986 40.2053 31.6213 41.1416 32.328 42.023C32.5513 44.2713 33.2344 46.4497 34.335 48.423C36.972 53.152 41.509 56.685 46.248 59.623C45.8613 58.0576 45.6269 56.4585 45.548 54.848C45.4814 54.3108 45.5558 53.7656 45.764 53.266C46.292 52.227 47.687 51.951 48.75 51.383C50.95 50.205 51.8161 47.598 51.8801 45.214C51.944 42.83 51.407 40.443 51.672 38.071C51.6863 37.5182 51.8206 36.9751 52.0656 36.4793C52.3106 35.9836 52.6605 35.547 53.091 35.2C53.9124 34.7618 54.8372 34.5544 55.767 34.6C60.28 34.427 64.995 34.349 68.976 32.34C70.2677 31.5339 71.6469 30.8773 73.0871 30.383C76.4701 29.553 79.927 31.783 81.877 34.516C83.827 37.249 84.799 40.498 86.597 43.316C88.395 46.134 91.503 48.654 94.981 48.316C95.1746 48.3175 95.3666 48.2798 95.5452 48.205C95.7237 48.1302 95.8853 48.02 96.02 47.881C96.169 47.63 96.2358 47.3388 96.211 47.048L96.405 34.535C96.5664 32.3919 96.3394 30.2374 95.735 28.175L95.734 28.172Z" fill="#2F2E41"/>
</svg>
