<svg width="255" height="421" viewBox="0 0 255 421" fill="none" xmlns="http://www.w3.org/2000/svg">
<path d="M168.035 129.028C191.241 115.456 222.164 112.62 244.517 127.555C216.611 136.267 192.685 154.569 176.973 179.223C170.948 188.753 165.239 199.98 154.539 203.534C147.881 205.746 140.451 204.382 134.129 201.34C127.808 198.297 122.388 193.7 117.045 189.153L115.339 188.759C128.25 165.179 144.829 142.6 168.035 129.028Z" fill="#2A5D9E"/>
<path d="M244.27 128.062C222.082 126.378 199.927 131.729 180.953 143.354C176.824 145.784 173.104 148.85 169.93 152.439C166.95 156.034 164.988 160.362 164.247 164.972C163.47 169.257 163.171 173.73 161.365 177.752C160.411 179.796 159.035 181.616 157.327 183.092C155.62 184.567 153.62 185.665 151.459 186.314C146.115 188.069 140.459 187.8 134.937 187.345C128.807 186.84 122.447 186.217 116.576 188.499C115.865 188.776 115.478 187.656 116.188 187.38C126.401 183.41 137.356 187.893 147.845 186.004C152.739 185.123 157.397 182.761 159.811 178.232C161.922 174.271 162.234 169.659 162.984 165.314C163.641 160.806 165.392 156.527 168.083 152.851C171.065 149.113 174.661 145.909 178.717 143.377C187.759 137.53 197.663 133.142 208.068 130.372C219.925 127.146 232.247 125.971 244.5 126.899C245.258 126.957 245.024 128.119 244.27 128.062L244.27 128.062Z" fill="#2E268E"/>
<path d="M186.843 139.251C185.324 135.803 185.081 131.928 186.157 128.317C187.232 124.706 189.556 121.595 192.714 119.539C193.354 119.126 194.027 120.101 193.386 120.515C190.442 122.424 188.277 125.322 187.283 128.687C186.288 132.051 186.529 135.661 187.962 138.863C188.272 139.559 187.151 139.944 186.843 139.251H186.843Z" fill="#2E268E"/>
<path d="M164.355 162.748C171.509 165.602 179.475 165.654 186.666 162.896C187.378 162.622 187.766 163.741 187.054 164.015C179.566 166.872 171.276 166.8 163.838 163.814C163.129 163.529 163.65 162.464 164.355 162.748V162.748Z" fill="#2E268E"/>
<path d="M219.701 128.701C220.01 130.157 220.677 131.514 221.64 132.649C222.604 133.785 223.834 134.663 225.221 135.206C225.933 135.482 225.411 136.546 224.704 136.272C223.175 135.665 221.817 134.694 220.75 133.442C219.683 132.19 218.938 130.695 218.582 129.089C218.535 128.94 218.547 128.78 218.615 128.64C218.683 128.5 218.802 128.391 218.947 128.335C219.096 128.284 219.258 128.294 219.399 128.363C219.54 128.431 219.649 128.553 219.701 128.701V128.701Z" fill="#2E268E"/>
<path d="M253.784 218.104C253.334 217.945 252.885 217.785 252.427 217.631C246.373 215.515 240.157 213.895 233.841 212.786C233.354 212.693 232.859 212.605 232.37 212.526C217.124 210.017 201.545 210.36 186.424 213.537C180.408 214.808 174.497 216.533 168.743 218.7C160.797 221.693 152.42 225.571 144.191 225.758C143.333 225.787 142.473 225.763 141.618 225.686L114.99 190.872C114.97 190.762 114.941 190.658 114.92 190.549L113.793 189.207C114.082 189.075 114.384 188.944 114.673 188.811C114.841 188.733 115.014 188.664 115.181 188.586C115.294 188.537 115.408 188.488 115.508 188.437C115.545 188.421 115.583 188.404 115.613 188.394C115.713 188.343 115.811 188.306 115.902 188.262C117.591 187.524 119.288 186.796 120.994 186.079C121.002 186.073 121.002 186.073 121.016 186.075C134.023 180.646 147.598 176.256 161.408 174.065C161.824 174 162.247 173.927 162.674 173.878C168.905 172.925 175.203 172.483 181.505 172.556C184.956 172.607 188.402 172.833 191.83 173.233C200.685 174.282 209.32 176.718 217.419 180.452C233.562 187.896 247.144 200.42 253.324 216.845C253.482 217.265 253.634 217.678 253.784 218.104Z" fill="#2A5D9E"/>
<path d="M253.282 218.364C236.579 203.661 215.668 194.595 193.52 192.453C188.76 191.907 183.944 192.115 179.248 193.069C174.705 194.147 170.532 196.421 167.165 199.656C163.965 202.609 161.033 206 157.17 208.124C155.177 209.182 152.982 209.806 150.731 209.957C148.479 210.107 146.221 209.78 144.105 208.996C138.782 207.181 134.428 203.561 130.293 199.873C125.702 195.778 120.999 191.452 114.938 189.739C114.204 189.532 114.569 188.404 115.302 188.612C125.846 191.591 131.894 201.766 141.406 206.573C145.844 208.816 150.986 209.735 155.64 207.572C159.71 205.68 162.736 202.186 165.951 199.168C169.19 195.964 173.164 193.601 177.526 192.287C182.157 191.097 186.957 190.704 191.721 191.125C202.46 191.9 213.01 194.36 222.985 198.413C234.395 202.975 244.94 209.456 254.165 217.574C254.736 218.077 253.849 218.863 253.282 218.364H253.282Z" fill="#2E268E"/>
<path d="M200.692 192.723C201.556 189.056 203.695 185.815 206.728 183.579C209.761 181.344 213.489 180.259 217.248 180.519C217.401 180.531 217.544 180.602 217.646 180.717C217.748 180.832 217.801 180.982 217.794 181.135C217.788 181.289 217.722 181.434 217.61 181.54C217.499 181.646 217.351 181.704 217.197 181.703C213.697 181.454 210.224 182.465 207.404 184.553C204.585 186.64 202.604 189.667 201.82 193.087C201.649 193.83 200.522 193.462 200.692 192.723V192.723Z" fill="#2E268E"/>
<path d="M168.591 197.945C172.584 204.53 178.913 209.369 186.316 211.495C187.049 211.705 186.684 212.832 185.952 212.623C178.253 210.395 171.677 205.347 167.536 198.485C167.142 197.83 168.198 197.294 168.591 197.945V197.945Z" fill="#2E268E"/>
<path d="M233.28 204.082C232.65 205.431 232.365 206.916 232.451 208.402C232.537 209.889 232.99 211.331 233.771 212.599C234.173 213.248 233.116 213.784 232.716 213.139C231.86 211.734 231.361 210.141 231.263 208.499C231.165 206.856 231.47 205.215 232.152 203.718C232.205 203.572 232.311 203.451 232.45 203.38C232.588 203.309 232.749 203.293 232.898 203.336C233.047 203.385 233.171 203.491 233.242 203.63C233.314 203.77 233.327 203.932 233.28 204.082V204.082Z" fill="#2E268E"/>
<path d="M15.3813 76.2602C16.8363 76.0505 18.3197 76.1624 19.7268 76.5881C21.1339 77.0137 22.4306 77.7427 23.5255 78.7237C24.6204 79.7046 25.4869 80.9138 26.064 82.2659C26.6411 83.618 26.9147 85.0801 26.8655 86.5494L60.2151 99.3862L45.1056 110.181L15.7527 96.3364C13.2899 96.0902 11.0029 94.9492 9.32519 93.1295C7.64745 91.3098 6.6955 88.9379 6.64971 86.4633C6.60392 83.9886 7.46751 81.5831 9.07677 79.7026C10.686 77.8221 12.9292 76.5973 15.3812 76.2602H15.3813Z" fill="#FFB6B6"/>
<path d="M142.01 69.9586L147.652 80.2164C146.288 86.7224 142.765 92.5761 137.653 96.8257C129.015 104.111 83.8492 131.244 83.8492 131.244L26.8294 102.618L36.8042 89.3634L81.5702 104.366L106.824 80.5186L142.01 69.9586Z" fill="#3F3D56"/>
<path d="M147.191 230.808L141.295 231.919L176.847 420.599L182.743 419.488L147.191 230.808Z" fill="#CACACA"/>
<path d="M88.5038 419.488L94.4001 420.599L129.952 231.919L124.056 230.808L88.5038 419.488Z" fill="#CACACA"/>
<path d="M131.519 239.697C156.095 239.697 176.019 233.206 176.019 225.197C176.019 217.189 156.095 210.697 131.519 210.697C106.942 210.697 87.0188 217.189 87.0188 225.197C87.0188 233.206 106.942 239.697 131.519 239.697Z" fill="#2A5D9E"/>
<path d="M37.004 408.715L24.744 408.714L18.912 361.426L37.006 361.427L37.004 408.715Z" fill="#FFB6B6"/>
<path d="M40.1302 420.599L0.599457 420.597V420.097C0.599741 416.017 2.22094 412.103 5.10641 409.218C7.99189 406.332 11.9054 404.711 15.986 404.711H15.987L40.131 404.712L40.1302 420.599Z" fill="#2F2E41"/>
<path d="M96.518 344.373L85.809 350.342L57.689 311.878L73.494 303.068L96.518 344.373Z" fill="#FFB6B6"/>
<path d="M105.035 353.23L70.5065 372.477L70.263 372.041C68.2763 368.476 67.7868 364.269 68.9021 360.344C70.0174 356.418 72.6463 353.097 76.2104 351.11L76.2112 351.109L97.3002 339.354L105.035 353.23Z" fill="#2F2E41"/>
<path d="M166.151 189.746C166.151 189.746 172.096 208.164 135.623 231.455L88.6513 278.261L39.8446 395.01L10.8689 382.02L55.4284 263.078L81.4859 217.454L82.2419 192.697L88.6513 175.246L135.151 158.746L166.151 189.746Z" fill="#2F2E41"/>
<path d="M70.7805 343.608L22.3008 270.516C20.0745 267.153 19.0888 263.119 19.5131 259.108C19.9374 255.097 21.7451 251.359 24.6258 248.536L73.7122 200.52L82.035 192.197H100.659L91.9261 224.419L61.6292 258.761L96.6534 320.739L70.7805 343.608Z" fill="#2F2E41"/>
<path d="M106.411 89.6034L121.019 68.6974L154.398 66.0121C154.398 66.0121 183.093 93.0478 177.872 128.647C172.651 164.246 167.651 199.246 167.651 199.246C167.651 199.246 115.651 162.246 88.6513 175.246L106.411 89.6034Z" fill="#3F3D56"/>
<path d="M96.4935 198.671C96.7524 197.223 97.3254 195.851 98.1722 194.649C99.0191 193.447 100.119 192.446 101.395 191.715C102.67 190.985 104.091 190.543 105.556 190.421C107.021 190.298 108.495 190.499 109.874 191.008L132.553 163.392L138.045 181.131L115.667 204.636C114.658 206.896 112.855 208.708 110.6 209.728C108.345 210.747 105.794 210.905 103.43 210.169C101.067 209.434 99.0556 207.857 97.7771 205.738C96.4986 203.619 96.0418 201.104 96.4935 198.671V198.671Z" fill="#FFB6B6"/>
<path d="M125.045 196.876L115.056 182.448L143.421 144.629L128.809 113.318L129.873 76.0739L141.947 73.8434L142.097 73.9186C147.967 77.2976 152.505 82.5831 154.957 88.8972C157.969 96.4274 164.693 124.696 168.433 140.876C169.168 144.011 169.088 147.282 168.2 150.378C167.312 153.474 165.646 156.29 163.362 158.56L125.045 196.876Z" fill="#3F3D56"/>
<path d="M150.509 50.4003C157.009 39.4652 153.414 25.3311 142.479 18.8309C131.544 12.3306 117.41 15.9258 110.91 26.8608C104.409 37.7958 108.005 51.9299 118.94 58.4301C129.875 64.9304 144.009 61.3353 150.509 50.4003Z" fill="#FFB6B6"/>
<path d="M145.436 30.3601C145.192 33.7047 148.329 46.0377 148.329 46.0377C150.628 42.1702 147.017 55.0232 147.017 55.0232C184.747 28.7227 154.934 2.2997 143.273 4.64853C143.516 1.30387 134.005 2.62887 134.005 2.62887C130.381 -3.01481 122.438 4.47668 122.438 4.47668L123.971 1.89834C117.804 3.46683 111.71 22.5249 111.71 22.5249C113.801 30.7469 145.679 27.0155 145.436 30.3601Z" fill="#2F2E41"/>
</svg>
