<svg width="206" height="139" viewBox="0 0 206 139" fill="none" xmlns="http://www.w3.org/2000/svg">
<path d="M205.559 10.819V95.206C205.559 98.0754 204.419 100.827 202.39 102.856C200.361 104.885 197.609 106.025 194.74 106.025L41.1111 106.025C38.2417 106.025 35.4898 104.885 33.4609 102.856C31.4319 100.827 30.2921 98.0754 30.2921 95.206V10.819C30.2921 7.94962 31.4319 5.19777 33.4609 3.16881C35.4898 1.13986 38.2417 0 41.1111 0L194.74 0C197.609 0 200.361 1.13986 202.39 3.16881C204.419 5.19777 205.559 7.94962 205.559 10.819V10.819Z" fill="#FF9800" fill-opacity="0.51"/>
<path d="M192.576 25.965V110.352C192.576 113.221 191.436 115.973 189.407 118.002C187.378 120.031 184.627 121.171 181.757 121.171L27.0472 121.171C24.1778 121.171 21.4259 120.031 19.397 118.002C17.368 115.973 16.2282 113.221 16.2282 110.352V25.965C16.2282 23.0956 17.368 20.3438 19.397 18.3148C21.4259 16.2859 24.1778 15.146 27.0472 15.146L181.757 15.146C184.627 15.146 187.378 16.2859 189.407 18.3148C191.436 20.3438 192.576 23.0956 192.576 25.965V25.965Z" fill="#FF9800" fill-opacity="0.51"/>
<path d="M175 129V41C175 35.4772 170.523 31 165 31L10 31C4.47716 31 0 35.4772 0 41V129C0 134.523 4.47716 139 10 139H165C170.523 139 175 134.523 175 129Z" fill="#FF9800" fill-opacity="0.24"/>
<path d="M20.7 75.1V81.975H29.75V83.575H20.7V91H18.85V73.5H30.85V75.1H20.7ZM34.2953 72.45H36.0703V91H34.2953V72.45ZM45.6092 77.75C47.3258 77.75 48.6425 78.1833 49.5592 79.05C50.4758 79.9 50.9342 81.1667 50.9342 82.85V91H49.2342V88.95C48.8342 89.6333 48.2425 90.1667 47.4592 90.55C46.6925 90.9333 45.7758 91.125 44.7092 91.125C43.2425 91.125 42.0758 90.775 41.2092 90.075C40.3425 89.375 39.9092 88.45 39.9092 87.3C39.9092 86.1833 40.3092 85.2833 41.1092 84.6C41.9258 83.9167 43.2175 83.575 44.9842 83.575H49.1592V82.775C49.1592 81.6417 48.8425 80.7833 48.2092 80.2C47.5758 79.6 46.6508 79.3 45.4342 79.3C44.6008 79.3 43.8008 79.4417 43.0342 79.725C42.2675 79.9917 41.6092 80.3667 41.0592 80.85L40.2592 79.525C40.9258 78.9583 41.7258 78.525 42.6592 78.225C43.5925 77.9083 44.5758 77.75 45.6092 77.75ZM44.9842 89.725C45.9842 89.725 46.8425 89.5 47.5592 89.05C48.2758 88.5833 48.8092 87.9167 49.1592 87.05V84.9H45.0342C42.7842 84.9 41.6592 85.6833 41.6592 87.25C41.6592 88.0167 41.9508 88.625 42.5342 89.075C43.1175 89.5083 43.9342 89.725 44.9842 89.725ZM59.2803 91.125C58.2136 91.125 57.1886 90.975 56.2053 90.675C55.2386 90.3583 54.4803 89.9667 53.9303 89.5L54.7303 88.1C55.2803 88.5333 55.9719 88.8917 56.8053 89.175C57.6386 89.4417 58.5053 89.575 59.4053 89.575C60.6053 89.575 61.4886 89.3917 62.0553 89.025C62.6386 88.6417 62.9303 88.1083 62.9303 87.425C62.9303 86.9417 62.7719 86.5667 62.4553 86.3C62.1386 86.0167 61.7386 85.8083 61.2553 85.675C60.7719 85.525 60.1303 85.3833 59.3303 85.25C58.2636 85.05 57.4053 84.85 56.7553 84.65C56.1053 84.4333 55.5469 84.075 55.0803 83.575C54.6303 83.075 54.4053 82.3833 54.4053 81.5C54.4053 80.4 54.8636 79.5 55.7803 78.8C56.6969 78.1 57.9719 77.75 59.6053 77.75C60.4553 77.75 61.3053 77.8667 62.1553 78.1C63.0053 78.3167 63.7053 78.6083 64.2553 78.975L63.4803 80.4C62.3969 79.65 61.1053 79.275 59.6053 79.275C58.4719 79.275 57.6136 79.475 57.0303 79.875C56.4636 80.275 56.1803 80.8 56.1803 81.45C56.1803 81.95 56.3386 82.35 56.6553 82.65C56.9886 82.95 57.3969 83.175 57.8803 83.325C58.3636 83.4583 59.0303 83.6 59.8803 83.75C60.9303 83.95 61.7719 84.15 62.4053 84.35C63.0386 84.55 63.5803 84.8917 64.0303 85.375C64.4803 85.8583 64.7053 86.525 64.7053 87.375C64.7053 88.525 64.2219 89.4417 63.2553 90.125C62.3053 90.7917 60.9803 91.125 59.2803 91.125ZM74.6867 77.75C76.3367 77.75 77.6451 78.2333 78.6117 79.2C79.5951 80.15 80.0867 81.5417 80.0867 83.375V91H78.3117V83.55C78.3117 82.1833 77.9701 81.1417 77.2867 80.425C76.6034 79.7083 75.6284 79.35 74.3617 79.35C72.9451 79.35 71.8201 79.775 70.9867 80.625C70.1701 81.4583 69.7617 82.6167 69.7617 84.1V91H67.9867V72.45H69.7617V80.15C70.2451 79.3833 70.9117 78.7917 71.7617 78.375C72.6117 77.9583 73.5867 77.75 74.6867 77.75ZM92.8807 91.15C91.1473 91.15 89.5807 90.7667 88.1807 90C86.7973 89.2333 85.7057 88.175 84.9057 86.825C84.1223 85.4583 83.7307 83.9333 83.7307 82.25C83.7307 80.5667 84.1223 79.05 84.9057 77.7C85.7057 76.3333 86.8057 75.2667 88.2057 74.5C89.6057 73.7333 91.1723 73.35 92.9057 73.35C94.2057 73.35 95.4057 73.5667 96.5057 74C97.6057 74.4333 98.539 75.0667 99.3057 75.9L98.1307 77.075C96.764 75.6917 95.039 75 92.9557 75C91.5723 75 90.314 75.3167 89.1807 75.95C88.0473 76.5833 87.1557 77.45 86.5057 78.55C85.8723 79.65 85.5557 80.8833 85.5557 82.25C85.5557 83.6167 85.8723 84.85 86.5057 85.95C87.1557 87.05 88.0473 87.9167 89.1807 88.55C90.314 89.1833 91.5723 89.5 92.9557 89.5C95.0557 89.5 96.7807 88.8 98.1307 87.4L99.3057 88.575C98.539 89.4083 97.5973 90.05 96.4807 90.5C95.3807 90.9333 94.1807 91.15 92.8807 91.15ZM107.279 77.75C108.996 77.75 110.312 78.1833 111.229 79.05C112.146 79.9 112.604 81.1667 112.604 82.85V91H110.904V88.95C110.504 89.6333 109.912 90.1667 109.129 90.55C108.362 90.9333 107.446 91.125 106.379 91.125C104.912 91.125 103.746 90.775 102.879 90.075C102.012 89.375 101.579 88.45 101.579 87.3C101.579 86.1833 101.979 85.2833 102.779 84.6C103.596 83.9167 104.887 83.575 106.654 83.575H110.829V82.775C110.829 81.6417 110.512 80.7833 109.879 80.2C109.246 79.6 108.321 79.3 107.104 79.3C106.271 79.3 105.471 79.4417 104.704 79.725C103.937 79.9917 103.279 80.3667 102.729 80.85L101.929 79.525C102.596 78.9583 103.396 78.525 104.329 78.225C105.262 77.9083 106.246 77.75 107.279 77.75ZM106.654 89.725C107.654 89.725 108.512 89.5 109.229 89.05C109.946 88.5833 110.479 87.9167 110.829 87.05V84.9H106.704C104.454 84.9 103.329 85.6833 103.329 87.25C103.329 88.0167 103.621 88.625 104.204 89.075C104.787 89.5083 105.604 89.725 106.654 89.725ZM119.125 80.425C119.542 79.5417 120.159 78.875 120.975 78.425C121.809 77.975 122.834 77.75 124.05 77.75V79.475L123.625 79.45C122.242 79.45 121.159 79.875 120.375 80.725C119.592 81.575 119.2 82.7667 119.2 84.3V91H117.425V77.85H119.125V80.425ZM139.142 72.45V91H137.442V88.4C136.909 89.2833 136.2 89.9583 135.317 90.425C134.45 90.8917 133.467 91.125 132.367 91.125C131.134 91.125 130.017 90.8417 129.017 90.275C128.017 89.7083 127.234 88.9167 126.667 87.9C126.1 86.8833 125.817 85.725 125.817 84.425C125.817 83.125 126.1 81.9667 126.667 80.95C127.234 79.9333 128.017 79.15 129.017 78.6C130.017 78.0333 131.134 77.75 132.367 77.75C133.434 77.75 134.392 77.975 135.242 78.425C136.109 78.8583 136.817 79.5 137.367 80.35V72.45H139.142ZM132.517 89.55C133.434 89.55 134.259 89.3417 134.992 88.925C135.742 88.4917 136.325 87.8833 136.742 87.1C137.175 86.3167 137.392 85.425 137.392 84.425C137.392 83.425 137.175 82.5333 136.742 81.75C136.325 80.9667 135.742 80.3667 134.992 79.95C134.259 79.5167 133.434 79.3 132.517 79.3C131.584 79.3 130.742 79.5167 129.992 79.95C129.259 80.3667 128.675 80.9667 128.242 81.75C127.825 82.5333 127.617 83.425 127.617 84.425C127.617 85.425 127.825 86.3167 128.242 87.1C128.675 87.8833 129.259 88.4917 129.992 88.925C130.742 89.3417 131.584 89.55 132.517 89.55ZM147.61 91.125C146.544 91.125 145.519 90.975 144.535 90.675C143.569 90.3583 142.81 89.9667 142.26 89.5L143.06 88.1C143.61 88.5333 144.302 88.8917 145.135 89.175C145.969 89.4417 146.835 89.575 147.735 89.575C148.935 89.575 149.819 89.3917 150.385 89.025C150.969 88.6417 151.26 88.1083 151.26 87.425C151.26 86.9417 151.102 86.5667 150.785 86.3C150.469 86.0167 150.069 85.8083 149.585 85.675C149.102 85.525 148.46 85.3833 147.66 85.25C146.594 85.05 145.735 84.85 145.085 84.65C144.435 84.4333 143.877 84.075 143.41 83.575C142.96 83.075 142.735 82.3833 142.735 81.5C142.735 80.4 143.194 79.5 144.11 78.8C145.027 78.1 146.302 77.75 147.935 77.75C148.785 77.75 149.635 77.8667 150.485 78.1C151.335 78.3167 152.035 78.6083 152.585 78.975L151.81 80.4C150.727 79.65 149.435 79.275 147.935 79.275C146.802 79.275 145.944 79.475 145.36 79.875C144.794 80.275 144.51 80.8 144.51 81.45C144.51 81.95 144.669 82.35 144.985 82.65C145.319 82.95 145.727 83.175 146.21 83.325C146.694 83.4583 147.36 83.6 148.21 83.75C149.26 83.95 150.102 84.15 150.735 84.35C151.369 84.55 151.91 84.8917 152.36 85.375C152.81 85.8583 153.035 86.525 153.035 87.375C153.035 88.525 152.552 89.4417 151.585 90.125C150.635 90.7917 149.31 91.125 147.61 91.125Z" fill="#2D3C95"/>
</svg>
