<svg width="238" height="355" viewBox="0 0 238 355" fill="none" xmlns="http://www.w3.org/2000/svg">
<g clip-path="url(#clip0_4_41)">
<path d="M57.941 40.712H51.339V89.965H57.941V40.712Z" fill="#0DC8A1"/>
<path d="M81.639 62.586L76.804 67.086L54.647 43.243L32.482 67.086L27.647 62.586L54.647 33.553L81.639 62.586Z" fill="#0DC8A1"/>
<path d="M52.812 114.72C42.3668 114.72 32.1561 111.623 23.4712 105.82C14.7863 100.017 8.01729 91.7684 4.02007 82.1183C0.0228548 72.4682 -1.023 61.8494 1.01476 51.6049C3.05252 41.3604 8.08239 31.9502 15.4683 24.5643C22.8542 17.1784 32.2643 12.1485 42.5089 10.1108C52.7534 8.07301 63.3721 9.11884 73.0223 13.1161C82.6724 17.1133 90.9205 23.8823 96.7236 32.5672C102.527 41.2521 105.624 51.4628 105.624 61.908C105.624 75.9146 100.06 89.3475 90.1557 99.2517C80.2516 109.156 66.8186 114.72 52.812 114.72ZM52.812 15.697C43.6724 15.6972 34.738 18.4076 27.1388 23.4854C19.5396 28.5633 13.6168 35.7805 10.1193 44.2245C6.62187 52.6685 5.70687 61.9599 7.49004 70.9239C9.27322 79.8879 13.6745 88.1218 20.1372 94.5845C26.6 101.047 34.834 105.448 43.7981 107.231C52.7621 109.014 62.0535 108.099 70.4974 104.601C78.9413 101.104 86.1584 95.1807 91.2361 87.5814C96.3138 79.982 99.024 71.0476 99.024 61.908C99.024 49.6521 94.1553 37.8981 85.4891 29.2319C76.8229 20.5656 65.0689 15.697 52.813 15.697H52.812Z" fill="#0DC8A1"/>
<path d="M199.258 201.053C198.446 200.216 197.821 199.215 197.425 198.117C197.029 197.019 196.871 195.85 196.961 194.687C197.052 193.523 197.389 192.393 197.95 191.37C198.511 190.347 199.284 189.455 200.216 188.753C200.614 188.442 201.036 188.163 201.477 187.918L194.484 157.784L210.749 163.624L214.896 191.345C215.871 193.079 216.184 195.108 215.777 197.055C215.369 199.003 214.27 200.736 212.681 201.934C210.724 203.455 208.276 204.205 205.802 204.043C203.329 203.881 201 202.817 199.258 201.053Z" fill="#FFB8B8"/>
<path d="M195.539 175L195.452 174.7C186.659 144.9 177.57 114.085 166.474 80.538L166.401 80.318L166.646 80.187C172.831 76.879 182.127 77.1 188.27 80.699C193.953 84.029 196.826 90.471 195.27 96.382L203.363 135.055C206.653 147.697 210.063 160.782 213.313 173.684L213.405 174.05L212.905 174.079C206.979 174.424 200.857 174.779 195.952 174.979L195.539 175Z" fill="#CCCCCC"/>
<path d="M122.984 343.88H111.451L105.962 303.11H122.984V343.88Z" fill="#FFB8B8"/>
<path d="M125.924 354.126H88.738V353.695C88.738 346.38 95.231 340.429 103.213 340.429H125.924V354.126Z" fill="#2F2E41"/>
<path d="M231.661 335.161L220.672 338.37L201.937 301.053L218.155 296.316L231.661 335.161Z" fill="#FFB8B8"/>
<path d="M202.424 354.451L202.281 354.04C199.858 347.07 204.073 339.594 211.681 337.373L233.322 331.053L237.859 344.103L202.424 354.451Z" fill="#2F2E41"/>
<path d="M173.287 61.695C186.048 61.695 196.392 52.2146 196.392 40.52C196.392 28.8254 186.048 19.345 173.287 19.345C160.526 19.345 150.182 28.8254 150.182 40.52C150.182 52.2146 160.526 61.695 173.287 61.695Z" fill="#FFB8B8"/>
<path d="M183.661 36.596C183.792 28.055 179.892 19.596 173.861 15.344C170.946 13.2716 167.445 12.1851 163.868 12.243C160.292 12.301 156.828 13.5003 153.981 15.666C148.044 20.112 144.327 28.694 144.641 37.228C157.945 37.26 171.248 37.297 183.661 36.596Z" fill="#2F2E41"/>
<path d="M129.569 330.76L129.106 330.719C119.072 329.819 108.697 328.884 98.892 328.777L98.359 328.771L98.432 328.287C100.755 312.867 101.74 296.837 102.692 281.333C103.632 266.025 104.605 250.196 106.87 235.163C107.828 231.137 108.762 227.163 109.693 223.196C117.393 190.396 124.667 159.418 139.68 128.752L139.822 128.462L140.166 128.5C154.253 130.062 167.789 134.772 178.28 141.763L178.48 141.898L178.47 142.128C178.181 146.847 178.148 151.578 178.37 156.301C183.091 162.182 186.251 169.159 187.559 176.586C188.867 184.013 188.28 191.65 185.852 198.79C189.983 211.442 194.252 224.521 198.611 237.422C209.193 264.009 220.142 291.522 231.367 319.412L231.551 319.869L231.033 319.98C222.957 321.718 214.626 323.509 206.408 324.205L206.098 324.231L205.951 323.979C185.108 288.489 168.054 250.906 155.069 211.85C152.269 219.689 148.224 226.764 144.31 233.618C140.582 239.821 137.287 246.274 134.449 252.931C132.717 265.968 132.257 280.092 131.813 293.751C131.393 306.665 130.996 318.863 129.62 330.333L129.569 330.76Z" fill="#2F2E41"/>
<path d="M165.399 15.736C175.414 13.758 186.492 15.636 194.357 21.836C202.222 28.036 206.216 38.742 202.985 47.93C199.754 57.118 188.785 63.582 178.865 61.21C181.706 53.871 178.509 44.861 171.565 40.634C163.324 35.616 161.059 23.648 165.399 15.736Z" fill="#2F2E41"/>
<path d="M172.597 143L172.282 142.842C161.255 137.33 150.445 133.101 140.311 129.242L140 129.169V128.182L140.202 128.26L140.34 127.925C140.478 127.589 140.573 127.361 140.653 127.21C141.498 125.324 142.17 123.502 142.819 121.741C143.489 119.922 144.181 118.045 145.074 116.058C142.937 113.8 141.45 110.794 140.827 107.467C140.203 104.14 140.475 100.662 141.602 97.5302C143.84 91.7192 149.542 87.1927 155.542 86.4426C157.738 79.8164 162.634 65.8946 162.634 65.8946C162.634 65.8946 172.928 65.585 177.067 65.0093L177.137 65L177.205 65.0165C186.243 67.1833 193.788 76.555 195.553 87.8015C197.044 97.2939 194.776 108.149 189.182 118.371C186.291 123.397 183.114 128.179 179.674 132.683C177.152 136.138 174.77 139.401 172.792 142.691L172.597 143Z" fill="#CCCCCC"/>
<path d="M200.685 28.284C193.674 27.325 188.17 20.757 188.967 14.302C189.764 7.84699 196.73 2.57199 203.798 3.07299C210.866 3.57399 216.865 9.76698 216.569 16.258C216.273 22.749 209.636 29.509 200.685 28.284Z" fill="#2F2E41"/>
<path d="M199.59 24.099C192.579 23.14 187.075 16.572 187.872 10.117C188.417 5.701 191.851 1.84 196.227 0C190.573 1.134 185.707 5.649 185.049 10.979C184.249 17.434 189.757 24.002 196.767 24.961C199.372 25.3381 202.03 24.9976 204.455 23.976C202.851 24.2839 201.207 24.3255 199.59 24.099V24.099Z" fill="#2F2E41"/>
<path d="M63.6 137.882C64.9765 135.83 67.0639 134.361 69.4598 133.757C71.8556 133.153 74.3902 133.457 76.575 134.611C77.022 134.847 77.4496 135.118 77.854 135.422L106.524 119.339L105.935 135.339L78.8 148.16C77.2675 149.601 75.3251 150.53 73.2415 150.819C71.1579 151.109 69.0359 150.743 67.169 149.774C66.1092 149.275 65.1664 148.559 64.4019 147.672C63.6374 146.784 63.0683 145.746 62.7316 144.624C62.3949 143.502 62.2982 142.322 62.4479 141.161C62.5975 139.999 62.99 138.882 63.6 137.882Z" fill="#FFB8B8"/>
<path d="M87.175 128.452L87.451 128.278C115.185 110.75 143.851 92.63 174.671 71.864L174.871 71.728L175.087 71.896C180.551 76.138 183.421 84.244 181.765 90.751C180.233 96.771 174.565 101.4 167.965 102.027L130.874 121.905C118.965 128.96 106.637 136.262 94.448 143.374L94.1021 143.574L93.902 143.148C91.572 138.143 89.165 132.971 87.328 128.799L87.175 128.452Z" fill="#CCCCCC"/>
</g>
<defs>
<clipPath id="clip0_4_41">
<rect width="237.858" height="354.451" fill="white"/>
</clipPath>
</defs>
</svg>
