<svg width="176" height="150" viewBox="0 0 176 150" fill="none" xmlns="http://www.w3.org/2000/svg">
<g clip-path="url(#clip0_36_2)">
<path d="M134.342 62.5597C134.698 51.9797 124.952 43.5645 114.614 43.7283C105.124 44.441 101.123 46.9906 97.3896 50.3087C89.7922 51.2197 82.4886 58.0593 79.0639 64.6709C74.1879 73.5987 80.6072 84.4238 89.7282 87.3755C99.2366 90.1594 109.726 86.8593 117.412 80.6145C126.587 79.6119 133.891 72.7522 134.342 62.5597Z" fill="#DF6C4F"/>
<path d="M157.527 40.9717C146.496 23.8971 125.289 13.9724 105.028 17.0343C100.582 17.9635 96.2609 19.4121 92.1564 21.3501C86.276 21.4346 80.4047 21.7261 74.8229 23.7101C44.8693 32.5184 19.3542 57.4898 19.9062 90.0216C18.9997 105.069 25.3438 119.347 34.1189 131.293C42.6178 143.396 57.2103 149.592 71.7864 149.933C88.2722 150.568 104.645 146.644 119.746 140.242C137.315 132.868 153.527 120.225 162.464 103.242C170.633 86.6836 166.804 56.5969 157.527 40.9717ZM147.579 92.9292C142.397 105.051 129.526 116.625 112.828 124.199C114.628 113.248 113.991 99.7026 107.587 92.2988C108.734 91.3798 109.827 90.3954 110.86 89.3505C117.513 82.8175 121.75 73.5344 121.054 64.1456C120.701 55.5905 115.025 46.1263 106.703 44.8194C103.075 44.5434 99.44 45.5197 96.0439 46.7097C99.4222 46.5594 102.966 46.5486 106.182 47.7003C116.974 54.2173 114.455 69.4321 106.921 78.0543C102.939 82.0311 99.0045 85.7036 93.4696 87.0148C92.237 87.1141 91.0142 87.3094 89.8125 87.5989L89.7915 87.5995C88.3878 87.4813 88.9409 87.5605 86.7438 86.7995C82.0651 85.6783 74.4026 72.9546 79.2558 60.5814C80.8865 56.0736 83.982 51.8794 88.2399 49.5317C91.394 47.9568 94.995 47.8896 98.4108 47.2953C79.0329 42.9277 66.7249 64.0976 70.9299 81.0249C71.9878 85.8505 74.5191 90.2335 78.1777 93.575C67.4785 102.146 62.2017 116.503 57.9848 129.197C66.7009 116.379 74.5909 103.283 86.0566 97.8776C90.7327 99.0771 95.6785 98.6822 100.102 96.7562C101.523 97.5839 102.665 98.8113 103.384 100.283C106.51 106.223 109.06 115.64 109.904 125.466C102.121 128.698 93.9552 130.927 85.6039 132.099C71.7109 134.289 58.4658 131.471 52.3612 126.346C41.0892 116.361 33.5991 99.498 33.3003 88.863C30.9531 69.9244 43.0234 44.7823 67.6441 31.5863C72.4766 28.8398 77.3726 26.035 82.7409 24.458C84.3756 24.0478 86.0254 23.7059 87.6814 23.3924C87.1 23.6626 86.519 23.932 85.9384 24.2006C85.3338 24.4949 84.7289 24.7887 84.1237 25.0821C88.8258 23.6515 93.6132 22.5142 98.4579 21.6768C106.005 20.3712 112.703 21.5191 119.764 23.9257C134.236 29.0108 145.88 41.5391 148.65 53.0118C151.167 63.2637 150.815 64.313 150.529 74.8333C149.663 85.3567 150.288 84.7525 147.579 92.9291V92.9292Z" fill="black"/>
</g>
<defs>
<clipPath id="clip0_36_2">
<rect width="176" height="150" fill="white"/>
</clipPath>
</defs>
</svg>
